<svg xmlns="http://www.w3.org/2000/svg" xmlns:xlink="http://www.w3.org/1999/xlink" width="213" zoomAndPan="magnify" viewBox="0 0 159.75 44.999999" height="60" preserveAspectRatio="xMidYMid meet" version="1.0"><defs><clipPath id="5ceea16737"><path d="M 0.046875 0.046875 L 159.367188 0.046875 L 159.367188 44.949219 L 0.046875 44.949219 Z M 0.046875 0.046875 " clip-rule="nonzero"/></clipPath><clipPath id="6675f419e3"><path d="M 0 22.5 C 0 28.457031 2.367188 34.171875 6.578125 38.386719 C 10.792969 42.597656 16.507812 44.964844 22.464844 44.964844 L 137.035156 44.964844 C 142.992188 44.964844 148.707031 42.597656 152.921875 38.386719 C 157.132812 34.171875 159.5 28.457031 159.5 22.5 C 159.5 16.542969 157.132812 10.828125 152.921875 6.613281 C 148.707031 2.402344 142.992188 0.0351562 137.035156 0.0351562 L 22.464844 0.0351562 C 16.507812 0.0351562 10.792969 2.402344 6.578125 6.613281 C 2.367188 10.828125 0 16.542969 0 22.5 Z M 0 22.5 " clip-rule="nonzero"/></clipPath><clipPath id="8cf21d9964"><path d="M 23.722656 0.046875 L 158.902344 0.046875 L 158.902344 44.445312 L 23.722656 44.445312 Z M 23.722656 0.046875 " clip-rule="nonzero"/></clipPath><clipPath id="cbdee5e6ad"><path d="M 0 22.5 C 0 28.457031 2.367188 34.171875 6.578125 38.386719 C 10.792969 42.597656 16.507812 44.964844 22.464844 44.964844 L 137.035156 44.964844 C 142.992188 44.964844 148.707031 42.597656 152.921875 38.386719 C 157.132812 34.171875 159.5 28.457031 159.5 22.5 C 159.5 16.542969 157.132812 10.828125 152.921875 6.613281 C 148.707031 2.402344 142.992188 0.0351562 137.035156 0.0351562 L 22.464844 0.0351562 C 16.507812 0.0351562 10.792969 2.402344 6.578125 6.613281 C 2.367188 10.828125 0 16.542969 0 22.5 Z M 0 22.5 " clip-rule="nonzero"/></clipPath><clipPath id="4e480820db"><path d="M 0.046875 0.046875 L 135.230469 0.046875 L 135.230469 44.445312 L 0.046875 44.445312 Z M 0.046875 0.046875 " clip-rule="nonzero"/></clipPath><clipPath id="ce462cf55c"><path d="M 0 22.5 C 0 28.457031 2.367188 34.171875 6.578125 38.386719 C 10.792969 42.597656 16.507812 44.964844 22.464844 44.964844 L 137.035156 44.964844 C 142.992188 44.964844 148.707031 42.597656 152.921875 38.386719 C 157.132812 34.171875 159.5 28.457031 159.5 22.5 C 159.5 16.542969 157.132812 10.828125 152.921875 6.613281 C 148.707031 2.402344 142.992188 0.0351562 137.035156 0.0351562 L 22.464844 0.0351562 C 16.507812 0.0351562 10.792969 2.402344 6.578125 6.613281 C 2.367188 10.828125 0 16.542969 0 22.5 Z M 0 22.5 " clip-rule="nonzero"/></clipPath><clipPath id="1c41b26c34"><path d="M 18 15 L 31 15 L 31 30 L 18 30 Z M 18 15 " clip-rule="nonzero"/></clipPath><clipPath id="7eccb94967"><path d="M 0 22.5 C 0 28.457031 2.367188 34.171875 6.578125 38.386719 C 10.792969 42.597656 16.507812 44.964844 22.464844 44.964844 L 137.035156 44.964844 C 142.992188 44.964844 148.707031 42.597656 152.921875 38.386719 C 157.132812 34.171875 159.5 28.457031 159.5 22.5 C 159.5 16.542969 157.132812 10.828125 152.921875 6.613281 C 148.707031 2.402344 142.992188 0.0351562 137.035156 0.0351562 L 22.464844 0.0351562 C 16.507812 0.0351562 10.792969 2.402344 6.578125 6.613281 C 2.367188 10.828125 0 16.542969 0 22.5 Z M 0 22.5 " clip-rule="nonzero"/></clipPath><clipPath id="1aff69b769"><path d="M 31 19 L 42 19 L 42 30 L 31 30 Z M 31 19 " clip-rule="nonzero"/></clipPath><clipPath id="c79a56a828"><path d="M 0 22.5 C 0 28.457031 2.367188 34.171875 6.578125 38.386719 C 10.792969 42.597656 16.507812 44.964844 22.464844 44.964844 L 137.035156 44.964844 C 142.992188 44.964844 148.707031 42.597656 152.921875 38.386719 C 157.132812 34.171875 159.5 28.457031 159.5 22.5 C 159.5 16.542969 157.132812 10.828125 152.921875 6.613281 C 148.707031 2.402344 142.992188 0.0351562 137.035156 0.0351562 L 22.464844 0.0351562 C 16.507812 0.0351562 10.792969 2.402344 6.578125 6.613281 C 2.367188 10.828125 0 16.542969 0 22.5 Z M 0 22.5 " clip-rule="nonzero"/></clipPath><clipPath id="0c77378261"><path d="M 43 19 L 53 19 L 53 30 L 43 30 Z M 43 19 " clip-rule="nonzero"/></clipPath><clipPath id="ada2beb800"><path d="M 0 22.5 C 0 28.457031 2.367188 34.171875 6.578125 38.386719 C 10.792969 42.597656 16.507812 44.964844 22.464844 44.964844 L 137.035156 44.964844 C 142.992188 44.964844 148.707031 42.597656 152.921875 38.386719 C 157.132812 34.171875 159.5 28.457031 159.5 22.5 C 159.5 16.542969 157.132812 10.828125 152.921875 6.613281 C 148.707031 2.402344 142.992188 0.0351562 137.035156 0.0351562 L 22.464844 0.0351562 C 16.507812 0.0351562 10.792969 2.402344 6.578125 6.613281 C 2.367188 10.828125 0 16.542969 0 22.5 Z M 0 22.5 " clip-rule="nonzero"/></clipPath><clipPath id="907c272761"><path d="M 54 16 L 62 16 L 62 30 L 54 30 Z M 54 16 " clip-rule="nonzero"/></clipPath><clipPath id="f77d574bae"><path d="M 0 22.5 C 0 28.457031 2.367188 34.171875 6.578125 38.386719 C 10.792969 42.597656 16.507812 44.964844 22.464844 44.964844 L 137.035156 44.964844 C 142.992188 44.964844 148.707031 42.597656 152.921875 38.386719 C 157.132812 34.171875 159.5 28.457031 159.5 22.5 C 159.5 16.542969 157.132812 10.828125 152.921875 6.613281 C 148.707031 2.402344 142.992188 0.0351562 137.035156 0.0351562 L 22.464844 0.0351562 C 16.507812 0.0351562 10.792969 2.402344 6.578125 6.613281 C 2.367188 10.828125 0 16.542969 0 22.5 Z M 0 22.5 " clip-rule="nonzero"/></clipPath><clipPath id="7537c7f271"><path d="M 62 19 L 72 19 L 72 30 L 62 30 Z M 62 19 " clip-rule="nonzero"/></clipPath><clipPath id="8d6677e266"><path d="M 0 22.5 C 0 28.457031 2.367188 34.171875 6.578125 38.386719 C 10.792969 42.597656 16.507812 44.964844 22.464844 44.964844 L 137.035156 44.964844 C 142.992188 44.964844 148.707031 42.597656 152.921875 38.386719 C 157.132812 34.171875 159.5 28.457031 159.5 22.5 C 159.5 16.542969 157.132812 10.828125 152.921875 6.613281 C 148.707031 2.402344 142.992188 0.0351562 137.035156 0.0351562 L 22.464844 0.0351562 C 16.507812 0.0351562 10.792969 2.402344 6.578125 6.613281 C 2.367188 10.828125 0 16.542969 0 22.5 Z M 0 22.5 " clip-rule="nonzero"/></clipPath><clipPath id="ccb3c2f677"><path d="M 72 19 L 83 19 L 83 30 L 72 30 Z M 72 19 " clip-rule="nonzero"/></clipPath><clipPath id="a40a8f54ab"><path d="M 0 22.5 C 0 28.457031 2.367188 34.171875 6.578125 38.386719 C 10.792969 42.597656 16.507812 44.964844 22.464844 44.964844 L 137.035156 44.964844 C 142.992188 44.964844 148.707031 42.597656 152.921875 38.386719 C 157.132812 34.171875 159.5 28.457031 159.5 22.5 C 159.5 16.542969 157.132812 10.828125 152.921875 6.613281 C 148.707031 2.402344 142.992188 0.0351562 137.035156 0.0351562 L 22.464844 0.0351562 C 16.507812 0.0351562 10.792969 2.402344 6.578125 6.613281 C 2.367188 10.828125 0 16.542969 0 22.5 Z M 0 22.5 " clip-rule="nonzero"/></clipPath><clipPath id="1a86cac03c"><path d="M 82 16 L 90 16 L 90 30 L 82 30 Z M 82 16 " clip-rule="nonzero"/></clipPath><clipPath id="494e2a9ee0"><path d="M 0 22.5 C 0 28.457031 2.367188 34.171875 6.578125 38.386719 C 10.792969 42.597656 16.507812 44.964844 22.464844 44.964844 L 137.035156 44.964844 C 142.992188 44.964844 148.707031 42.597656 152.921875 38.386719 C 157.132812 34.171875 159.5 28.457031 159.5 22.5 C 159.5 16.542969 157.132812 10.828125 152.921875 6.613281 C 148.707031 2.402344 142.992188 0.0351562 137.035156 0.0351562 L 22.464844 0.0351562 C 16.507812 0.0351562 10.792969 2.402344 6.578125 6.613281 C 2.367188 10.828125 0 16.542969 0 22.5 Z M 0 22.5 " clip-rule="nonzero"/></clipPath><clipPath id="fa4de39242"><path d="M 95 19 L 105 19 L 105 30 L 95 30 Z M 95 19 " clip-rule="nonzero"/></clipPath><clipPath id="b3568b66ee"><path d="M 0 22.5 C 0 28.457031 2.367188 34.171875 6.578125 38.386719 C 10.792969 42.597656 16.507812 44.964844 22.464844 44.964844 L 137.035156 44.964844 C 142.992188 44.964844 148.707031 42.597656 152.921875 38.386719 C 157.132812 34.171875 159.5 28.457031 159.5 22.5 C 159.5 16.542969 157.132812 10.828125 152.921875 6.613281 C 148.707031 2.402344 142.992188 0.0351562 137.035156 0.0351562 L 22.464844 0.0351562 C 16.507812 0.0351562 10.792969 2.402344 6.578125 6.613281 C 2.367188 10.828125 0 16.542969 0 22.5 Z M 0 22.5 " clip-rule="nonzero"/></clipPath><clipPath id="517d3d85f6"><path d="M 106 19 L 115 19 L 115 30 L 106 30 Z M 106 19 " clip-rule="nonzero"/></clipPath><clipPath id="c5163c2ba3"><path d="M 0 22.5 C 0 28.457031 2.367188 34.171875 6.578125 38.386719 C 10.792969 42.597656 16.507812 44.964844 22.464844 44.964844 L 137.035156 44.964844 C 142.992188 44.964844 148.707031 42.597656 152.921875 38.386719 C 157.132812 34.171875 159.5 28.457031 159.5 22.5 C 159.5 16.542969 157.132812 10.828125 152.921875 6.613281 C 148.707031 2.402344 142.992188 0.0351562 137.035156 0.0351562 L 22.464844 0.0351562 C 16.507812 0.0351562 10.792969 2.402344 6.578125 6.613281 C 2.367188 10.828125 0 16.542969 0 22.5 Z M 0 22.5 " clip-rule="nonzero"/></clipPath><clipPath id="bb713b60eb"><path d="M 130.339844 17.257812 L 140.824219 17.257812 L 140.824219 26.992188 L 130.339844 26.992188 Z M 130.339844 17.257812 " clip-rule="nonzero"/></clipPath><clipPath id="3ba664a966"><path d="M 0 22.5 C 0 28.457031 2.367188 34.171875 6.578125 38.386719 C 10.792969 42.597656 16.507812 44.964844 22.464844 44.964844 L 137.035156 44.964844 C 142.992188 44.964844 148.707031 42.597656 152.921875 38.386719 C 157.132812 34.171875 159.5 28.457031 159.5 22.5 C 159.5 16.542969 157.132812 10.828125 152.921875 6.613281 C 148.707031 2.402344 142.992188 0.0351562 137.035156 0.0351562 L 22.464844 0.0351562 C 16.507812 0.0351562 10.792969 2.402344 6.578125 6.613281 C 2.367188 10.828125 0 16.542969 0 22.5 Z M 0 22.5 " clip-rule="nonzero"/></clipPath><clipPath id="a71ee864a6"><path d="M 116.289062 22.292969 L 135.347656 3.230469 L 154.410156 22.292969 L 135.347656 41.355469 Z M 116.289062 22.292969 " clip-rule="nonzero"/></clipPath><clipPath id="1f09253b17"><path d="M 135.390625 3.191406 L 116.328125 22.253906 L 135.390625 41.3125 L 154.449219 22.253906 Z M 135.390625 3.191406 " clip-rule="nonzero"/></clipPath><clipPath id="4ee086fc6b"><path d="M 121.355469 8.273438 L 149 8.273438 L 149 35.980469 L 121.355469 35.980469 Z M 121.355469 8.273438 " clip-rule="nonzero"/></clipPath><clipPath id="cebdcde776"><path d="M 0 22.5 C 0 28.457031 2.367188 34.171875 6.578125 38.386719 C 10.792969 42.597656 16.507812 44.964844 22.464844 44.964844 L 137.035156 44.964844 C 142.992188 44.964844 148.707031 42.597656 152.921875 38.386719 C 157.132812 34.171875 159.5 28.457031 159.5 22.5 C 159.5 16.542969 157.132812 10.828125 152.921875 6.613281 C 148.707031 2.402344 142.992188 0.0351562 137.035156 0.0351562 L 22.464844 0.0351562 C 16.507812 0.0351562 10.792969 2.402344 6.578125 6.613281 C 2.367188 10.828125 0 16.542969 0 22.5 Z M 0 22.5 " clip-rule="nonzero"/></clipPath><clipPath id="2ad68ea3cc"><path d="M 116.289062 22.292969 L 135.347656 3.230469 L 154.410156 22.292969 L 135.347656 41.355469 Z M 116.289062 22.292969 " clip-rule="nonzero"/></clipPath><clipPath id="c9b8d6f019"><path d="M 135.390625 3.191406 L 116.328125 22.253906 L 135.390625 41.3125 L 154.449219 22.253906 Z M 135.390625 3.191406 " clip-rule="nonzero"/></clipPath><clipPath id="e5e7bc0b11"><path d="M 135.390625 3.191406 L 116.289062 22.292969 L 135.386719 41.394531 L 154.488281 22.289062 Z M 135.390625 3.191406 " clip-rule="nonzero"/></clipPath></defs><g clip-path="url(#5ceea16737)"><g clip-path="url(#6675f419e3)"><path fill="#ffffff" d="M 0.046875 0.046875 L 159.453125 0.046875 L 159.453125 44.953125 L 0.046875 44.953125 Z M 0.046875 0.046875 " fill-opacity="1" fill-rule="nonzero"/></g></g><g clip-path="url(#8cf21d9964)"><g clip-path="url(#cbdee5e6ad)"><path fill="#ffffff" d="M 136.828125 44.316406 L 45.953125 44.316406 C 33.792969 44.316406 23.933594 34.453125 23.933594 22.296875 C 23.933594 10.136719 33.792969 0.273438 45.953125 0.273438 L 136.828125 0.273438 C 148.988281 0.273438 158.847656 10.136719 158.847656 22.296875 C 158.847656 34.453125 148.988281 44.316406 136.828125 44.316406 Z M 136.828125 44.316406 " fill-opacity="1" fill-rule="nonzero"/><path fill="#ffffff" d="M 136.828125 44.527344 L 45.953125 44.527344 C 33.6875 44.527344 23.722656 34.558594 23.722656 22.296875 C 23.722656 10.027344 33.6875 0.0585938 45.953125 0.0585938 L 136.828125 0.0585938 C 149.097656 0.0585938 159.0625 10.027344 159.0625 22.296875 C 159.0625 34.558594 149.097656 44.527344 136.828125 44.527344 Z M 45.953125 0.488281 C 33.921875 0.488281 24.148438 10.265625 24.148438 22.296875 C 24.148438 34.328125 33.921875 44.097656 45.953125 44.097656 L 136.828125 44.097656 C 148.859375 44.097656 158.632812 34.328125 158.632812 22.296875 C 158.632812 10.265625 148.859375 0.488281 136.828125 0.488281 Z M 45.953125 0.488281 " fill-opacity="1" fill-rule="nonzero"/></g></g><g clip-path="url(#4e480820db)"><g clip-path="url(#ce462cf55c)"><path fill="#ffffff" d="M 113.152344 44.316406 L 22.277344 44.316406 C 10.121094 44.316406 0.257812 34.453125 0.257812 22.296875 C 0.257812 10.136719 10.121094 0.273438 22.277344 0.273438 L 113.152344 0.273438 C 125.3125 0.273438 135.171875 10.136719 135.171875 22.296875 C 135.171875 34.453125 125.3125 44.316406 113.152344 44.316406 Z M 113.152344 44.316406 " fill-opacity="1" fill-rule="nonzero"/><path fill="#ffffff" d="M 113.152344 44.527344 L 22.277344 44.527344 C 10.015625 44.527344 0.046875 34.558594 0.046875 22.296875 C 0.046875 10.027344 10.015625 0.0585938 22.277344 0.0585938 L 113.152344 0.0585938 C 125.421875 0.0585938 135.390625 10.027344 135.390625 22.296875 C 135.390625 34.558594 125.421875 44.527344 113.152344 44.527344 Z M 22.277344 0.488281 C 10.25 0.488281 0.476562 10.265625 0.476562 22.296875 C 0.476562 34.328125 10.25 44.097656 22.277344 44.097656 L 113.152344 44.097656 C 125.183594 44.097656 134.960938 34.328125 134.960938 22.296875 C 134.960938 10.265625 125.183594 0.488281 113.152344 0.488281 Z M 22.277344 0.488281 " fill-opacity="1" fill-rule="nonzero"/></g></g><g clip-path="url(#1c41b26c34)"><g clip-path="url(#7eccb94967)"><path fill="#272030" d="M 24.824219 29.421875 C 23.609375 29.421875 22.535156 29.171875 21.609375 28.671875 C 20.675781 28.164062 19.953125 27.40625 19.429688 26.390625 C 18.90625 25.367188 18.648438 24.117188 18.648438 22.632812 C 18.648438 21.144531 18.90625 19.894531 19.429688 18.878906 C 19.953125 17.867188 20.675781 17.105469 21.609375 16.597656 C 22.535156 16.089844 23.609375 15.835938 24.824219 15.835938 C 26.09375 15.835938 27.171875 16.085938 28.054688 16.585938 C 28.945312 17.085938 29.578125 17.84375 29.960938 18.855469 L 28.054688 20.023438 L 27.832031 20.011719 C 27.550781 19.328125 27.164062 18.835938 26.675781 18.539062 C 26.1875 18.234375 25.574219 18.082031 24.824219 18.082031 C 23.726562 18.082031 22.867188 18.445312 22.25 19.171875 C 21.644531 19.894531 21.339844 21.050781 21.339844 22.632812 C 21.339844 24.203125 21.644531 25.347656 22.25 26.074219 C 22.867188 26.800781 23.726562 27.160156 24.824219 27.160156 C 26.539062 27.160156 27.589844 26.328125 27.972656 24.65625 L 28.207031 24.65625 L 30.125 25.664062 C 29.765625 26.921875 29.148438 27.859375 28.277344 28.484375 C 27.402344 29.109375 26.253906 29.421875 24.824219 29.421875 Z M 24.824219 29.421875 " fill-opacity="1" fill-rule="nonzero"/></g></g><g clip-path="url(#1aff69b769)"><g clip-path="url(#c79a56a828)"><path fill="#272030" d="M 36.347656 29.421875 C 35.371094 29.421875 34.515625 29.222656 33.773438 28.824219 C 33.039062 28.425781 32.46875 27.839844 32.054688 27.070312 C 31.648438 26.289062 31.445312 25.355469 31.445312 24.261719 C 31.445312 23.160156 31.648438 22.222656 32.054688 21.453125 C 32.46875 20.675781 33.039062 20.082031 33.773438 19.683594 C 34.515625 19.28125 35.371094 19.078125 36.347656 19.078125 C 37.324219 19.078125 38.175781 19.28125 38.910156 19.683594 C 39.652344 20.082031 40.222656 20.675781 40.632812 21.453125 C 41.042969 22.222656 41.25 23.160156 41.25 24.261719 C 41.25 25.355469 41.042969 26.289062 40.632812 27.070312 C 40.222656 27.839844 39.652344 28.425781 38.910156 28.824219 C 38.175781 29.222656 37.324219 29.421875 36.347656 29.421875 Z M 36.347656 27.300781 C 37.894531 27.300781 38.664062 26.289062 38.664062 24.261719 C 38.664062 23.207031 38.464844 22.433594 38.070312 21.945312 C 37.671875 21.453125 37.097656 21.207031 36.347656 21.207031 C 34.796875 21.207031 34.019531 22.222656 34.019531 24.261719 C 34.019531 26.289062 34.796875 27.300781 36.347656 27.300781 Z M 36.347656 27.300781 " fill-opacity="1" fill-rule="nonzero"/></g></g><g clip-path="url(#0c77378261)"><g clip-path="url(#ada2beb800)"><path fill="#272030" d="M 43.574219 29.234375 L 43.574219 19.277344 L 45.972656 19.277344 L 45.972656 20.738281 L 46.160156 20.773438 C 46.78125 19.644531 47.789062 19.078125 49.179688 19.078125 C 50.332031 19.078125 51.179688 19.394531 51.71875 20.023438 C 52.257812 20.652344 52.523438 21.558594 52.523438 22.75 L 52.523438 29.234375 L 50.019531 29.234375 L 50.019531 23.066406 C 50.019531 22.40625 49.886719 21.929688 49.625 21.640625 C 49.355469 21.34375 48.933594 21.195312 48.347656 21.195312 C 47.628906 21.195312 47.074219 21.429688 46.675781 21.898438 C 46.277344 22.359375 46.078125 23.085938 46.078125 24.074219 L 46.078125 29.234375 Z M 43.574219 29.234375 " fill-opacity="1" fill-rule="nonzero"/></g></g><g clip-path="url(#907c272761)"><g clip-path="url(#f77d574bae)"><path fill="#272030" d="M 60.671875 26.859375 L 61.328125 28.707031 C 61.050781 28.933594 60.710938 29.109375 60.296875 29.234375 C 59.890625 29.355469 59.429688 29.421875 58.917969 29.421875 C 57.839844 29.421875 57.019531 29.128906 56.460938 28.542969 C 55.898438 27.957031 55.617188 27.105469 55.617188 25.980469 L 55.617188 21.253906 L 54.097656 21.253906 L 54.097656 19.265625 L 55.617188 19.265625 L 55.617188 17.320312 L 58.121094 16.914062 L 58.121094 19.265625 L 60.953125 19.265625 L 60.953125 21.253906 L 58.121094 21.253906 L 58.121094 25.804688 C 58.121094 26.296875 58.21875 26.65625 58.425781 26.882812 C 58.625 27.109375 58.929688 27.21875 59.324219 27.21875 C 59.769531 27.21875 60.15625 27.101562 60.484375 26.859375 Z M 60.671875 26.859375 " fill-opacity="1" fill-rule="nonzero"/></g></g><g clip-path="url(#7537c7f271)"><g clip-path="url(#8d6677e266)"><path fill="#272030" d="M 65.425781 29.421875 C 64.785156 29.421875 64.234375 29.304688 63.765625 29.070312 C 63.296875 28.835938 62.933594 28.492188 62.679688 28.039062 C 62.425781 27.582031 62.304688 27.035156 62.304688 26.402344 C 62.304688 25.8125 62.425781 25.3125 62.679688 24.914062 C 62.933594 24.511719 63.328125 24.183594 63.859375 23.933594 C 64.390625 23.675781 65.078125 23.476562 65.929688 23.335938 C 66.53125 23.242188 66.984375 23.136719 67.289062 23.019531 C 67.597656 22.902344 67.808594 22.773438 67.917969 22.632812 C 68.027344 22.488281 68.082031 22.304688 68.082031 22.085938 C 68.082031 21.765625 67.96875 21.519531 67.746094 21.347656 C 67.523438 21.175781 67.152344 21.089844 66.632812 21.089844 C 66.078125 21.089844 65.550781 21.214844 65.054688 21.464844 C 64.554688 21.714844 64.121094 22.039062 63.753906 22.433594 L 63.578125 22.433594 L 62.527344 20.855469 C 63.03125 20.300781 63.648438 19.871094 64.375 19.558594 C 65.105469 19.238281 65.902344 19.078125 66.761719 19.078125 C 68.078125 19.078125 69.035156 19.359375 69.628906 19.917969 C 70.21875 20.480469 70.515625 21.277344 70.515625 22.304688 L 70.515625 26.636719 C 70.515625 27.082031 70.710938 27.300781 71.101562 27.300781 C 71.25 27.300781 71.398438 27.277344 71.546875 27.21875 L 71.664062 27.253906 L 71.851562 29 C 71.710938 29.09375 71.515625 29.167969 71.265625 29.222656 C 71.023438 29.273438 70.753906 29.304688 70.457031 29.304688 C 69.863281 29.304688 69.398438 29.191406 69.066406 28.964844 C 68.730469 28.738281 68.488281 28.378906 68.339844 27.886719 L 68.152344 27.863281 C 67.667969 28.902344 66.761719 29.421875 65.425781 29.421875 Z M 66.222656 27.546875 C 66.800781 27.546875 67.257812 27.359375 67.605469 26.976562 C 67.953125 26.585938 68.128906 26.042969 68.128906 25.347656 L 68.128906 24.34375 L 67.953125 24.308594 C 67.804688 24.425781 67.605469 24.527344 67.359375 24.613281 C 67.117188 24.691406 66.765625 24.769531 66.316406 24.84375 C 65.769531 24.933594 65.375 25.089844 65.136719 25.3125 C 64.902344 25.53125 64.785156 25.839844 64.785156 26.238281 C 64.785156 26.667969 64.90625 26.996094 65.160156 27.21875 C 65.414062 27.441406 65.769531 27.546875 66.222656 27.546875 Z M 66.222656 27.546875 " fill-opacity="1" fill-rule="nonzero"/></g></g><g clip-path="url(#ccb3c2f677)"><g clip-path="url(#a40a8f54ab)"><path fill="#272030" d="M 77.851562 29.421875 C 76.890625 29.421875 76.039062 29.222656 75.300781 28.824219 C 74.554688 28.425781 73.976562 27.835938 73.554688 27.058594 C 73.140625 26.277344 72.9375 25.34375 72.9375 24.261719 C 72.9375 23.160156 73.140625 22.222656 73.554688 21.453125 C 73.976562 20.675781 74.554688 20.082031 75.289062 19.683594 C 76.019531 19.28125 76.859375 19.078125 77.816406 19.078125 C 79.914062 19.078125 81.257812 19.84375 81.851562 21.371094 L 80.132812 22.597656 L 79.945312 22.597656 C 79.734375 22.125 79.464844 21.773438 79.136719 21.546875 C 78.808594 21.320312 78.367188 21.207031 77.816406 21.207031 C 77.089844 21.207031 76.523438 21.457031 76.117188 21.957031 C 75.710938 22.457031 75.511719 23.226562 75.511719 24.261719 C 75.511719 25.285156 75.710938 26.046875 76.117188 26.554688 C 76.53125 27.054688 77.105469 27.300781 77.851562 27.300781 C 78.394531 27.300781 78.855469 27.160156 79.230469 26.871094 C 79.605469 26.574219 79.875 26.152344 80.039062 25.605469 L 80.226562 25.582031 L 82.003906 26.554688 C 81.753906 27.40625 81.285156 28.09375 80.597656 28.625 C 79.921875 29.15625 79.003906 29.421875 77.851562 29.421875 Z M 77.851562 29.421875 " fill-opacity="1" fill-rule="nonzero"/></g></g><g clip-path="url(#1a86cac03c)"><g clip-path="url(#494e2a9ee0)"><path fill="#272030" d="M 89.183594 26.859375 L 89.839844 28.707031 C 89.5625 28.933594 89.222656 29.109375 88.808594 29.234375 C 88.402344 29.355469 87.941406 29.421875 87.429688 29.421875 C 86.351562 29.421875 85.53125 29.128906 84.972656 28.542969 C 84.410156 27.957031 84.128906 27.105469 84.128906 25.980469 L 84.128906 21.253906 L 82.609375 21.253906 L 82.609375 19.265625 L 84.128906 19.265625 L 84.128906 17.320312 L 86.632812 16.914062 L 86.632812 19.265625 L 89.464844 19.265625 L 89.464844 21.253906 L 86.632812 21.253906 L 86.632812 25.804688 C 86.632812 26.296875 86.730469 26.65625 86.9375 26.882812 C 87.136719 27.109375 87.441406 27.21875 87.835938 27.21875 C 88.28125 27.21875 88.667969 27.101562 88.996094 26.859375 Z M 89.183594 26.859375 " fill-opacity="1" fill-rule="nonzero"/></g></g><g clip-path="url(#fa4de39242)"><g clip-path="url(#b3568b66ee)"><path fill="#272030" d="M 98.980469 29.421875 C 97.855469 29.421875 97.027344 29.117188 96.5 28.507812 C 95.96875 27.898438 95.703125 27.023438 95.703125 25.875 L 95.703125 19.277344 L 98.195312 19.277344 L 98.195312 25.558594 C 98.195312 26.167969 98.328125 26.613281 98.59375 26.894531 C 98.855469 27.171875 99.265625 27.3125 99.8125 27.3125 C 100.503906 27.3125 101.042969 27.089844 101.425781 26.636719 C 101.804688 26.175781 102 25.460938 102 24.484375 L 102 19.277344 L 104.503906 19.277344 L 104.503906 29.234375 L 102.105469 29.234375 L 102.105469 27.769531 L 101.917969 27.722656 C 101.59375 28.292969 101.207031 28.71875 100.746094 29 C 100.285156 29.28125 99.695312 29.421875 98.980469 29.421875 Z M 98.980469 29.421875 " fill-opacity="1" fill-rule="nonzero"/></g></g><g clip-path="url(#517d3d85f6)"><g clip-path="url(#c5163c2ba3)"><path fill="#272030" d="M 110.597656 29.421875 C 109.917969 29.421875 109.292969 29.339844 108.726562 29.1875 C 108.164062 29.023438 107.679688 28.804688 107.273438 28.53125 C 106.875 28.25 106.585938 27.929688 106.398438 27.558594 L 107.777344 26.0625 L 107.976562 26.0625 C 108.304688 26.507812 108.691406 26.84375 109.148438 27.070312 C 109.597656 27.289062 110.089844 27.394531 110.621094 27.394531 C 111.105469 27.394531 111.46875 27.3125 111.722656 27.140625 C 111.96875 26.96875 112.09375 26.71875 112.09375 26.390625 C 112.09375 26.132812 112.003906 25.917969 111.824219 25.746094 C 111.644531 25.578125 111.359375 25.441406 110.960938 25.347656 L 109.648438 25.03125 C 108.660156 24.796875 107.933594 24.441406 107.472656 23.957031 C 107.019531 23.472656 106.796875 22.855469 106.796875 22.109375 C 106.796875 21.484375 106.949219 20.945312 107.261719 20.492188 C 107.582031 20.035156 108.03125 19.683594 108.609375 19.441406 C 109.183594 19.199219 109.855469 19.078125 110.621094 19.078125 C 111.515625 19.078125 112.257812 19.210938 112.84375 19.476562 C 113.433594 19.730469 113.898438 20.078125 114.238281 20.503906 L 112.890625 21.957031 L 112.714844 21.957031 C 112.433594 21.644531 112.121094 21.417969 111.78125 21.277344 C 111.433594 21.128906 111.046875 21.054688 110.621094 21.054688 C 109.628906 21.054688 109.136719 21.359375 109.136719 21.96875 C 109.136719 22.234375 109.222656 22.445312 109.402344 22.609375 C 109.589844 22.769531 109.917969 22.898438 110.386719 22.996094 L 111.617188 23.265625 C 112.621094 23.484375 113.359375 23.835938 113.828125 24.320312 C 114.292969 24.796875 114.527344 25.4375 114.527344 26.238281 C 114.527344 26.878906 114.371094 27.441406 114.0625 27.921875 C 113.746094 28.398438 113.292969 28.769531 112.703125 29.035156 C 112.117188 29.292969 111.417969 29.421875 110.597656 29.421875 Z M 110.597656 29.421875 " fill-opacity="1" fill-rule="nonzero"/></g></g><g clip-path="url(#bb713b60eb)"><g clip-path="url(#3ba664a966)"><g clip-path="url(#a71ee864a6)"><g clip-path="url(#1f09253b17)"><path fill="#000000" d="M 140.148438 18.964844 L 140.148438 24.691406 C 140.148438 25.40625 139.253906 25.765625 138.71875 25.230469 L 137.257812 23.769531 C 136.878906 23.390625 136.261719 23.390625 135.882812 23.769531 L 133.257812 26.394531 C 132.722656 26.929688 131.828125 26.929688 131.289062 26.390625 C 130.75 25.855469 130.75 24.960938 131.289062 24.421875 L 133.910156 21.800781 C 134.292969 21.421875 134.292969 20.804688 133.910156 20.421875 L 132.453125 18.964844 C 131.914062 18.425781 132.273438 17.53125 132.988281 17.53125 L 138.71875 17.53125 C 139.609375 17.707031 140.148438 18.246094 140.148438 18.964844 " fill-opacity="1" fill-rule="nonzero"/></g></g></g></g><g clip-path="url(#4ee086fc6b)"><g clip-path="url(#cebdcde776)"><g clip-path="url(#2ad68ea3cc)"><g clip-path="url(#c9b8d6f019)"><g clip-path="url(#e5e7bc0b11)"><path fill="#000000" d="M 127.808594 14.714844 C 123.671875 18.847656 123.574219 25.636719 127.808594 29.875 C 131.941406 34.007812 138.734375 34.105469 142.96875 29.875 C 147.101562 25.738281 147.203125 18.945312 142.96875 14.714844 C 138.832031 10.578125 132.039062 10.476562 127.808594 14.714844 Z M 144.9375 31.84375 C 139.621094 37.15625 131.152344 37.15625 125.835938 31.84375 C 120.519531 26.523438 120.519531 18.058594 125.835938 12.742188 C 131.152344 7.425781 139.621094 7.425781 144.9375 12.742188 C 150.351562 17.960938 150.253906 26.523438 144.9375 31.84375 " fill-opacity="1" fill-rule="nonzero"/></g></g></g></g></g></svg>