<svg xmlns="http://www.w3.org/2000/svg" xmlns:xlink="http://www.w3.org/1999/xlink" width="213" zoomAndPan="magnify" viewBox="0 0 159.75 44.999999" height="60" preserveAspectRatio="xMidYMid meet" version="1.0"><defs><clipPath id="7e962823bb"><path d="M 13.300781 0.535156 L 145.21875 0.535156 L 145.21875 43.527344 L 13.300781 43.527344 Z M 13.300781 0.535156 " clip-rule="nonzero"/></clipPath><clipPath id="7d9dfcc858"><path d="M 45.042969 37.503906 L 113.484375 37.503906 L 113.484375 44.964844 L 45.042969 44.964844 Z M 45.042969 37.503906 " clip-rule="nonzero"/></clipPath><clipPath id="3c6b2c3ec5"><path d="M 49 38 L 54 38 L 54 44.964844 L 49 44.964844 Z M 49 38 " clip-rule="nonzero"/></clipPath><clipPath id="d3f764e170"><path d="M 55 38 L 56 38 L 56 44.964844 L 55 44.964844 Z M 55 38 " clip-rule="nonzero"/></clipPath><clipPath id="c61a3a0b48"><path d="M 56 38 L 63 38 L 63 44.964844 L 56 44.964844 Z M 56 38 " clip-rule="nonzero"/></clipPath><clipPath id="8a0f995ce6"><path d="M 63 38 L 65 38 L 65 44.964844 L 63 44.964844 Z M 63 38 " clip-rule="nonzero"/></clipPath><clipPath id="d22db20008"><path d="M 65 38 L 69 38 L 69 44.964844 L 65 44.964844 Z M 65 38 " clip-rule="nonzero"/></clipPath><clipPath id="705b3a935d"><path d="M 69 38 L 75 38 L 75 44.964844 L 69 44.964844 Z M 69 38 " clip-rule="nonzero"/></clipPath><clipPath id="ef7d499ed6"><path d="M 75 38 L 79 38 L 79 44.964844 L 75 44.964844 Z M 75 38 " clip-rule="nonzero"/></clipPath><clipPath id="7338e161fa"><path d="M 81 38 L 86 38 L 86 44.964844 L 81 44.964844 Z M 81 38 " clip-rule="nonzero"/></clipPath><clipPath id="ec5c6e272f"><path d="M 85 38 L 90 38 L 90 44.964844 L 85 44.964844 Z M 85 38 " clip-rule="nonzero"/></clipPath><clipPath id="f5e764fdee"><path d="M 90 38 L 95 38 L 95 44.964844 L 90 44.964844 Z M 90 38 " clip-rule="nonzero"/></clipPath><clipPath id="ee5680412f"><path d="M 96 38 L 102 38 L 102 44.964844 L 96 44.964844 Z M 96 38 " clip-rule="nonzero"/></clipPath><clipPath id="036115714b"><path d="M 102 38 L 103 38 L 103 44.964844 L 102 44.964844 Z M 102 38 " clip-rule="nonzero"/></clipPath><clipPath id="6567dc3e07"><path d="M 103 38 L 110 38 L 110 44.964844 L 103 44.964844 Z M 103 38 " clip-rule="nonzero"/></clipPath></defs><g clip-path="url(#7e962823bb)"><path stroke-linecap="butt" transform="matrix(0.485155, 0, 0, 0.488553, 13.30283, 0.535927)" fill="none" stroke-linejoin="miter" d="M -0.00422231 -0.00157713 L 271.904765 -0.00157713 L 271.904765 88.405145 L -0.00422231 88.405145 Z M -0.00422231 -0.00157713 " stroke="#ffffff" stroke-width="9.739" stroke-opacity="1" stroke-miterlimit="4"/></g><g clip-path="url(#7d9dfcc858)"><path fill="#8a36eb" d="M 45.042969 37.503906 L 113.480469 37.503906 L 113.480469 46.476562 L 45.042969 46.476562 Z M 45.042969 37.503906 " fill-opacity="1" fill-rule="nonzero"/></g><path fill="#ffffff" d="M 39.804688 18.28125 C 39.804688 19.308594 39.570312 20.25 39.105469 21.097656 C 38.640625 21.949219 37.921875 22.632812 36.953125 23.152344 C 35.984375 23.671875 34.785156 23.929688 33.347656 23.929688 L 30.691406 23.929688 L 30.691406 30.292969 L 26.40625 30.292969 L 26.40625 12.582031 L 33.347656 12.582031 C 34.746094 12.582031 35.929688 12.824219 36.902344 13.308594 C 37.871094 13.796875 38.597656 14.46875 39.082031 15.332031 C 39.5625 16.1875 39.804688 17.171875 39.804688 18.28125 Z M 33.019531 20.5 C 33.835938 20.5 34.445312 20.308594 34.84375 19.921875 C 35.246094 19.535156 35.445312 18.988281 35.445312 18.28125 C 35.445312 17.574219 35.246094 17.027344 34.84375 16.640625 C 34.445312 16.253906 33.835938 16.0625 33.019531 16.0625 L 30.691406 16.0625 L 30.691406 20.5 Z M 33.019531 20.5 " fill-opacity="1" fill-rule="nonzero"/><path fill="#ffffff" d="M 42.964844 12.582031 L 47.25 12.582031 L 47.25 30.292969 L 42.964844 30.292969 Z M 42.964844 12.582031 " fill-opacity="1" fill-rule="nonzero"/><path fill="#ffffff" d="M 62.0625 30.292969 L 58.472656 24.867188 L 55.316406 30.292969 L 50.453125 30.292969 L 56.097656 21.289062 L 50.328125 12.582031 L 55.316406 12.582031 L 58.851562 17.925781 L 61.953125 12.582031 L 66.816406 12.582031 L 61.230469 21.511719 L 67.046875 30.292969 Z M 62.0625 30.292969 " fill-opacity="1" fill-rule="nonzero"/><path fill="#ffffff" d="M 74.410156 16.035156 L 74.410156 19.625 L 80.144531 19.625 L 80.144531 22.953125 L 74.410156 22.953125 L 74.410156 26.839844 L 80.902344 26.839844 L 80.902344 30.292969 L 70.125 30.292969 L 70.125 12.582031 L 80.902344 12.582031 L 80.902344 16.035156 Z M 74.410156 16.035156 " fill-opacity="1" fill-rule="nonzero"/><path fill="#ffffff" d="M 88.890625 26.964844 L 94.503906 26.964844 L 94.503906 30.292969 L 84.605469 30.292969 L 84.605469 12.582031 L 88.890625 12.582031 Z M 88.890625 26.964844 " fill-opacity="1" fill-rule="nonzero"/><path fill="#ffffff" d="M 97.484375 12.582031 L 101.769531 12.582031 L 101.769531 30.292969 L 97.484375 30.292969 Z M 97.484375 12.582031 " fill-opacity="1" fill-rule="nonzero"/><path fill="#ffffff" d="M 110.359375 26.765625 L 117.929688 26.765625 L 117.929688 30.292969 L 105.496094 30.292969 L 105.496094 27.011719 L 113.015625 16.109375 L 105.496094 16.109375 L 105.496094 12.582031 L 117.929688 12.582031 L 117.929688 15.863281 Z M 110.359375 26.765625 " fill-opacity="1" fill-rule="nonzero"/><path fill="#ffffff" d="M 125.949219 16.035156 L 125.949219 19.625 L 131.683594 19.625 L 131.683594 22.953125 L 125.949219 22.953125 L 125.949219 26.839844 L 132.4375 26.839844 L 132.4375 30.292969 L 121.660156 30.292969 L 121.660156 12.582031 L 132.4375 12.582031 L 132.4375 16.035156 Z M 125.949219 16.035156 " fill-opacity="1" fill-rule="nonzero"/><g clip-path="url(#3c6b2c3ec5)"><path fill="#ffffff" d="M 50.769531 38.15625 C 51.421875 38.15625 51.984375 38.277344 52.457031 38.519531 C 52.929688 38.757812 53.289062 39.105469 53.535156 39.554688 C 53.78125 40.003906 53.90625 40.539062 53.90625 41.15625 C 53.90625 41.773438 53.78125 42.304688 53.535156 42.753906 C 53.289062 43.195312 52.929688 43.535156 52.457031 43.773438 C 51.984375 44.011719 51.421875 44.128906 50.769531 44.128906 L 49.011719 44.128906 L 49.011719 38.15625 Z M 50.769531 43.632812 C 51.59375 43.632812 52.21875 43.414062 52.65625 42.976562 C 53.085938 42.542969 53.304688 41.933594 53.304688 41.15625 C 53.304688 40.371094 53.085938 39.757812 52.65625 39.316406 C 52.21875 38.875 51.59375 38.652344 50.769531 38.652344 L 49.609375 38.652344 L 49.609375 43.632812 Z M 50.769531 43.632812 " fill-opacity="1" fill-rule="nonzero"/></g><g clip-path="url(#d3f764e170)"><path fill="#ffffff" d="M 55 38.15625 L 55.601562 38.15625 L 55.601562 44.128906 L 55 44.128906 Z M 55 38.15625 " fill-opacity="1" fill-rule="nonzero"/></g><g clip-path="url(#c61a3a0b48)"><path fill="#ffffff" d="M 61.617188 39.902344 C 61.445312 39.511719 61.183594 39.203125 60.835938 38.976562 C 60.488281 38.75 60.078125 38.636719 59.609375 38.636719 C 59.167969 38.636719 58.773438 38.738281 58.421875 38.941406 C 58.070312 39.148438 57.792969 39.441406 57.59375 39.820312 C 57.390625 40.199219 57.289062 40.636719 57.289062 41.136719 C 57.289062 41.640625 57.390625 42.082031 57.59375 42.464844 C 57.792969 42.84375 58.070312 43.140625 58.421875 43.339844 C 58.773438 43.546875 59.167969 43.648438 59.609375 43.648438 C 60.019531 43.648438 60.390625 43.5625 60.71875 43.382812 C 61.050781 43.199219 61.320312 42.945312 61.515625 42.613281 C 61.71875 42.28125 61.832031 41.890625 61.863281 41.445312 L 59.371094 41.445312 L 59.371094 40.957031 L 62.496094 40.957031 L 62.496094 41.394531 C 62.46875 41.921875 62.324219 42.394531 62.066406 42.820312 C 61.816406 43.246094 61.476562 43.578125 61.046875 43.820312 C 60.621094 44.066406 60.140625 44.1875 59.609375 44.1875 C 59.058594 44.1875 58.558594 44.058594 58.109375 43.796875 C 57.667969 43.539062 57.316406 43.175781 57.058594 42.710938 C 56.800781 42.25 56.671875 41.722656 56.671875 41.136719 C 56.671875 40.554688 56.800781 40.027344 57.058594 39.5625 C 57.316406 39.101562 57.667969 38.738281 58.109375 38.480469 C 58.558594 38.21875 59.058594 38.089844 59.609375 38.089844 C 60.242188 38.089844 60.796875 38.25 61.269531 38.570312 C 61.746094 38.890625 62.09375 39.335938 62.308594 39.902344 Z M 61.617188 39.902344 " fill-opacity="1" fill-rule="nonzero"/></g><g clip-path="url(#8a0f995ce6)"><path fill="#ffffff" d="M 63.578125 38.15625 L 64.179688 38.15625 L 64.179688 44.128906 L 63.578125 44.128906 Z M 63.578125 38.15625 " fill-opacity="1" fill-rule="nonzero"/></g><g clip-path="url(#d22db20008)"><path fill="#ffffff" d="M 68.992188 38.15625 L 68.992188 38.652344 L 67.347656 38.652344 L 67.347656 44.128906 L 66.753906 44.128906 L 66.753906 38.652344 L 65.101562 38.652344 L 65.101562 38.15625 Z M 68.992188 38.15625 " fill-opacity="1" fill-rule="nonzero"/></g><g clip-path="url(#705b3a935d)"><path fill="#ffffff" d="M 73.371094 42.710938 L 70.671875 42.710938 L 70.152344 44.128906 L 69.527344 44.128906 L 71.691406 38.238281 L 72.359375 38.238281 L 74.515625 44.128906 L 73.890625 44.128906 Z M 73.191406 42.214844 L 72.023438 38.984375 L 70.855469 42.214844 Z M 73.191406 42.214844 " fill-opacity="1" fill-rule="nonzero"/></g><g clip-path="url(#ef7d499ed6)"><path fill="#ffffff" d="M 76.0625 43.640625 L 78.1875 43.640625 L 78.1875 44.128906 L 75.464844 44.128906 L 75.464844 38.15625 L 76.0625 38.15625 Z M 76.0625 43.640625 " fill-opacity="1" fill-rule="nonzero"/></g><g clip-path="url(#7338e161fa)"><path fill="#ffffff" d="M 83.160156 44.1875 C 82.769531 44.1875 82.429688 44.121094 82.132812 43.988281 C 81.835938 43.851562 81.601562 43.660156 81.433594 43.417969 C 81.265625 43.167969 81.171875 42.890625 81.164062 42.585938 L 81.789062 42.585938 C 81.816406 42.882812 81.941406 43.140625 82.167969 43.359375 C 82.398438 43.574219 82.726562 43.679688 83.160156 43.679688 C 83.5625 43.679688 83.878906 43.578125 84.117188 43.375 C 84.351562 43.164062 84.46875 42.902344 84.46875 42.578125 C 84.46875 42.328125 84.40625 42.121094 84.273438 41.964844 C 84.140625 41.808594 83.980469 41.6875 83.789062 41.609375 C 83.59375 41.535156 83.328125 41.449219 82.988281 41.363281 C 82.59375 41.25 82.28125 41.144531 82.050781 41.046875 C 81.820312 40.941406 81.625 40.78125 81.460938 40.566406 C 81.292969 40.351562 81.210938 40.058594 81.210938 39.6875 C 81.210938 39.378906 81.289062 39.105469 81.449219 38.867188 C 81.609375 38.625 81.832031 38.433594 82.117188 38.296875 C 82.40625 38.160156 82.738281 38.089844 83.113281 38.089844 C 83.660156 38.089844 84.101562 38.226562 84.4375 38.496094 C 84.777344 38.765625 84.972656 39.113281 85.019531 39.539062 L 84.371094 39.539062 C 84.332031 39.296875 84.199219 39.082031 83.976562 38.894531 C 83.75 38.699219 83.445312 38.601562 83.0625 38.601562 C 82.707031 38.601562 82.40625 38.699219 82.167969 38.894531 C 81.929688 39.082031 81.8125 39.339844 81.8125 39.671875 C 81.8125 39.921875 81.878906 40.125 82.011719 40.277344 C 82.140625 40.433594 82.300781 40.550781 82.496094 40.632812 C 82.691406 40.710938 82.957031 40.792969 83.292969 40.882812 C 83.675781 40.992188 83.988281 41.101562 84.222656 41.203125 C 84.457031 41.308594 84.660156 41.46875 84.824219 41.683594 C 84.988281 41.898438 85.070312 42.191406 85.070312 42.554688 C 85.070312 42.835938 84.996094 43.105469 84.847656 43.359375 C 84.699219 43.605469 84.480469 43.808594 84.191406 43.964844 C 83.90625 44.113281 83.5625 44.1875 83.160156 44.1875 Z M 83.160156 44.1875 " fill-opacity="1" fill-rule="nonzero"/></g><g clip-path="url(#ec5c6e272f)"><path fill="#ffffff" d="M 89.683594 38.15625 L 89.683594 38.652344 L 88.039062 38.652344 L 88.039062 44.128906 L 87.449219 44.128906 L 87.449219 38.652344 L 85.792969 38.652344 L 85.792969 38.15625 Z M 89.683594 38.15625 " fill-opacity="1" fill-rule="nonzero"/></g><g clip-path="url(#f5e764fdee)"><path fill="#ffffff" d="M 91.199219 38.15625 L 91.199219 41.917969 C 91.199219 42.507812 91.339844 42.949219 91.621094 43.234375 C 91.898438 43.515625 92.28125 43.65625 92.765625 43.65625 C 93.25 43.65625 93.632812 43.515625 93.90625 43.234375 C 94.179688 42.953125 94.320312 42.511719 94.320312 41.917969 L 94.320312 38.15625 L 94.910156 38.15625 L 94.910156 41.910156 C 94.910156 42.667969 94.710938 43.234375 94.3125 43.613281 C 93.914062 43.996094 93.398438 44.1875 92.757812 44.1875 C 92.117188 44.1875 91.601562 43.996094 91.199219 43.613281 C 90.800781 43.234375 90.601562 42.667969 90.601562 41.910156 L 90.601562 38.15625 Z M 91.199219 38.15625 " fill-opacity="1" fill-rule="nonzero"/></g><g clip-path="url(#ee5680412f)"><path fill="#ffffff" d="M 97.992188 38.15625 C 98.644531 38.15625 99.207031 38.277344 99.679688 38.519531 C 100.152344 38.757812 100.511719 39.105469 100.757812 39.554688 C 101.003906 40.003906 101.128906 40.539062 101.128906 41.15625 C 101.128906 41.773438 101.003906 42.304688 100.757812 42.753906 C 100.511719 43.195312 100.152344 43.535156 99.679688 43.773438 C 99.207031 44.011719 98.644531 44.128906 97.992188 44.128906 L 96.234375 44.128906 L 96.234375 38.15625 Z M 97.992188 43.632812 C 98.816406 43.632812 99.445312 43.414062 99.878906 42.976562 C 100.308594 42.542969 100.527344 41.933594 100.527344 41.15625 C 100.527344 40.371094 100.308594 39.757812 99.878906 39.316406 C 99.445312 38.875 98.816406 38.652344 97.992188 38.652344 L 96.832031 38.652344 L 96.832031 43.632812 Z M 97.992188 43.632812 " fill-opacity="1" fill-rule="nonzero"/></g><g clip-path="url(#036115714b)"><path fill="#ffffff" d="M 102.222656 38.15625 L 102.824219 38.15625 L 102.824219 44.128906 L 102.222656 44.128906 Z M 102.222656 38.15625 " fill-opacity="1" fill-rule="nonzero"/></g><g clip-path="url(#6567dc3e07)"><path fill="#ffffff" d="M 106.832031 44.1875 C 106.28125 44.1875 105.78125 44.058594 105.335938 43.796875 C 104.890625 43.539062 104.539062 43.175781 104.28125 42.710938 C 104.023438 42.25 103.894531 41.722656 103.894531 41.136719 C 103.894531 40.554688 104.023438 40.027344 104.28125 39.5625 C 104.539062 39.101562 104.890625 38.738281 105.335938 38.480469 C 105.78125 38.21875 106.28125 38.089844 106.832031 38.089844 C 107.386719 38.089844 107.882812 38.21875 108.328125 38.480469 C 108.777344 38.738281 109.128906 39.101562 109.382812 39.5625 C 109.640625 40.027344 109.769531 40.554688 109.769531 41.136719 C 109.769531 41.722656 109.640625 42.25 109.382812 42.710938 C 109.128906 43.175781 108.777344 43.539062 108.328125 43.796875 C 107.882812 44.058594 107.386719 44.1875 106.832031 44.1875 Z M 106.832031 43.664062 C 107.277344 43.664062 107.671875 43.5625 108.015625 43.359375 C 108.367188 43.15625 108.644531 42.859375 108.847656 42.480469 C 109.054688 42.09375 109.160156 41.648438 109.160156 41.136719 C 109.160156 40.628906 109.054688 40.183594 108.847656 39.804688 C 108.644531 39.421875 108.367188 39.132812 108.015625 38.925781 C 107.671875 38.722656 107.277344 38.621094 106.832031 38.621094 C 106.390625 38.621094 105.996094 38.722656 105.648438 38.925781 C 105.296875 39.132812 105.015625 39.421875 104.816406 39.804688 C 104.613281 40.183594 104.511719 40.628906 104.511719 41.136719 C 104.511719 41.648438 104.613281 42.09375 104.816406 42.480469 C 105.015625 42.859375 105.296875 43.15625 105.648438 43.359375 C 105.996094 43.5625 106.390625 43.664062 106.832031 43.664062 Z M 106.832031 43.664062 " fill-opacity="1" fill-rule="nonzero"/></g></svg>