<svg width="154" height="50" viewBox="0 0 154 50" fill="none" xmlns="http://www.w3.org/2000/svg">
<path d="M153.395 0L121.441 49.895L61.3853 37.9202L0.392578 47.6891L16.8377 22.0588C17.3581 22.3739 17.9826 22.584 18.7112 22.6891L4.45182 45.063L61.4894 35.9244L120.505 47.6891L132.89 28.3613H132.995C134.035 28.3613 134.868 27.9412 135.284 27.6261L134.868 26.7857L134.139 26.2605L149.127 2.83613L73.9794 17.542C74.4998 16.5966 75.0202 15.7563 75.3325 15.2311L153.395 0ZM104.476 19.4328C105.413 19.4328 106.141 18.4874 106.141 17.542C106.141 16.7017 105.621 16.3866 104.996 16.3866C103.955 16.3866 103.227 17.437 103.227 18.2773C103.227 18.9076 103.643 19.4328 104.476 19.4328ZM22.2501 12.8151C22.3541 12.8151 22.5623 12.8151 22.6664 12.8151H22.7705L30.6808 0.630252L70.8569 16.1765C70.961 16.0714 70.961 15.9664 71.0651 15.8613C71.5855 14.916 72.0018 14.2857 72.0018 14.2857L75.0202 14.0756C72.8345 17.7521 68.6712 24.5798 68.3589 25.105C66.5895 28.1513 65.7568 29.6218 65.7568 30.4622C65.7568 30.7773 65.8609 30.9874 66.1732 30.9874C67.1099 30.9874 69.0875 29.5168 73.0427 24.4748C73.3549 24.0546 74.2917 22.6891 74.708 22.1639L77.5182 22.0588C75.957 24.4748 73.7712 27.7311 72.8345 29.4118C72.4182 30.042 72.21 30.4622 72.21 30.6723C72.21 30.9874 72.4182 31.0924 72.6263 31.0924C73.6672 31.0924 75.7488 29.4118 78.6631 25.2101C79.3917 24.1597 79.9121 23.3193 80.6407 22.2689L83.451 22.1639C82.6183 23.4244 81.0571 26.0504 80.8489 26.3655C79.4958 28.5714 78.7672 29.937 78.7672 30.5672C78.7672 30.8824 78.8713 31.0924 79.2876 31.0924C81.3693 31.0924 84.1796 27.3109 84.9081 25.3151C84.9081 23.9496 85.1163 22.7941 85.6367 22.1639C85.8449 21.8487 86.1571 21.5336 86.7816 21.5336C87.198 21.5336 87.5102 21.7437 87.5102 22.0588C87.5102 22.584 86.8857 24.0546 85.8449 25.8403C86.1571 26.5756 86.7816 26.9958 87.5102 27.2059C88.6551 25.105 91.2572 21.6387 94.692 21.6387C95.941 21.6387 96.4614 22.0588 96.4614 23.0042C96.4614 24.7899 93.7552 27.3109 90.0082 27.8361C89.696 28.4664 89.3837 29.2017 89.3837 29.937C89.3837 30.5672 89.696 31.0924 90.6327 31.0924C93.6511 31.0924 97.294 26.4706 99.2716 23.8445C99.3757 23.6345 100.208 22.584 100.417 22.2689L103.227 22.0588C100.833 25.8403 100.104 27.1008 100.104 27.1008C99.3757 28.3613 98.439 29.937 98.439 30.4622C98.439 30.7773 98.6471 30.9874 98.9594 30.9874C100.104 30.9874 102.186 29.0966 105.1 26.0504C106.349 24.7899 107.702 23.3193 108.639 22.2689C108.951 21.1134 109.576 20.5882 110.304 20.5882C110.929 20.5882 111.137 20.9034 111.137 21.4286C111.137 22.0588 110.617 22.479 110.096 22.584C110.096 22.6891 110.096 22.8992 110.096 23.1092C110.096 24.2647 110.2 25.105 110.2 26.3655C110.2 27.521 109.992 28.5714 109.368 29.6218C110.825 28.4664 113.739 25.6303 115.509 24.0546C117.278 22.3739 119.047 21.7437 120.401 21.7437C121.545 21.7437 122.17 22.1639 122.17 23.1092C122.17 25.4202 118.319 27.6261 115.717 27.9412C115.405 28.4664 115.092 29.4118 115.092 30.1471C115.092 30.7773 115.509 31.1975 116.133 31.1975C118.215 31.1975 120.296 28.9916 121.962 26.9958C124.564 23.7395 125.709 21.9538 127.686 21.9538C128.727 21.9538 129.248 22.479 129.248 23.2143C129.248 24.1597 128.831 25 127.895 26.6807C130.913 22.7941 132.37 21.9538 133.411 21.9538C134.14 21.9538 134.66 22.374 134.66 22.8992C133.619 23.2143 132.578 24.6849 132.578 25.7353C132.578 26.0504 132.682 26.2605 132.786 26.4706C132.891 26.5756 133.099 26.6807 133.411 26.6807C133.723 26.6807 134.035 26.5756 134.452 26.3655L134.66 26.8908C134.139 27.2059 133.619 27.3109 132.89 27.3109C131.537 27.3109 130.809 26.6807 130.809 25.6303C130.809 25 131.121 24.2647 131.537 23.6345C129.768 25.2101 126.125 29.937 124.876 32.0378L122.066 32.1429C122.482 31.5126 124.876 27.9412 126.541 25C127.062 24.0546 127.374 23.6345 127.374 23.2143C127.374 23.0042 127.27 22.8992 127.062 22.8992C126.125 22.8992 124.668 24.7899 122.69 27.3109C121.233 29.2017 118.631 32.3529 115.196 32.3529C113.427 32.3529 112.594 31.4076 112.594 30.1471C112.594 28.9916 113.011 27.9412 113.635 26.9958C112.802 27.7311 111.97 28.4664 111.137 29.2017C109.576 30.6723 107.494 32.3529 104.684 32.3529C103.227 32.3529 102.394 31.7227 102.394 30.9874C102.394 30.5672 102.706 30.2521 103.019 30.2521C103.955 30.2521 103.643 31.6176 104.892 31.6176C106.349 31.6176 107.494 30.2521 108.223 26.0504C108.327 25.5252 108.535 24.3697 108.743 23.6345C106.557 25.9454 104.996 27.521 104.372 28.2563C102.498 30.1471 100.312 32.2479 98.2308 32.2479C97.0859 32.2479 96.3573 31.6176 96.3573 30.6723C96.3573 30.042 96.6695 29.2017 97.3981 27.7311C95.7328 29.5168 93.1307 32.2479 89.9041 32.2479C88.0306 32.2479 87.198 31.3025 87.198 29.937C87.198 29.3067 87.4061 28.5714 87.7184 27.8361C86.9898 27.6261 86.3653 27.2059 85.949 26.5756C85.1163 27.9412 84.0755 29.3067 82.6183 30.5672C81.1611 31.9328 79.8081 32.3529 78.6631 32.3529C77.5182 32.3529 76.7897 31.8277 76.7897 30.7773C76.7897 30.042 77.206 29.2017 77.5182 28.4664C75.957 30.3571 73.9794 32.3529 71.7937 32.3529C70.8569 32.3529 70.0242 31.9328 70.0242 30.7773C70.0242 30.042 70.4406 29.3067 71.0651 28.1513C69.712 29.6218 67.5262 32.3529 65.0282 32.3529C63.8833 32.3529 63.2588 31.7227 63.2588 30.7773C63.2588 29.937 63.6752 29.0966 63.9874 28.4664C63.6752 28.8866 63.3629 29.2017 63.1548 29.5168C61.3853 31.5126 59.9282 32.3529 58.3669 32.3529C57.222 32.3529 56.4934 31.7227 56.4934 30.5672C56.4934 30.042 56.7016 29.3067 56.9098 28.7815C55.2444 30.5672 53.3709 32.3529 51.2893 32.3529C50.1444 32.3529 49.6239 31.7227 49.6239 30.8824C49.6239 30.3571 49.8321 29.7269 50.2484 28.8866L49.6239 29.5168C48.1668 30.9874 46.3974 32.2479 44.732 32.2479C43.6912 32.2479 42.9626 31.7227 42.9626 30.6723C42.9626 29.937 43.483 28.6765 44.8361 26.7857L44.0034 27.6261C39.8401 31.6176 35.6768 34.0336 31.2012 34.0336C27.8705 34.0336 26.8297 32.563 26.8297 30.7773C26.8297 30.3571 26.9338 29.937 26.9338 29.937L26.3093 30.6723C24.644 32.7731 23.395 33.9286 21.7296 33.9286C20.3766 33.9286 19.2316 33.2983 19.2316 32.0378C19.2316 31.3025 19.648 30.5672 20.1684 29.6218C21.3133 27.7311 24.4358 23.1092 26.7256 19.7479C25.2685 20.6933 23.1868 21.4286 20.4806 21.4286C16.6296 21.4286 14.7561 19.8529 14.7561 17.542C14.652 14.916 17.4622 12.9202 22.2501 12.8151ZM115.925 27.2059C118.111 26.8908 120.817 24.5798 120.817 22.8992C120.817 22.584 120.713 22.374 120.401 22.374C119.152 22.479 117.59 24.1597 115.925 27.2059ZM90.4245 27.2059C92.6103 26.8908 95.3165 24.6849 95.3165 22.8992C95.3165 22.584 95.1083 22.374 94.796 22.374C93.443 22.479 91.7776 24.7899 90.4245 27.2059ZM28.9114 25.2101C30.993 22.1639 33.0747 18.9076 34.4278 16.9118C33.8033 16.5966 33.1788 16.2815 32.6584 15.9664C31.9298 16.9118 23.2909 29.8319 22.6664 30.8824C22.146 31.7227 22.0419 32.1429 22.0419 32.3529C22.0419 32.563 22.146 32.7731 22.4582 32.7731C22.7705 32.7731 23.1868 32.563 23.7072 32.1429C24.9562 31.0924 26.6215 28.6765 28.9114 25.2101ZM33.0747 22.374L33.6992 21.3235C35.6768 21.3235 37.238 21.3235 38.2789 20.7983C40.7769 19.6429 42.0259 16.8067 42.0259 15.4412C42.0259 14.4958 41.6095 13.6555 40.3605 13.6555C38.487 13.6555 36.7176 15.5462 35.6768 16.9118C36.6135 17.437 37.3421 17.9622 37.7584 18.3824L37.4462 18.9076C36.8217 18.3824 36.0931 17.9622 35.3645 17.437C34.1155 19.0126 31.4094 23.3193 29.5359 26.0504C30.7849 25.2101 32.3461 25 33.387 25V25.7353C29.744 25.8403 27.5583 28.2563 27.5583 30.7773C27.5583 32.1429 28.2869 33.0882 30.2645 33.0882C34.8441 33.0882 37.8625 28.1513 37.8625 25C37.8625 23.5294 37.3421 22.2689 35.0523 22.2689H34.0115C33.5951 22.2689 33.2829 22.374 33.0747 22.374ZM66.1732 23.5294C66.1732 23.0042 65.7568 22.584 65.1323 22.584C63.9874 22.584 62.9466 23.3193 61.3853 25.2101C60.1363 26.8908 58.7833 29.3067 58.7833 30.3571C58.7833 30.6723 58.8873 30.9874 59.4078 30.9874C59.9282 30.9874 60.8649 30.5672 62.218 29.0966C63.467 27.7311 64.9242 25.8403 65.965 23.9496C66.1732 23.8445 66.1732 23.6345 66.1732 23.5294ZM25.0603 13.0252C25.4766 13.0252 25.997 13.1303 26.4134 13.2353C28.0787 13.5504 29.4318 13.9706 30.6808 14.3908C30.889 14.0756 31.0971 13.7605 31.3053 13.4454L34.636 13.3403C34.3237 13.7605 33.8033 14.6008 33.0747 15.4412C33.6992 15.7563 34.3237 16.0714 34.9482 16.3866C37.0299 13.7605 39.0074 12.5 41.5054 12.5C44.2116 12.5 45.2524 14.0756 45.2524 15.6513C45.2524 17.1218 44.4198 18.8025 43.3789 19.7479C42.0259 21.1134 40.1524 21.7437 38.6952 22.0588C39.5279 22.479 40.985 23.2143 40.985 25.6303C40.985 27.6261 39.8401 29.5168 38.5911 30.9874C41.0891 29.5168 44.6279 26.1555 46.1892 24.1597C46.5014 23.7395 47.23 22.7941 47.5423 22.2689L50.4566 22.0588C50.4566 22.0588 46.7096 27.7311 45.8769 29.2017C45.4606 30.042 45.2524 30.3571 45.2524 30.5672C45.2524 30.7773 45.3565 30.9874 45.6688 30.9874C46.8137 30.9874 48.9994 29.0966 50.4566 26.9958C51.1852 26.0504 53.6832 22.2689 53.6832 22.2689L56.7016 22.0588C54.3077 25.8403 53.475 27.1008 53.475 27.1008C52.6423 28.3613 52.0178 29.5168 51.9138 30.1471C51.8097 30.3571 51.8097 30.4622 51.8097 30.5672C51.8097 30.8824 51.9138 30.9874 52.226 30.9874C53.9954 30.9874 57.1179 26.8908 58.0547 25.6303C59.8241 23.3193 62.1139 21.7437 64.5078 21.7437C65.5487 21.7437 66.2772 22.1639 66.5895 22.8992C67.214 21.8487 68.3589 20.063 69.2957 18.3824C69.3997 18.1723 69.5038 18.0672 69.6079 17.9622L31.4094 3.04622L25.0603 13.0252ZM15.901 17.8571C15.901 18.5924 16.1091 19.2227 16.6296 19.7479C16.9418 20.063 17.3581 20.3782 17.8786 20.4832L21.6256 14.7059C22.0419 14.7059 22.5623 14.6008 23.0827 14.6008C23.395 14.6008 23.7072 14.6008 24.0195 14.6008L20.0643 20.7983C20.2725 20.7983 20.4806 20.7983 20.6888 20.7983C21.0011 20.7983 21.3133 20.7983 21.6256 20.7983C25.3725 20.4832 27.6624 18.4874 28.495 17.437C28.495 17.437 30.2645 14.916 30.3685 14.8109C28.5991 14.1807 26.1011 13.4454 23.0827 13.4454C18.5031 13.6555 15.901 15.4412 15.901 17.8571ZM126.958 48.8445C126.958 49.1597 126.854 49.4748 126.646 49.6849C126.437 49.895 126.125 50 125.813 50C125.501 50 125.188 49.895 124.98 49.6849C124.772 49.4748 124.668 49.1597 124.668 48.8445C124.668 48.5294 124.772 48.2143 124.98 48.0042C125.188 47.7941 125.501 47.6891 125.813 47.6891C126.125 47.6891 126.437 47.7941 126.646 48.0042C126.854 48.2143 126.958 48.4244 126.958 48.8445ZM126.75 48.8445C126.75 48.5294 126.646 48.3193 126.437 48.1092C126.229 47.8992 126.021 47.7941 125.709 47.7941C125.397 47.7941 125.188 47.8992 124.98 48.1092C124.772 48.3193 124.668 48.5294 124.668 48.8445C124.668 49.1597 124.772 49.3698 124.98 49.5798C125.188 49.7899 125.397 49.895 125.709 49.895C126.021 49.895 126.229 49.7899 126.437 49.5798C126.646 49.3698 126.75 49.0546 126.75 48.8445ZM126.333 49.4748H126.021L125.813 48.9496H125.501V49.4748H125.188V48.0042H125.813C126.021 48.0042 126.125 48.0042 126.229 48.1092C126.333 48.2143 126.333 48.3193 126.333 48.4244C126.333 48.6345 126.229 48.7395 126.021 48.8445L126.333 49.4748ZM125.501 48.7395H125.813C126.021 48.7395 126.125 48.6345 126.125 48.5294C126.125 48.4244 126.021 48.3193 125.917 48.3193H125.605V48.7395H125.501Z" fill="currentColor"/>
</svg>
