<svg width="1000" height="272" viewBox="0 0 1000 272" fill="none" xmlns="http://www.w3.org/2000/svg">
<path d="M111.2 0L85.1 80.2H0L68.7 129.8L42.9 210.4L111.2 160.8L179.8 210.4L153.7 129.8L222 80.2H137.3L111.2 0Z" fill="currentColor"/>
<path d="M460.799 73.1002C455.599 67.9002 449.999 64.1002 442.899 61.9002C436.199 59.3002 428.299 58.2002 419.799 58.2002C411.199 58.2002 403.399 59.7002 395.499 63.1002C387.699 66.5002 381.299 71.3002 376.099 76.5002L375.699 76.9002C373.099 79.9002 370.799 82.9002 368.999 86.2002C367.499 89.2002 365.999 91.8002 365.299 94.0002C364.599 92.5002 363.399 89.9002 361.899 87.3002C359.299 82.4002 356.999 78.7002 355.199 77.2002C349.999 71.2002 343.999 67.1002 336.199 63.8002C328.399 60.4002 320.199 58.9002 310.799 58.9002C304.799 58.9002 296.199 59.6002 286.899 64.1002C276.099 69.3002 267.099 77.5002 260.799 89.5002V62.7002H252.199V212.3H260.799V127.2C260.799 117.5 261.899 109.3 264.199 101.8C266.399 94.3002 269.799 88.7002 274.299 83.1002C277.999 77.9002 283.599 73.8002 289.999 71.2002C296.299 68.2002 303.099 66.7002 310.099 67.1002C318.699 67.5002 326.099 69.0002 332.899 72.0002C339.199 75.0002 344.499 79.5002 348.899 84.7002C352.599 89.9002 355.199 94.4002 356.699 99.6002C358.899 105.9 359.699 113.4 359.699 123.9V212H368.299V127.7C368.299 117.3 368.699 108.7 370.499 101.6C372.399 94.9002 374.999 89.7002 380.199 82.9002C384.699 76.9002 390.299 72.8002 398.099 69.8002C404.399 67.6002 411.499 66.1002 418.199 66.1002C425.699 66.1002 431.999 67.2002 437.999 69.5002C443.999 71.8002 448.399 75.1002 452.599 79.2002C457.799 84.4002 461.599 90.8002 463.799 99.0002C466.399 107.2 467.499 116.5 467.499 128.1V212H476.099L477.599 127.7C477.599 115.4 476.099 104.6 473.099 95.6002C470.499 86.6002 466.699 78.7002 460.799 73.1002Z" fill="currentColor"/>
<path d="M630.498 100.7C625.998 90.3001 617.398 79.8001 606.198 72.3001C593.098 63.3001 577.498 58.9001 561.098 58.9001C531.298 58.9001 512.998 72.3001 502.498 83.9001C489.798 98.1001 482.398 117.5 482.398 137.3C482.398 157.1 489.898 176.5 502.498 190.7C512.598 201.9 531.198 215.7 561.098 215.7C576.398 215.7 590.198 212 602.498 204.9C614.098 197.4 623.398 187.7 630.498 174.7V212.4H639.098V63.1001H630.498V100.7ZM625.698 109.3C627.198 113.4 628.698 117.5 629.398 121.6C630.498 126.1 630.898 130.9 630.898 135C631.298 139.9 630.898 144.3 630.198 148.4C629.498 153.3 628.298 157.4 626.798 161.1C621.898 174.9 613.398 186.8 601.798 194.7C590.598 202.9 576.398 207 561.898 207C540.298 207 522.398 199.2 509.298 185C498.098 172.3 490.998 154.8 490.998 136.5C490.998 116.7 498.498 99.2001 511.098 86.1001C524.198 73.4001 541.698 66.0001 561.098 66.0001C575.298 66.0001 589.098 70.1001 600.298 77.2001C611.898 85.8001 620.798 96.6001 625.698 109.3Z" fill="currentColor"/>
<path d="M672 85.4001C679.8 78.3001 687.7 73.8 695.5 70.5C703.3 67.5 711.9 65.6 722.4 65.6H723.1C735.8 65.6 748.8 69.3 759.7 75.7C772.4 83.9 782.1 95.1001 787.3 109.3L787.7 110H797.4L796.7 108.5C790.7 91.7001 779.5 77.9 764.6 69C752.3 61.5 737.4 57.8 722.8 57.8C701.2 57.8 681.4 66 666.8 80.6C652.2 95.2 644 115.3 644 136.9C644 157 651.8 176.4 664.5 190.6C679.1 206.6 699.6 215.2 724.2 215.2C740.2 215.2 755.9 210.3 768.6 201.4C781.3 192.5 791 180.1 796.6 165.2L797.3 163.7H787.6L787.2 164.4C783.5 175.2 775.6 185.7 765.2 193.1C753.3 202.4 738 206.9 722.3 206.9C713 206.9 704 205 695.4 201.7C686.8 198 679.7 193.1 673 187.1C666.3 180.4 661.4 172.9 657.7 164C654 155.4 652.1 145.7 652.1 136C652.1 126.3 654.3 116.2 657.7 107.3C660.8 98.9001 666 91.4001 672 85.4001ZM772.7 84.7C779.4 91 785 99.3 788.7 109C785 99.6 779.4 91.8 772.7 84.7Z" fill="currentColor"/>
<path d="M918.198 62.3H908.498L908.098 63C908.098 63.7 893.498 97.7 878.998 132L850.298 199.5L823.098 132C805.598 87.2 795.498 63.3 795.498 63L795.098 62.3H785.398L845.098 211.2L818.198 271.6H827.898L828.298 270.9C828.298 270.9 828.998 269 830.198 266C834.698 255.6 846.998 226.8 861.198 194.4C864.898 185.8 868.698 176.9 872.798 167.9L907.898 86.9001C913.898 73.1001 917.598 64.1 917.598 63.8L918.198 62.3Z" fill="currentColor"/>
<path d="M985.398 139.5C977.198 133.5 967.098 130.5 956.998 128.3L955.898 127.9C944.298 124.5 936.898 121.2 931.998 117.5C926.398 112.6 923.398 106.7 922.998 97.7C922.998 93.6 923.398 89.5 924.898 86.1C925.998 82.4 928.298 79.4 930.898 76.4C933.898 73 937.598 70.8 941.298 68.9C945.798 67 950.298 66.3 955.098 66.3H955.798C960.298 66.3 964.398 67 967.698 68.5C971.398 70 974.798 72.2 977.398 74.8C979.998 77.4 982.298 80.8 983.698 84.5C985.198 88.2 985.898 92.3 985.898 96.8V97.9H994.498V97C994.498 86.2 990.398 76.5 983.698 69.4C976.598 62.3 966.898 59 954.998 59C944.598 59 934.498 62.4 926.998 68.3C918.398 75.4 914.298 85.5 914.298 97.8C914.698 109.4 918.798 117.9 926.198 124.3C933.998 130.6 944.498 134 954.898 136.6C967.598 139.6 976.498 143.7 982.098 148.9C988.098 154.9 990.698 162 991.098 172V173.1C991.098 178 990.398 182.8 988.498 186.5C986.598 190.6 984.398 194.3 980.998 197.3C977.998 200.7 973.898 203.3 969.798 205.1C965.298 207 960.498 207.7 955.598 207.7C944.798 207.7 935.098 204.3 928.398 198C921.698 191.3 918.298 182.3 917.998 171.5V170.4L909.398 170.8V172.7C909.398 173.1 909.398 173.4 909.398 173.8C909.398 179 910.498 183.9 912.398 188.7C914.298 193.6 916.898 198 920.598 201.4C925.098 205.9 930.298 209.6 936.298 211.8C942.298 214 948.598 215.5 955.698 215.5C961.998 215.5 967.998 214 973.598 211.8C979.198 209.2 983.998 205.8 988.198 201.7C991.898 197.6 995.298 192.7 997.198 187.5C999.398 182.3 1000.2 176.7 999.798 170.7C999.198 156.3 994.298 146.3 985.398 139.5Z" fill="currentColor"/>
<path d="M913.298 51.1001L923.398 44.0001L933.498 51.1001L929.398 39.2001L939.798 31.7001H927.498L923.398 20.1001L919.698 31.7001H907.398L917.098 39.2001L913.298 51.1001Z" fill="currentColor"/>
</svg>
