<svg xmlns="http://www.w3.org/2000/svg" viewBox="0 0 608 125"><path fill="currentColor" d="M207.202 20.722h5.402v15.669h6.754l6.214-24.854V1.543h-18.37v19.179zm-82.124 21.342c4.052 0 5.942 3.242 5.942 28.637h-13.236c.54-25.395 2.701-28.637 7.294-28.637zm24.583 51.059h-8.645v2.972c0 12.427-3.513 18.37-10.807 18.37-8.374 0-12.426-5.404-12.426-33.77v-2.16h32.957c0-33.229-7.294-46.196-25.663-46.196-18.37 0-30.257 18.91-30.257 48.088 0 28.905 11.346 44.573 30.797 44.573 16.749 0 24.043-9.455 24.043-29.445v-2.432h.001zM379.08 42.064c4.052 0 5.943 3.242 5.943 28.637h-12.492c.54-25.395 1.956-28.637 6.549-28.637zm24.583 51.059h-8.645v2.972c0 12.427-3.512 18.37-10.806 18.37-8.375 0-11.682-5.404-11.682-33.77v-2.16h32.213c0-33.229-7.294-46.196-25.664-46.196s-30.256 18.91-30.256 48.087c0 28.906 11.347 44.574 30.797 44.574 16.749 0 24.043-9.455 24.043-29.445v-2.432zM523.067 125c12.157 0 17.29-7.564 17.29-18.371V93.123h-8.104v13.506c0 5.675-.811 7.564-3.512 7.564-2.432 0-3.242-1.621-3.242-6.754V42.604h14.858V34.23h-14.588V9.106h-8.375L504.967 35.31h-7.294v7.024h6.483v59.972c.001 15.67 2.703 22.694 18.911 22.694zm-62.674-68.618c0-16.749-7.563-23.772-23.772-23.772s-27.285 11.616-27.285 25.394v5.403h18.641V50.709c0-7.294 1.621-9.995 5.673-9.995 4.053 0 5.673 2.431 5.673 9.995v14.859c-24.583 8.373-32.147 14.588-32.147 35.389 0 16.209 6.483 24.043 17.56 24.043 9.455 0 13.778-6.484 16.209-10.535v8.914h24.043v-7.295h-4.593V56.382h-.002zm140.746 59.702V52.059c0-13.237-5.943-19.45-16.479-19.45-12.697 0-17.83 9.455-17.83 9.455V.462l-26.744 2.972v7.023h6.213v105.627h-4.322v7.295h29.717v-7.295h-4.322v-55.92c0-9.725 2.701-13.777 7.563-13.777 3.512 0 4.862 2.161 4.862 7.564v62.133h-4.862v7.295h32.147v-7.295h-5.943zM439.322 73.131v27.555c0 8.105-1.62 11.348-6.213 11.348-3.511 0-5.133-2.973-5.133-12.697 0-16.48 1.351-20.532 11.346-26.206zm-94.616 42.953V8.837h6.214V1.812h-37.011v7.024h7.564v50.247h-23.772V8.837h7.834V1.812h-37.551v7.024h6.484v107.247h-6.484v7.295h37.551v-7.295h-7.834V67.459h23.772v48.625h-7.564v7.295h37.011v-7.295h-6.214zm148.645 0V.462l-27.825 2.972v7.023h6.754v105.627h-4.322v7.295h31.877v-7.295h-6.484zM266.634 99.336c0-28.635-30.796-30.527-30.796-49.438 0-6.483 3.241-9.725 8.374-9.725 7.834 0 11.887 7.834 12.427 24.312h7.023V37.471s-7.834-4.862-19.721-4.862c-14.317 0-25.934 8.104-25.934 24.583 0 27.015 29.986 30.798 29.986 49.167 0 7.295-3.512 10.807-9.186 10.807-8.645 0-12.967-7.564-13.507-26.205h-7.023v29.177S226.922 125 239.618 125c15.67 0 27.016-8.916 27.016-25.664zM90.769 116.084V8.837h5.673V1.812H64.835L49.167 70.16 32.418 1.812H0v7.024h6.754v107.247H0v7.295h24.853v-7.295h-7.834v-75.37l19.721 82.665h11.346l19.45-83.205v75.91h-7.294v7.295h36.2v-7.295h-5.673v.001zm119.674 0V52.059c0-13.237-5.942-19.45-16.208-19.45-12.697 0-17.83 9.455-17.83 9.455v-9.455l-27.015 2.972v7.294h6.214v73.209h-6.483v7.295h32.146v-7.295h-4.322v-55.92c0-9.725 2.702-13.777 7.564-13.777 3.512 0 4.862 2.161 4.862 7.564v62.133h-4.862v7.295h30.256v-7.295h-4.322z"/>&gt;</svg>