<svg width="94" height="50" viewBox="0 0 94 50" fill="none" xmlns="http://www.w3.org/2000/svg">
<path d="M73.9018 1.10773L67.1751 29.0647L60.4293 1.10773H40.9454V11.4313C38.5779 2.39727 29.8926 0.131471 22.1318 0.00275999C12.6692 -0.123522 2.18442 4.06565 1.82075 16.8493H14.9082C14.9082 12.9904 18.3667 10.7805 21.6326 10.8363C25.6426 10.8023 27.4871 12.5509 27.5798 15.2732C27.4419 17.6362 26.0775 19.2803 21.6659 19.2803H17.2638V28.5572H21.2595C23.5295 28.5572 26.6884 29.82 26.812 33.1228C26.9641 37.0594 24.2853 38.7885 20.9885 38.8225C15.1032 38.5991 13.5843 33.98 13.5843 30.007H0C0.0570469 32.6832 -0.0285235 50.1272 21.2618 49.9985C31.4613 50.0932 38.8846 45.7122 40.9787 39.6725V48.9299H54.0804V18.7679L61.3254 48.9299H73.0319L80.303 18.8019V48.9567H93.6709V1.10773H73.9018ZM40.9882 28.9992C39.3195 25.473 36.9711 23.9309 35.6495 23.4427C38.4234 22.1823 39.8758 20.4727 40.9882 17.0655V28.9992Z" fill="currentColor"/>
</svg>
