<svg width="220" height="40" viewBox="0 0 220 40" fill="none" xmlns="http://www.w3.org/2000/svg">
<path d="M0.394531 39.0476V0H17.0519C24.151 0 27.8019 4.74509 27.8019 9.94084C27.8019 14.792 24.8863 18.1321 21.3621 18.9008C25.3933 19.5371 28.5372 23.5929 28.5372 28.4441C28.5372 34.3555 24.8356 39.0476 17.6858 39.0476H0.394531ZM19.6887 11.4253C19.6887 9.01303 18.0154 7.31646 15.3279 7.31646H8.35561V15.5077H15.3279C18.0154 15.5077 19.6887 13.9437 19.6887 11.4253ZM20.424 27.2777C20.424 24.8123 18.7506 22.8242 15.6575 22.8242H8.35561V31.7312H15.6828C18.6239 31.7312 20.424 30.0876 20.424 27.2777ZM31.3515 27.1755V10.4762H38.642V26.9406C38.642 30.2544 40.6326 32.6549 44.5106 32.6549C48.3368 32.6549 50.3533 30.2544 50.3533 26.9406V10.4762H57.618V27.1494C57.618 34.1422 53.4556 39.0476 44.5364 39.0476C35.6172 39.0476 31.3515 34.09 31.3515 27.1755Z" fill="currentColor"/>
<path d="M59.4941 39.0476V33.4248L71.9135 17.0362H59.4941V10.4762H81.7756V15.8581L69.1246 32.4876H82.0083V39.0476H59.4941Z" fill="currentColor"/>
<path d="M84.8225 39.0476V33.4248L97.2419 17.0362H84.8225V10.4762H107.104V15.8581L94.453 32.4876H107.337V39.0476H84.8225Z" fill="currentColor"/>
<path d="M109.213 39.0476V0H135.479V7.31619H117.283V15.5076H130.981V22.8238H117.283V39.0476H109.213Z" fill="currentColor"/>
<path d="M133.603 25.2117C133.603 17.0663 139.563 10.4762 147.908 10.4762C156.2 10.4762 161.746 16.7764 161.746 25.8971V27.6369H141.196C141.714 31.0638 144.461 33.9371 149.152 33.9371C151.51 33.9371 154.697 32.9354 156.485 31.1956L159.75 36.0986C157.004 38.6556 152.65 40 148.374 40C139.952 40 133.603 34.227 133.603 25.2117ZM147.908 16.5391C143.399 16.5391 141.429 19.7287 141.144 22.523H154.775C154.542 19.8342 152.702 16.5391 147.908 16.5391ZM162.684 25.2117C162.684 17.0663 168.644 10.4762 176.988 10.4762C185.281 10.4762 190.827 16.7764 190.827 25.8971V27.6369H170.277C170.795 31.0638 173.542 33.9371 178.232 33.9371C180.591 33.9371 183.778 32.9354 185.566 31.1956L188.831 36.0986C186.084 38.6556 181.731 40 177.455 40C169.033 40 162.684 34.227 162.684 25.2117ZM176.988 15.5867C172.479 15.5867 170.51 18.7764 170.225 21.5706H183.856C183.622 18.8818 181.783 15.5867 176.988 15.5867ZM193.641 39.0476V11.4286H204.824C213.588 11.4286 219.907 16.6378 219.907 25.2252C219.907 33.7868 213.614 39.0476 204.876 39.0476H193.641ZM212.808 25.2252C212.808 20.9444 210.207 17.3856 205.11 17.3856H200.585V33.0906H205.11C209.973 33.0906 212.808 29.3255 212.808 25.2252Z" fill="currentColor"/>
</svg>
