<svg width="225" height="45" viewBox="0 0 225 45" fill="none" xmlns="http://www.w3.org/2000/svg">
<path d="M92.2506 43.288C91.5772 43.439 90.91 43.6153 90.3436 44.0244C90.1611 44.1565 89.9597 44.1754 89.7583 44.2132C88.9904 44.3516 88.2604 44.5908 87.5303 44.8551C87.1589 44.9873 87.4233 44.5782 87.2659 44.5153C87.1023 44.446 86.9575 44.5467 86.8757 44.6348C86.5422 44.981 86.1268 44.9244 85.7177 44.9369C85.4974 44.9432 85.3149 44.9055 85.1701 44.7167C84.9498 44.4334 84.6352 44.3579 84.289 44.339C83.7477 44.3139 83.6156 44.1502 83.4393 43.6467C83.2065 42.9796 83.1687 42.2747 83.0051 41.595C82.9295 41.2866 83.0932 40.9782 83.2065 40.695C83.4268 40.1537 83.7351 39.6943 84.3016 39.3984C84.6981 39.1908 85.0568 38.9075 85.4785 38.7565C85.4345 38.5551 85.2645 38.5299 85.1638 38.4229C84.9184 38.1523 84.8051 37.9131 84.8743 37.4851C85.0065 36.6166 85.2142 35.7607 85.3526 34.8984C85.3652 34.8166 85.3589 34.7348 85.4093 34.6655C85.9505 33.9418 86.0135 33.0418 86.3408 32.2362C86.7876 31.1285 87.1967 30.0082 87.7065 28.9194C88.6632 26.8802 89.6009 24.8284 90.6394 22.827C91.1869 21.7697 91.7282 20.7186 92.238 19.6424C92.6723 18.7172 93.0499 17.7668 93.4464 16.8228C93.7485 16.0927 94.0884 15.3752 94.4219 14.664C94.831 13.8018 95.2024 12.9207 95.5485 12.0081C95.2086 11.9137 94.9191 11.8004 94.617 11.7563C93.5471 11.5927 92.8233 10.9067 92.1939 10.1262C91.9359 9.80524 91.6086 9.52833 91.4135 9.15699C91.124 8.60944 90.7778 8.09335 90.6142 7.49544C90.4883 7.04229 90.5764 6.67096 90.866 6.26816C91.4702 5.44998 92.2254 4.93389 93.2513 4.85207C93.6667 4.8206 93.9688 4.53109 94.3275 4.37375C94.8436 4.15347 95.3849 4.015 95.9324 3.90801C96.2597 3.84507 96.587 3.75066 96.8639 3.56185C97.2352 3.3164 97.6506 3.20311 98.0723 3.08982C98.9345 2.86954 99.8094 2.66814 100.665 2.42269C101.037 2.31569 101.427 2.24016 101.742 1.94436C101.874 1.81848 102.119 1.79331 102.321 1.74296C104.177 1.23946 106.065 0.880715 107.96 0.578615C108.816 0.440153 109.697 0.402387 110.553 0.276512C112.365 0.00588105 114.178 0.0751184 115.991 0.0625309C116.991 0.0562372 117.973 0.245045 118.942 0.459032C119.71 0.628964 120.484 0.792602 121.177 1.20799C122.077 1.75555 122.769 2.46044 123.128 3.48003C123.203 3.68772 123.21 3.88284 123.216 4.09053C123.222 5.10382 123.109 6.10453 123.021 7.11153C122.97 7.65908 122.983 8.21293 122.851 8.7479C122.675 9.47798 122.303 10.0885 121.743 10.5983C121.145 11.1458 120.478 11.5612 119.779 11.9766C119.119 12.3668 118.533 12.9269 118.074 13.5815C117.998 13.6885 117.948 13.7955 117.828 13.8521C116.796 14.3556 115.928 15.1486 114.858 15.5766C114.43 15.7465 114.178 16.1305 113.87 16.4326C113.605 16.6906 113.335 16.9046 112.938 16.8668C112.737 16.848 112.554 16.9298 112.416 17.0493C112.063 17.3577 111.654 17.534 111.214 17.6473C110.817 17.748 110.622 18.0941 110.383 18.371C110.213 18.4906 110.005 18.4969 109.798 18.5473C109.936 18.8053 110.181 18.7927 110.402 18.8368C111.17 19.2144 111.944 19.5794 112.712 19.9634C113.989 20.599 115.179 21.3732 116.129 22.4494C117.086 23.5319 117.835 24.7529 118.137 26.1816C118.269 26.8047 118.307 27.4529 118.426 28.0823C118.439 28.1389 118.445 28.2019 118.584 28.2019C118.772 27.7739 118.98 27.3333 119.156 26.8802C119.817 25.206 120.723 23.6515 121.485 22.034C122.083 20.769 122.832 19.6046 123.518 18.3962C124.204 17.1878 124.965 16.0172 125.689 14.8214C126.413 13.6256 127.124 12.4297 127.829 11.2213C128.175 10.6297 128.503 10.0255 128.842 9.42133C128.861 9.38357 128.886 9.3458 128.899 9.30804C129.151 8.5465 129.554 7.89824 130.082 7.28775C130.567 6.7276 131.511 6.39404 132.147 7.01712C132.474 7.3381 132.833 7.62132 133.084 8.02412C133.361 8.46468 133.569 8.51503 134.091 8.40804C136.024 8.01783 137.943 7.58985 139.882 7.26257C141.291 7.02341 142.701 6.78425 144.124 6.6269C145.59 6.46327 147.057 6.28704 148.536 6.28075C148.901 6.28075 149.24 6.38145 149.549 6.55138C149.857 6.72131 149.908 6.87236 149.712 7.19334C149.543 7.46397 149.738 7.79754 149.448 8.06188C149.316 8.18146 149.31 8.45839 149.045 8.50874C148.97 8.52132 148.913 8.61573 148.913 8.70384C148.926 9.20105 148.668 9.61014 148.523 10.057C148.422 10.3717 148.24 10.6297 147.919 10.806C147.277 11.1584 146.654 11.5864 145.924 11.643C145.03 11.7123 144.193 12.0584 143.287 12.071C142.613 12.0773 141.946 12.3165 141.273 12.4297C140.278 12.5997 139.296 12.8451 138.315 13.0843C137.163 13.3675 136.024 13.7074 134.897 14.0787C134.582 14.1794 134.261 14.2675 133.934 14.3116C133.519 14.3682 133.273 14.62 133.047 14.9409C132.663 15.4822 132.468 16.1305 132.065 16.6654C131.826 16.9864 131.586 17.2948 131.297 17.578C130.133 18.7109 129.258 20.0515 128.559 21.5116C128.515 21.606 128.484 21.7004 128.414 21.8641C129.113 21.7885 129.755 21.713 130.397 21.6438C131.039 21.5746 131.7 21.5997 132.291 21.2976C132.203 21.0396 132.033 21.0648 131.907 21.0018C131.385 20.7249 131.328 20.0641 131.8 19.7179C132.002 19.5731 132.235 19.4536 132.468 19.3843C133.695 19.0256 134.922 18.6731 136.2 18.4969C137.182 18.3584 138.17 18.2137 139.152 18.0689C139.642 17.9934 140.146 18.006 140.643 17.9431C141.033 17.8927 141.436 17.9557 141.77 17.6598C141.883 17.5591 142.04 17.578 142.191 17.6347C142.739 17.8487 143.318 17.9053 143.903 17.9368C144.287 17.9557 144.633 18.1193 144.961 18.3018C145.156 18.4088 145.445 19.2648 145.395 19.4913C145.357 19.6613 145.244 19.7368 145.08 19.7368C144.545 19.7431 144.004 19.7179 143.469 19.7557C143.016 19.7871 142.569 19.8815 142.11 19.8627C141.977 19.8564 141.858 19.9382 141.839 20.0766C141.801 20.3725 141.6 20.4039 141.354 20.4669C140.429 20.6997 139.485 20.7878 138.541 20.9074C137.887 20.9892 137.578 21.0585 136.968 21.4046C137.232 21.7697 137.698 21.8767 137.987 22.2039C138.296 22.5564 138.289 22.8774 137.918 23.1606C137.654 23.362 137.37 23.5508 137.056 23.6578C135.35 24.2431 133.626 24.7466 131.845 25.0172C130.473 25.2312 129.189 25.7284 127.911 26.2508C127.357 26.4774 126.778 26.6536 126.199 26.8047C125.891 26.8865 125.683 27.0312 125.519 27.2956C125.085 27.9942 124.852 28.7746 124.531 29.5173C124.242 30.1844 124.047 30.8893 123.77 31.5627C123.644 31.8648 123.839 32.0725 123.858 32.318C124.682 32.4627 125.419 32.1543 126.117 31.8837C128.414 31.0089 130.743 30.2348 133.072 29.4606C134.293 29.0515 135.514 28.6236 136.741 28.2396C137.572 27.9816 138.415 27.7047 139.271 27.5788C139.926 27.4844 140.568 27.2641 141.235 27.3019C141.474 27.3145 141.631 27.1949 141.77 27.0312C142.078 26.6662 142.462 26.5718 142.934 26.5466C143.973 26.49 144.98 26.2445 145.955 25.8606C146.031 25.8291 146.106 25.7662 146.182 25.7599C147.107 25.7095 147.497 25.0298 147.931 24.3501C148.661 23.2109 149.454 22.1158 150.197 20.9892C151.5 19.0193 152.897 17.1123 154.307 15.2116C155.547 13.5437 156.755 11.8633 157.97 10.1766C158.121 9.96889 158.285 9.78637 158.467 9.61014C159.078 9.00594 159.606 8.35139 159.965 7.55838C160.072 7.32551 160.28 7.17446 160.513 7.06117C160.777 6.9353 161.066 6.8346 161.293 6.65208C161.752 6.28075 162.256 6.19264 162.835 6.11082C163.452 6.02271 164.056 6.11711 164.666 6.05418C165.138 6.00383 165.648 6.12341 166.133 6.26187C166.309 6.31222 166.435 6.41292 166.517 6.55767C166.699 6.90383 166.951 7.04229 167.335 6.89754C167.429 6.85978 167.543 6.87236 167.643 6.87236C168.575 6.84089 169.078 7.24369 169.185 8.17516C169.324 9.37098 169.519 10.5731 169.418 11.7815C169.286 13.4304 169.343 15.0857 169.299 16.7347C169.28 17.3892 169.166 18.0501 169.022 18.6983C168.927 19.12 168.984 19.5291 168.952 19.9445C168.934 20.1773 169.085 20.2403 169.273 20.2088C170.343 20.0263 171.426 19.9571 172.508 19.9696C172.779 19.9759 172.924 19.7997 173.037 19.592C173.49 18.7801 174.201 18.1256 174.516 17.2256C174.535 17.1689 174.592 17.1249 174.636 17.0808C175.441 16.2312 176.247 15.3815 177.059 14.5381C177.625 13.9528 178.179 13.3612 178.783 12.82C179.601 12.0836 180.432 11.3472 181.389 10.7808C181.678 10.6108 181.874 10.3276 182.138 10.1136C182.975 9.4528 183.957 8.99335 184.781 8.33251C185.329 7.89824 185.92 7.58985 186.518 7.26257C187.123 6.9353 187.62 6.44439 188.249 6.14858C188.746 5.90942 189.244 5.75837 189.81 5.77725C190.767 5.80872 191.736 5.70802 192.661 6.029C193.272 6.23669 193.97 6.22411 194.474 6.71502C194.499 6.74019 194.549 6.74649 194.593 6.74649C195.455 6.85977 196.135 7.35698 196.746 7.89195C197.123 8.21922 197.457 8.60314 197.438 9.27657C197.4 10.6297 196.815 11.8067 196.507 13.0654C196.469 13.2102 196.431 13.3172 196.488 13.4808C196.607 13.8395 196.67 14.1857 196.274 14.4878C196.085 14.6326 196.141 14.9661 196.223 15.199C196.4 15.7403 196.274 16.206 195.953 16.6403C195.927 16.6717 195.89 16.7032 195.877 16.741C195.449 17.7668 194.492 17.9305 193.574 18.1319C193.353 18.1822 193.114 18.0941 192.9 18.2326C192.869 18.2515 192.812 18.264 192.781 18.2515C192.044 17.8738 191.056 17.8801 190.653 16.9738C190.521 16.678 190.496 16.3382 190.446 16.0109C190.402 15.7277 190.458 15.457 190.32 15.1612C190.238 14.9787 190.408 14.664 190.496 14.4186C190.672 13.9528 190.874 13.4934 191.062 13.0276C191.106 12.9207 191.213 12.8011 191.1 12.6878C190.993 12.5871 190.874 12.6752 190.748 12.7067C189.388 13.0402 188.268 13.8332 187.11 14.5633C186.071 15.2179 185.14 16.0109 184.127 16.6969C183.233 17.3011 182.302 17.8612 181.439 18.5032C180.841 18.9501 180.212 19.3717 179.702 19.9319C179.589 20.0515 179.438 20.1648 179.539 20.3599C179.614 20.5109 179.765 20.5172 179.91 20.5424C180.867 20.7375 181.811 20.5172 182.755 20.4543C183.485 20.4102 184.202 20.3095 184.92 20.1899C185.795 20.0452 186.688 20.1899 187.538 20.0452C188.513 19.8752 189.451 20.0766 190.402 20.0955C191.547 20.1207 192.592 20.5864 193.567 21.1718C193.838 21.3354 194.102 21.6249 194.216 21.9144C194.537 22.7452 195.103 23.4186 195.55 24.1676C195.764 24.5326 195.858 24.8914 195.676 25.2753C195.437 25.7788 195.405 26.3326 195.374 26.855C195.298 27.9501 194.826 28.7431 193.989 29.4543C192.969 30.3229 191.805 30.8767 190.59 31.3613C190.049 31.5753 189.495 31.8019 189.004 32.0725C188.52 32.3369 188.029 32.6264 187.525 32.8592C186.789 33.1991 186.116 33.6082 185.455 34.0676C185.247 34.2124 185.115 34.5963 184.743 34.4956C184.423 34.4075 184.221 34.7348 183.919 34.7348C183.674 34.7348 183.516 34.9425 183.321 35.0558C183.233 35.1061 183.139 35.1942 183.176 35.3075C183.353 35.7607 182.988 35.8173 182.723 35.8677C182.484 35.9117 182.245 35.9621 181.968 35.9243C181.609 35.8739 181.169 35.7858 180.81 35.9935C180.627 36.0942 180.294 36.0753 180.369 36.4593C180.382 36.5285 180.174 36.6795 180.048 36.7173C179.727 36.8117 179.425 36.9502 179.098 37.0131C178.752 37.0761 178.33 37.0194 178.129 37.4411C178.122 37.4537 178.091 37.46 178.072 37.4663C177.273 37.6047 176.681 38.1586 175.983 38.4921C175.863 38.5488 175.787 38.6369 175.699 38.725C175.328 39.1089 174.799 38.9956 174.353 39.1278C174.315 39.1404 174.246 39.0775 174.208 39.0334C173.962 38.788 173.685 38.6432 173.32 38.681C172.955 38.7187 172.842 38.4166 172.811 38.1586C172.773 37.9068 172.685 37.8313 172.458 37.8502C172.206 37.8691 172.03 37.7998 171.898 37.5544C171.816 37.4096 171.659 37.2837 171.489 37.1893C171.029 36.9187 170.803 36.4215 170.639 35.9809C170.469 35.5278 170.708 34.9739 171.149 34.7411C171.854 34.376 172.376 33.7404 173.138 33.476C174.069 33.1488 174.881 32.5886 175.781 32.1858C176.536 31.8522 177.197 31.3173 177.908 30.883C179.419 29.9578 180.917 29.0138 182.459 28.1389C182.874 27.9061 183.183 27.5033 183.636 27.3207C184.687 26.9054 185.612 26.2445 186.588 25.697C186.839 25.5585 187.204 25.483 187.23 25.0802C187.016 25.0047 186.795 24.948 186.594 24.8536C186.348 24.734 186.109 24.7466 185.87 24.8284C185.599 24.9228 185.335 25.055 185.058 24.841C184.983 24.7844 184.895 24.8284 184.825 24.8599C184.234 25.1683 183.567 25.1116 182.937 25.2627C182.503 25.3697 182.069 25.4326 181.597 25.4012C181.118 25.3634 180.621 25.5522 180.13 25.6466C180.048 25.6592 179.96 25.7221 179.891 25.7033C179.312 25.5963 178.752 25.7473 178.185 25.7788C177.525 25.8165 176.908 25.9739 176.304 26.1375C175.41 26.383 174.667 26.1375 173.969 25.6592C173.729 25.4893 173.566 25.1872 173.415 24.9165C173.037 24.262 172.578 23.6452 172.408 22.8899C172.357 22.676 172.238 22.6193 172.062 22.613C171.394 22.5941 170.708 22.5438 170.155 23.0284C169.897 23.255 169.55 23.1983 169.273 23.4438C168.745 23.9095 168.713 24.4886 168.77 25.0739C168.801 25.3823 168.858 25.6466 168.613 25.8732C168.449 26.0242 168.474 26.213 168.474 26.4019C168.474 26.8424 168.43 27.2893 168.487 27.7235C168.581 28.4473 168.298 29.1145 168.222 29.8131C168.21 29.9452 168.09 30.0208 167.977 30.0837C167.782 29.8697 167.725 29.6117 167.744 29.3347C167.776 28.8753 167.713 28.4221 167.631 27.969C167.612 27.8683 167.618 27.7235 167.492 27.755C167.373 27.7802 167.14 27.7739 167.171 27.9753C167.228 28.3844 167.083 28.7809 167.121 29.1963C167.19 30.0082 167.152 30.8327 167.152 31.6508C167.152 31.9026 166.831 32.0914 166.945 32.3432C167.033 32.5508 166.989 32.7837 167.108 33.0229C167.373 32.8907 167.373 32.532 167.719 32.5068C167.738 32.9159 167.99 33.2872 167.801 33.7404C167.744 33.8788 167.864 34.0928 167.889 34.2753C167.977 34.8355 167.738 35.339 167.625 35.8551C167.555 36.1635 167.524 36.4656 167.524 36.7802C167.524 37.0446 167.461 37.3278 167.228 37.4285C166.756 37.6362 166.964 38.2656 166.523 38.4607C166.787 38.7628 166.567 39.0838 166.561 39.3984C166.561 39.6061 166.485 39.5306 166.341 39.518C166.208 39.5054 166.032 39.6313 165.938 39.7446C165.661 40.0719 165.346 40.0089 165.025 39.8705C164.566 39.6754 164.327 39.3166 164.283 38.8194C164.264 38.5928 164.245 38.36 164.245 38.1334C164.238 37.8061 164.371 37.4663 164.106 37.1768C164.131 36.2642 163.867 35.3705 163.917 34.4579C163.955 33.7718 163.76 33.111 163.779 32.425C163.829 30.5054 163.779 28.5795 163.817 26.6599C163.829 26.0809 163.552 25.5396 163.666 24.9543C163.703 24.7781 163.534 24.7844 163.408 24.7781C163.03 24.7655 162.671 24.8977 162.306 24.9669C161.343 25.1431 160.418 25.4515 159.474 25.7033C159.31 25.7473 159.122 25.8795 158.989 25.6151C158.927 25.483 158.801 25.5774 158.725 25.6277C157.907 26.0998 156.944 26.1501 156.082 26.5151C155.767 26.6473 155.396 26.641 155.119 26.8928C155.081 26.9305 155.006 26.9872 154.961 26.9054C154.861 26.704 154.735 26.7228 154.559 26.811C154.351 26.9179 154.156 27.0061 154.049 27.2452C153.709 27.9942 153.143 28.6173 152.834 29.3914C152.639 29.8886 152.35 30.348 151.89 30.6879C151.752 30.7886 151.657 30.9963 151.613 31.1662C151.525 31.5376 151.361 31.8271 151.04 32.0473C150.826 32.1984 150.707 32.3872 150.682 32.6956C150.631 33.2809 150.191 33.69 149.832 34.1243C149.624 34.376 149.366 34.5649 149.373 34.9676C149.379 35.3264 149.001 35.553 148.812 35.8488C148.548 36.2642 148.309 36.7173 147.837 36.9628C147.642 37.0635 147.573 37.2837 147.485 37.4726C147.365 37.7306 147.164 37.8565 146.887 37.7872C146.641 37.7306 146.503 37.8628 146.352 38.0138C146.106 38.2656 145.848 38.511 145.445 38.4733C145.389 38.467 145.288 38.4796 145.269 38.5173C145.03 39.0082 144.665 38.7502 144.306 38.725C143.62 38.6747 142.922 38.7061 142.229 38.6998C141.87 38.6998 141.518 38.7124 141.159 38.6935C140.782 38.6747 140.662 38.4733 140.694 38.0893C140.788 36.9376 141.197 35.874 141.663 34.8355C141.952 34.1935 142.349 33.6019 142.695 32.9851C143.129 32.2047 143.576 31.4369 143.979 30.6375C144.212 30.1781 144.533 29.769 144.816 29.2592C144.25 29.1145 143.784 29.3977 143.299 29.341C142.777 29.2781 142.475 29.7564 142.072 30.0082C142.097 30.0963 142.116 30.2096 142.147 30.3166C142.191 30.4676 142.399 30.6313 142.28 30.7634C142.154 30.9019 141.933 31.0152 141.738 31.0341C140.813 31.1285 140.001 31.5879 139.12 31.8145C138.793 31.8963 138.749 32.3117 138.396 32.3306C138.107 32.3494 137.811 32.2802 137.522 32.3809C137.389 32.425 137.257 32.4816 137.087 32.5446C137.219 32.8215 137.534 32.576 137.698 32.8089C137.131 33.1173 136.596 33.432 135.961 33.5264C135.306 33.6271 134.721 33.9606 134.079 34.1054C133.544 34.7222 132.776 34.7159 132.065 34.8858C131.706 34.9676 131.404 35.2131 131.077 35.3767C130.259 35.7858 129.371 36.0313 128.572 36.497C127.804 36.9502 126.973 37.2963 126.105 37.5292C125.192 37.7747 124.349 38.1712 123.493 38.5614C122.549 38.9894 121.542 39.1215 120.56 38.8068C119.603 38.5047 118.659 38.1523 117.696 37.8628C117.419 37.781 117.168 37.5921 116.985 37.3656C116.664 36.9691 116.494 36.4781 116.123 36.1005C115.865 35.8362 116.085 35.4711 116.148 35.125C115.663 35.2194 115.405 35.5844 115.091 35.8362C113.549 37.0761 111.881 38.0768 110.062 38.8446C109.508 39.0775 108.979 39.3733 108.369 39.4488C108.256 39.4614 108.13 39.5432 108.042 39.625C107.639 39.9838 107.116 40.0656 106.638 40.2481C106.544 40.2859 106.405 40.2796 106.342 40.3425C105.902 40.8082 105.31 40.846 104.737 40.9908C104.284 41.1041 103.837 41.3369 103.491 41.6642C103.265 41.8782 103.007 42.0166 102.723 42.0292C102.157 42.0607 101.628 42.1677 101.15 42.4887C101.106 42.5201 101.03 42.5139 100.967 42.5139C100.621 42.5139 100.25 42.6649 99.9541 42.6397C99.5325 42.602 99.2492 42.816 98.9031 42.8915C98.5569 42.967 98.2296 43.1118 97.8961 43.2313C97.7198 43.2943 97.5436 43.3572 97.3674 43.4264C97.2667 43.4642 97.1786 43.5146 97.0653 43.4831C96.9835 43.4642 96.8954 43.4202 96.8765 43.3383C96.8513 43.2502 96.908 43.181 96.9961 43.1495C97.1723 43.0803 97.3422 43.0048 97.5184 42.9418C97.9212 42.8097 98.2611 42.5831 98.5884 42.325C98.9975 42.1929 99.4066 42.0544 99.8157 41.9222C99.9478 41.8782 99.9604 41.7901 99.9352 41.6831C99.8975 41.5446 99.8094 41.5572 99.6961 41.6013C99.3185 41.7586 98.9345 41.9034 98.5506 42.0544C97.7828 42.1173 97.0716 42.5138 96.2471 42.3754C95.838 42.3062 95.4352 42.6523 95.0261 42.8097C94.2205 43.1306 93.4086 43.4327 92.5401 43.5209C92.5338 43.4642 92.5023 43.3509 92.5149 43.3509C92.7667 43.2502 92.9366 43.0236 93.245 42.9796C93.5471 42.9355 93.9121 42.8726 94.0758 42.5201C94.0758 42.5201 94.1072 42.5264 94.1135 42.5327C94.1513 42.6083 94.145 42.4446 94.1828 42.4006C93.4527 42.7467 92.8485 43.0173 92.2506 43.288ZM111.188 16.3759C110.842 16.3696 110.628 16.5836 110.37 16.8417C110.792 16.9046 110.968 16.6025 111.22 16.4514C111.44 16.3885 111.673 16.3444 111.786 16.0046C111.497 16.0864 111.314 16.1871 111.188 16.3759ZM112.057 15.8913C112.579 15.7214 112.944 15.2745 113.473 15.1235C112.825 15.1298 112.472 15.3123 112 15.8472C111.95 15.8661 111.887 15.8976 111.944 15.9542C111.994 16.0046 112.038 15.9479 112.057 15.8913ZM101.27 15.9542C101.528 16.0801 101.71 15.8913 101.911 15.8032C103.441 15.1172 104.825 14.1794 106.305 13.399C107.947 12.5367 109.558 11.6053 111.176 10.699C112.088 10.1892 113.026 9.72972 113.882 9.13811C114.82 8.48985 115.682 7.72831 116.551 6.99194C116.796 6.78425 117.168 6.69614 117.243 6.33739C117.161 6.18634 117.035 6.17376 116.909 6.18005C116.167 6.22411 115.443 6.06047 114.682 6.14229C113.467 6.27446 112.258 6.41292 111.056 6.6332C110.76 6.68984 110.502 6.9353 110.251 6.87236C109.949 6.79054 109.735 6.89754 109.483 6.97306C109.25 7.04229 109.011 7.15558 108.778 7.16817C107.261 7.24369 105.971 7.98636 104.612 8.53391C104.448 8.59685 104.228 8.81084 104.385 8.97447C104.737 9.36469 104.53 9.71084 104.391 10.0759C104.184 10.636 104.077 11.278 103.737 11.7437C102.755 13.0717 101.981 14.513 101.257 15.9857C101.288 15.9605 101.301 15.9857 101.282 15.992C101.207 15.992 101.32 16.0172 101.27 15.9542ZM88.3296 37.8754C89.1855 37.5607 90.0352 37.2082 90.91 36.9313C92.7352 36.3523 94.573 35.8173 96.3982 35.2383C98.3996 34.6026 100.388 33.9418 102.39 33.2998C104.819 32.5257 107.186 31.5879 109.451 30.4362C110.137 30.09 110.798 29.6872 111.491 29.3536C112 29.1019 112.472 28.7305 112.699 28.1452C112.762 27.9753 112.837 27.8117 113.007 27.6858C113.171 27.5662 113.322 27.3522 113.228 27.1445C113.083 26.8235 112.932 26.4837 112.592 26.32C112.17 26.1249 111.824 25.8228 111.459 25.5522C111.251 25.4012 111.044 25.3067 110.792 25.2438C110.175 25.0802 109.565 24.8788 108.96 24.6585C108.501 24.4886 108.086 24.155 107.551 24.3879C107.507 24.4067 107.412 24.3942 107.374 24.3627C106.915 23.9473 106.305 24.0165 105.776 23.9599C104.87 23.8655 103.982 23.6263 103.076 23.5445C102.818 23.5193 102.566 23.4186 102.308 23.5256C101.899 23.1732 101.377 23.299 100.904 23.2046C100.231 23.0662 99.5387 23.1228 98.859 22.9969C98.4373 22.9151 98.2926 22.9969 98.1541 23.4186C98.0282 23.8025 97.8331 24.1424 97.638 24.4886C97.4366 24.8536 97.2038 25.2123 97.0716 25.6026C96.7443 26.6158 96.3415 27.5914 95.7751 28.504C95.473 28.9823 95.1835 29.4606 94.6107 29.6683C94.3275 29.769 94.1387 30.0082 93.9562 30.2347C93.8933 30.3103 93.8744 30.455 93.7674 30.4739C93.2639 30.5494 93.2639 31.0215 93.0814 31.3425C92.9807 31.5187 92.9429 31.7327 92.88 31.9341C92.7667 32.2865 92.6219 32.6012 92.1625 32.5383C92.024 32.5194 91.9422 32.6453 91.9674 32.7271C92.0807 33.0606 91.917 33.1991 91.6653 33.3753C91.3758 33.583 91.3758 34.0739 90.9289 34.1558C91.0548 34.4956 90.7149 34.6844 90.652 34.9739C90.5639 35.3767 90.3625 35.7544 90.2303 36.1509C90.0918 36.5726 89.7268 36.7173 89.3743 36.8117C88.9904 36.9124 88.9653 36.8621 88.8708 37.0257C88.7135 37.2837 88.4806 37.46 88.2729 37.6614C88.1093 37.7747 87.8576 37.7998 87.782 38.1082C88.0149 38.0893 88.1722 37.9886 88.3296 37.8754ZM163.999 14.4626C163.729 14.5067 163.634 14.664 163.534 14.8151C162.791 15.9102 161.872 16.8731 161.167 18.006C160.802 18.5913 160.217 19.0382 159.978 19.7242C159.952 19.7997 159.877 19.8564 159.814 19.9067C158.864 20.6305 158.461 21.7634 157.68 22.72C159.613 22.248 161.494 21.9396 163.282 21.2725C163.773 21.0899 163.804 21.1025 163.773 20.5927C163.691 19.1955 164.024 17.8172 163.88 16.42C163.873 16.3319 163.899 16.2626 163.924 16.1808C164.106 15.6333 163.974 15.0668 163.999 14.4626ZM89.6576 35.7292C89.8086 35.6788 89.859 35.553 89.859 35.4019C89.859 35.339 89.8212 35.276 89.752 35.2886C89.582 35.3264 89.5569 35.4774 89.5317 35.6159C89.5191 35.6788 89.5757 35.7229 89.6576 35.7292ZM166.63 27.4026C166.498 27.6354 166.473 27.8998 166.63 28.1578C166.63 27.9061 166.63 27.6543 166.63 27.4026ZM101.408 41.3054C101.389 41.274 101.377 41.2173 101.351 41.211C101.288 41.1859 101.232 41.2236 101.225 41.2929C101.219 41.3243 101.251 41.381 101.276 41.3873C101.339 41.4062 101.389 41.3747 101.408 41.3054ZM100.923 40.5754C100.854 40.588 100.823 40.6383 100.842 40.7013C100.848 40.7264 100.904 40.7579 100.936 40.7516C101.005 40.7453 101.037 40.695 101.018 40.632C101.011 40.6068 100.955 40.5943 100.923 40.5754ZM101.301 40.4558C101.232 40.4747 101.2 40.5187 101.219 40.5817C101.225 40.6068 101.282 40.6383 101.314 40.632C101.383 40.6257 101.421 40.5754 101.395 40.5061C101.389 40.481 101.332 40.4684 101.301 40.4558ZM147.856 35.8551C147.887 35.8425 147.938 35.8362 147.957 35.811C147.988 35.7544 147.963 35.6977 147.906 35.6788C147.881 35.6725 147.824 35.6914 147.812 35.7166C147.774 35.767 147.793 35.8236 147.856 35.8551ZM149.14 33.0229C149.077 33.0481 149.052 33.0984 149.083 33.155C149.096 33.1802 149.152 33.2054 149.184 33.1991C149.247 33.1802 149.272 33.1236 149.24 33.0669C149.228 33.0418 149.171 33.0355 149.14 33.0229ZM141.833 30.6187C141.82 30.5809 141.814 30.5306 141.789 30.5117C141.732 30.4802 141.669 30.5054 141.65 30.5683C141.644 30.5998 141.663 30.6564 141.694 30.669C141.751 30.7068 141.801 30.6816 141.833 30.6187ZM149.624 32.4439C149.662 32.3998 149.7 32.3557 149.738 32.3117C149.712 32.2928 149.681 32.2613 149.656 32.2613C149.587 32.2613 149.543 32.3054 149.549 32.3746C149.543 32.3935 149.587 32.4124 149.624 32.4439Z" fill="currentColor"/>
<path d="M37.6395 40.1096C37.2493 40.6005 37.1423 41.2613 36.7647 41.7837C36.4437 41.6767 36.3179 41.3432 36.0283 41.1984C35.8773 41.3746 35.8584 41.5886 35.8081 41.8026C35.7199 42.218 35.5815 42.3313 35.1535 42.2998C34.5556 42.2557 33.964 42.1676 33.3661 42.0984C32.8248 42.0355 32.4598 41.7459 32.2206 41.2487C32.057 40.9089 32.0318 40.9215 31.6101 41.0096C31.6542 40.2606 31.6479 39.5243 31.6794 38.7879C31.7297 37.5732 32.101 36.4277 32.2332 35.2319C32.3276 34.3571 32.6738 33.52 32.9255 32.6704C33.5486 30.5808 34.2409 28.5228 34.9647 26.471C35.5123 24.9165 36.0095 23.3367 36.6262 21.8074C37.2682 20.2088 37.9228 18.6101 38.5333 16.9989C38.6969 16.571 38.9738 16.1745 39.0053 15.6898C38.7724 15.6521 38.6843 15.8283 38.5773 15.9416C37.8472 16.7094 37.1109 17.4647 36.4626 18.3017C35.6696 19.315 34.8703 20.3283 34.115 21.3794C33.536 22.1913 32.9381 22.9906 32.422 23.8465C32.0507 24.4633 31.6227 25.0675 31.0877 25.571C30.8171 25.8228 30.5968 26.0997 30.4521 26.471C30.2696 26.9305 29.8731 27.2892 29.5206 27.6291C28.029 29.0452 26.8206 30.6941 25.6185 32.3431C25.4045 32.6326 25.1653 32.8844 24.8632 33.0795C24.322 33.4382 23.787 33.7969 23.2583 34.1683C23.1262 34.2627 22.9877 34.2564 22.8429 34.269C22.031 34.3571 21.2254 34.4767 20.4513 34.7473C19.8975 34.9361 19.3562 34.9109 18.7961 34.7725C18.1793 34.6214 17.7702 34.2249 17.638 33.6585C17.4933 33.0291 17.0905 32.513 16.996 31.8711C16.9772 31.7515 16.9457 31.6382 16.9457 31.5123C16.9583 30.3983 16.9583 29.2906 16.9583 28.1766C16.9583 27.5598 17.1156 26.9556 17.1534 26.3514C17.2037 25.5899 17.4681 24.8661 17.4303 24.0857C17.4114 23.727 17.5184 23.3242 17.5814 22.9402C17.7387 21.9144 17.8205 20.8885 17.9401 19.8563C17.9779 19.5101 18.1037 19.1703 18.1793 18.8304C18.4058 17.7731 18.2359 16.7094 18.1982 15.608C18.0219 15.8409 17.8331 16.0738 17.6632 16.3129C16.8828 17.3954 16.2345 18.5661 15.5863 19.7304C14.7618 21.2032 14.0128 22.7137 13.2387 24.2179C12.3701 25.8983 11.5583 27.6102 10.9666 29.4165C10.7715 30.0144 10.438 30.5431 10.1422 31.0969C9.87782 31.5878 9.78342 32.1039 9.76453 32.6578C9.73307 33.4004 9.58831 34.1242 9.3932 34.8543C9.18551 35.6347 8.75124 36.3333 8.65683 37.1515C8.61907 37.4914 8.37991 37.8375 8.12816 38.1333C7.66872 38.6809 7.37291 39.2977 7.23445 40.0215C7.11487 40.6697 6.95123 41.3369 6.39109 41.79C6.19598 41.9474 6.00087 42.111 5.69877 42.0355C5.68619 41.7963 5.6736 41.5697 5.65472 41.3431C5.42814 41.3117 5.33374 41.4061 5.28968 41.6012C5.23933 41.8467 5.0694 42.0481 4.82394 42.0481C3.89876 42.0418 3.01134 42.4131 2.07358 42.3124C1.9477 42.2998 1.83441 42.2872 1.70854 42.2432C1.00364 42.0166 0.965876 41.9662 0.953289 41.2362C0.940701 40.3865 0.940701 39.5368 1.21133 38.7124C1.25539 38.5802 1.23651 38.4229 1.23021 38.2781C1.19874 37.4033 1.40014 36.5788 1.79036 35.7984C1.85959 35.6536 1.847 35.5088 1.84071 35.3704C1.81553 34.7347 1.90364 34.1431 2.17428 33.5452C2.39456 33.0606 2.48896 32.5193 2.58337 31.9781C2.72813 31.141 2.99876 30.3291 3.30086 29.5298C4.28897 26.9242 5.0694 24.2556 6.02605 21.6374C6.71207 19.7493 7.3855 17.8612 8.0904 15.9856C8.82047 14.0409 9.5946 12.115 10.4506 10.2206C11.2813 8.3765 12.131 6.53244 13.1632 4.78278C13.459 4.28557 13.7737 3.78207 14.145 3.34151C14.3779 3.06458 14.7869 2.945 15.0324 2.67437C15.3911 2.28416 15.838 2.09534 16.3163 1.938C16.9646 1.72401 17.2226 1.82471 17.638 2.38485C17.852 2.66807 18.1919 2.68066 18.4814 2.68696C19.759 2.69954 21.024 2.88835 22.308 2.81912C22.887 2.78765 23.3968 2.97018 23.8814 3.30375C24.2716 3.57438 24.7625 3.67507 25.222 3.76948C25.7381 3.88276 26.1346 4.13452 26.5059 4.48697C27.0723 5.02823 27.5318 5.63872 27.9661 6.28068C28.1297 6.52614 28.1989 6.78418 28.2241 7.02964C28.3059 7.78489 28.2556 8.54644 28.0227 9.28281C27.8528 9.83665 27.8402 10.4409 27.6262 10.9632C27.3304 11.7059 27.2737 12.4926 27.0598 13.2416C26.9842 13.4996 26.8709 13.7451 26.7828 13.9968C26.4304 15.0668 26.2982 16.1682 26.122 17.2696C25.8262 19.0633 25.4234 20.8381 24.9576 22.5941C24.8758 22.9088 24.9325 23.192 24.9325 23.5067C25.4045 23.0724 25.7884 22.5941 26.122 22.078C26.7828 21.0647 27.4563 20.064 28.1989 19.1073C28.6269 18.5535 28.8661 17.8675 29.3255 17.3262C29.6213 16.9738 29.9045 16.615 30.2255 16.2877C30.515 15.9856 30.7731 15.6647 30.9682 15.287C31.2766 14.6891 31.7171 14.1982 32.1703 13.7136C32.6549 13.1975 33.1584 12.694 33.5675 12.115C33.6052 12.0646 33.643 12.008 33.6871 11.9702C34.5556 11.2339 35.1724 10.2772 35.9402 9.44644C36.2675 9.0877 36.6577 8.76042 36.8276 8.26321C36.8843 8.09958 37.0731 7.98629 37.2116 7.85412C37.6081 7.46391 37.9353 7.01076 38.25 6.55132C38.5207 6.1674 38.892 5.85271 39.2256 5.52543C39.7354 5.02193 40.3018 4.57508 40.6983 3.97088C40.9123 3.6499 41.2144 3.43591 41.5039 3.20934C42.0892 2.7436 42.6619 2.25268 43.1906 1.72401C43.4613 1.45338 43.8011 1.36527 44.141 1.28345C44.7829 1.1261 45.4375 1.0317 45.9221 0.490436C46.0732 0.320505 46.369 0.213511 46.6018 0.207218C47.3886 0.175749 48.1879 0.087641 48.9683 0.314216C49.0438 0.339391 49.1382 0.364563 49.1886 0.421207C49.7676 1.04429 50.548 1.37157 51.2277 1.85618C51.9326 2.35968 52.5368 2.95129 53.0152 3.66878C53.4557 4.32333 53.4243 5.07858 53.2858 5.78978C53.0781 6.82195 52.7634 7.84153 52.1403 8.72895C52.1089 8.77301 52.1152 8.84853 52.1026 8.92406C52.518 9.01217 52.8767 8.81707 53.2543 8.74784C54.2991 8.57161 55.2935 8.21286 56.3194 7.95482C57.3641 7.69048 58.4278 7.52055 59.4914 7.38838C59.9194 7.33174 60.3474 7.23733 60.7691 7.13663C61.518 6.96041 62.2796 6.88488 63.0348 6.78418C64.6712 6.55761 66.3201 6.58908 67.9691 6.52614C68.7369 6.49467 69.5111 6.40656 70.2789 6.44432C72.2551 6.53873 74.2125 6.75901 76.0629 7.51426C77.0006 7.89817 77.7055 8.56532 78.3223 9.34574C78.4922 9.55973 78.5426 9.78001 78.5363 10.0381C78.5237 10.4786 78.8006 10.9318 78.4419 11.3534C78.4167 11.3849 78.4923 11.4982 78.5174 11.58C78.6999 12.1276 78.6433 12.694 78.6496 13.2542C78.6559 13.5563 78.5867 13.8521 78.3853 14.0661C78.0517 14.4185 77.7999 14.8213 77.5167 15.2115C77.416 15.35 77.3468 15.4821 77.1202 15.4066C76.8685 15.3248 76.6419 15.5199 76.4027 15.564C76.3146 15.5828 76.2706 15.6395 76.2454 15.7339C76.0503 16.4262 75.4775 16.829 74.9552 17.2066C73.9167 17.9619 72.7461 18.4717 71.4999 18.8178C70.9775 18.9626 70.5307 19.3654 70.0083 19.5542C69.3034 19.8122 68.7747 20.3913 68.0383 20.5549C67.6167 20.6493 67.2453 20.8129 66.9055 21.0647C66.8048 21.1339 66.7292 21.1843 66.6978 21.3353C66.6285 21.7192 66.4208 22.0717 66.0369 22.1787C65.7915 22.2479 65.7726 22.3675 65.8104 22.5248C65.974 23.1479 65.8859 23.7962 66.081 24.4319C66.2698 25.0612 66.3076 25.7284 66.4145 26.3829C66.5215 27.0752 66.6348 27.7675 66.7292 28.4661C66.8236 29.1459 66.9055 29.8256 66.9936 30.5053C67.1006 31.3046 67.2453 32.1039 67.3083 32.9095C67.346 33.4067 67.4027 33.8914 67.5663 34.3634C67.6355 34.5648 67.5348 34.7599 67.3901 34.8669C66.9747 35.1753 66.8803 35.597 66.8803 36.069C66.8803 36.3774 66.8236 36.604 66.4838 36.7613C66.1943 36.8935 66.1817 37.2648 66.1691 37.5795C66.1502 38.1711 65.9614 38.3536 65.3635 38.2655C64.8537 38.19 64.3565 38.0452 63.8467 37.9508C63.5824 37.9005 63.4124 37.7557 63.2614 37.5291C62.9593 37.076 62.7642 36.5599 62.4054 36.1508C62.2229 35.9368 62.3236 35.6725 62.2292 35.4333C61.8516 34.5018 61.732 33.5137 61.6061 32.5193C61.3858 30.8326 60.983 29.1773 60.5991 27.5221C60.4921 27.0563 60.3663 26.5906 60.3977 26.1123C60.4103 25.8731 60.3348 25.6591 60.2593 25.4451C60.0579 24.8535 59.8439 24.2745 59.6425 23.6892C59.5607 23.4437 59.4348 23.3619 59.183 23.4815C58.6984 23.7144 58.1572 23.5759 57.6474 23.6892C57.446 23.7332 57.3264 23.7773 57.4271 23.9913C57.5341 24.2053 57.4019 24.2934 57.2571 24.3878C56.7474 24.7025 56.2439 25.0172 55.8977 25.5333C55.797 25.6906 55.6648 25.8291 55.6019 26.0053C55.2557 26.9242 54.7459 27.7675 54.3809 28.6801C54.0285 29.5675 53.5061 30.3794 53.1977 31.2857C53.1033 31.5627 52.9522 31.8144 52.8641 32.0913C52.8075 32.2613 52.7508 32.3494 52.5683 32.4249C52.2222 32.5634 52.2914 32.9662 52.2536 33.2431C52.197 33.627 52.1215 33.9732 51.9075 34.2941C51.876 34.3445 51.8697 34.4515 51.8319 34.4641C51.127 34.6907 51.1585 35.32 51.0389 35.8739C51.02 35.962 51.0138 36.0627 50.9131 36.0627C50.3781 36.0564 50.3151 36.497 50.1893 36.8431C50.0445 37.2459 49.5977 37.4221 49.5033 37.9949C49.3396 37.6424 49.1634 37.6172 48.9116 37.655C48.5403 37.7054 48.1312 37.5795 47.8354 37.9319C47.7536 38.0263 47.6025 38.0641 47.483 38.0138C46.9291 37.8124 46.3627 37.9068 45.8025 37.9194C45.3242 37.9256 45.1039 37.718 45.0221 37.1075C44.8899 36.1005 45.2739 35.2067 45.5885 34.2879C46.2997 32.2298 46.9291 30.1466 47.5711 28.0696C47.8102 27.2955 48.1438 26.5528 48.4396 25.8039C48.5403 25.5458 48.748 25.3382 48.49 25.0172C48.3452 24.8409 48.5718 24.4193 48.8298 24.3186C49.2767 24.1486 49.4844 23.8151 49.6669 23.3934C50.5103 21.4297 51.5361 19.5605 52.5494 17.685C52.9837 16.8794 53.4054 16.0612 53.7515 15.2052C53.9655 14.6703 54.2676 14.1605 54.5445 13.6129C54.2236 13.4493 54.0033 13.6066 53.783 13.7451C53.5061 13.9276 53.2417 14.1353 52.9271 14.2674C52.4298 14.4814 52.09 14.4563 51.7564 14.0598C51.4543 13.7073 51.02 13.5437 50.7179 13.1912C50.5606 13.0087 50.2774 12.9709 50.0256 12.9458C49.7613 12.9143 49.604 13.015 49.497 13.273C49.2074 13.9779 48.855 14.6451 48.3893 15.2682C48.1123 15.6395 47.9172 16.0926 47.7788 16.5647C47.6466 17.0241 47.4515 17.4647 47.2438 17.8926C46.8347 18.7423 46.4256 19.5857 45.9095 20.3787C45.8403 20.4857 45.7774 20.5801 45.7396 20.706C45.513 21.4927 45.1543 22.2227 44.7766 22.9465C44.292 23.8654 43.9459 24.8347 43.6249 25.8165C43.4046 26.4899 43.1277 27.1445 42.8256 27.7864C42.6242 28.2081 42.5424 28.6487 42.4543 29.0955C42.4102 29.3158 42.3976 29.6053 42.2088 29.7249C41.7871 29.9955 41.7556 30.499 41.4598 30.8452C41.2962 31.0403 41.164 31.3487 41.2647 31.7137C41.3906 32.1606 41.1011 32.6011 40.9626 33.0228C40.8493 33.369 40.7612 33.6837 40.8242 34.0487C40.9186 34.6403 40.6605 35.1942 40.5724 35.7669C40.5661 35.8047 40.5473 35.855 40.5158 35.8739C39.9808 36.2515 40.0689 36.8368 39.9934 37.3718C39.8801 38.1711 39.7479 38.9641 39.6409 39.7634C39.6032 40.0529 39.641 40.3487 39.6284 40.6445C39.6221 40.8774 39.5969 41.1103 39.2885 40.8459C39.2319 40.7956 39.1626 40.7956 39.1312 40.8459C38.8542 41.318 38.8165 40.8019 38.6969 40.7264C38.6402 40.6886 38.6654 40.5313 38.6528 40.4306C38.6465 40.3236 38.6402 40.2166 38.4955 40.204C38.3822 40.1914 38.2878 40.2417 38.2312 40.3361C38.1682 40.4431 38.1179 40.5627 38.0612 40.6697C38.0172 40.7515 37.9416 40.7893 37.8535 40.7767C37.7151 40.7578 37.7214 40.6508 37.7025 40.5438C37.7151 40.3865 37.8598 40.2606 37.6395 40.1096ZM59.3341 19.3906C60.1145 19.1892 60.6935 18.8115 61.3292 18.5472C63.3873 17.6912 65.4705 16.9045 67.4908 15.9668C67.9628 15.7465 68.46 15.5891 68.932 15.3689C70.1279 14.815 71.2293 14.0912 72.3181 13.3611C72.7649 13.059 73.1866 12.7192 73.602 12.3667C74.0111 12.0143 73.9356 11.6492 73.4321 11.4793C73.3754 11.4604 73.3062 11.4604 73.2496 11.4478C72.6391 11.322 72.0286 11.2339 71.4055 11.1961C70.795 11.1583 70.2034 11.3597 69.5992 11.322C68.9887 11.2842 68.4034 11.4416 67.7992 11.473C66.9747 11.5171 66.1565 11.6744 65.3446 11.8192C64.4887 11.9702 63.6516 12.2094 62.7894 12.329C62.525 12.3667 62.374 12.5052 62.4306 12.8576C62.5187 13.3989 62.418 13.9087 62.0845 14.3996C61.8075 14.8087 61.474 15.2367 61.3355 15.6961C61.09 16.508 60.5677 17.1059 60.083 17.7479C59.7306 18.2199 59.5418 18.7612 59.3341 19.3906ZM38.9738 40.097C39.0934 40.1096 39.1689 40.0403 39.1752 39.9648C39.1941 39.4424 39.1941 38.9201 39.1941 38.3914C39.1941 38.2655 39.1123 38.2026 38.9927 38.2089C38.8354 38.2152 38.785 38.3159 38.785 38.4606C38.7913 39.0208 38.7221 39.5809 38.9738 40.097ZM40.2326 33.0165C40.3207 32.9851 40.371 32.9158 40.3458 32.834C40.3207 32.7585 40.2703 32.6389 40.2326 32.6389C40.0941 32.6389 40.1256 32.7711 40.1256 32.8592C40.1193 32.9347 40.1319 33.0102 40.2326 33.0165ZM39.0242 15.564C39.043 15.5828 39.0556 15.5954 39.0682 15.608C39.0808 15.5828 39.0997 15.5514 39.106 15.5262C39.106 15.5136 39.0808 15.501 39.0682 15.4821C39.0493 15.5136 39.0368 15.5388 39.0242 15.564Z" fill="currentColor"/>
<path d="M201.497 9.54092C202.598 9.75491 203.756 9.30176 204.952 9.11924C206.117 8.94301 207.243 8.57168 208.439 8.5528C209.175 8.54021 209.912 8.3577 210.648 8.25071C210.73 8.23812 210.812 8.20665 210.894 8.21294C211.655 8.29476 212.36 7.94231 213.096 7.89196C213.782 7.84161 214.456 7.72832 215.129 7.60874C216.073 7.4451 217.024 7.37587 217.968 7.28776C218.754 7.21853 219.541 7.10524 220.334 7.13042C221.215 7.16188 222.096 7.143 222.978 7.13671C223.236 7.13671 223.469 7.17448 223.689 7.33182C224.117 7.63392 224.123 7.63391 223.783 8.01783C223.594 8.23182 223.62 8.52134 223.871 8.69127C223.966 8.7542 224.085 8.84861 224.016 8.90526C223.764 9.10036 223.727 9.23882 224.016 9.42763C224.073 9.4654 224.06 9.68568 223.972 9.69827C223.632 9.74862 223.701 10.2018 223.362 10.2647C223.141 10.3025 223.091 10.6109 223.122 10.7241C223.204 11.0074 223.116 11.2025 222.952 11.3976C222.77 11.6053 222.568 11.813 222.292 11.8381C221.448 11.9074 220.624 12.1088 219.787 12.2221C219.113 12.3102 218.389 12.3416 217.773 12.7507C217.515 12.9207 217.194 12.9836 216.885 13.0214C216.061 13.1284 215.91 13.2731 215.878 14.0598C215.866 14.45 215.727 14.7647 215.463 15.0668C215.136 15.4382 214.922 15.9039 214.525 16.2249C214.481 16.2626 214.45 16.3319 214.443 16.3885C214.33 17.4459 213.65 18.2452 213.222 19.1641C213.159 19.3025 213.046 19.4032 212.914 19.4725C212.794 19.5354 212.725 19.6361 212.675 19.7494C212.133 20.9578 211.523 22.1347 211.045 23.3683C210.415 24.9984 209.723 26.597 209.094 28.2271C208.766 29.0767 208.515 29.9578 208.124 30.7886C207.722 31.6509 207.363 32.5383 206.991 33.4257C206.878 33.6963 206.796 33.9732 206.702 34.2502C206.601 34.5397 206.545 34.8355 206.161 34.9362C205.966 34.9865 205.877 35.232 205.802 35.4334C205.544 36.1131 205.298 36.7928 205.047 37.4726C204.94 37.7684 204.757 38.0264 204.619 38.3096C204.348 38.8572 203.555 39.1341 202.901 38.9705C202.108 38.7691 201.359 39.0271 200.811 39.6376C200.534 39.946 200.263 40.2607 199.773 40.1474C199.559 40.0971 199.414 40.0278 199.42 39.7887C199.433 39.4551 199.389 39.1215 199.477 38.788C199.678 38.0138 199.842 37.2271 200.056 36.4593C200.408 35.1879 200.767 33.9229 201.176 32.6704C201.642 31.2543 202.013 29.8068 202.504 28.397C203.14 26.5655 203.876 24.7718 204.568 22.9655C205.242 21.2032 206.035 19.4913 206.721 17.7354C207.023 16.9675 207.331 16.1808 207.728 15.4508C207.797 15.3249 207.873 15.1927 207.91 15.0542C207.954 14.8843 207.797 14.7836 207.703 14.8591C207.375 15.1172 207.017 14.9724 206.689 14.9473C205.846 14.8906 205.198 15.2431 204.631 15.8095C204.575 15.8661 204.505 15.9983 204.48 15.9857C203.926 15.778 203.536 16.4137 202.982 16.2689C202.768 16.2123 202.529 16.2312 202.34 16.0801C202.309 16.055 202.277 16.0172 202.24 16.0109C201.107 15.8284 200.836 14.7962 200.289 14.0347C200.182 13.8836 200.081 13.7263 199.942 13.6004C199.798 13.4808 199.653 13.3801 199.615 13.1724C199.584 13.0025 199.445 12.8892 199.275 12.8325C198.917 12.7067 198.828 12.392 198.835 12.0773C198.841 11.7311 198.873 11.3409 199.099 11.0703C199.477 10.6046 199.911 10.1892 200.339 9.7612C200.622 9.47799 201 9.53463 201.497 9.54092Z" fill="currentColor"/>
<path d="M92.2505 43.288C92.8547 43.0174 93.4526 42.7468 94.1701 42.4258C94.1323 42.4698 94.1386 42.6335 94.1009 42.5579C94.0946 42.5517 94.0631 42.5391 94.0631 42.5454C93.8995 42.8978 93.5344 42.9545 93.2323 43.0048C92.9239 43.0489 92.754 43.2754 92.5022 43.3761C92.4897 43.3824 92.5148 43.4894 92.5274 43.5461C92.2945 43.6153 92.282 43.4454 92.2505 43.288Z" fill="#C8C7C8"/>
<path d="M89.6574 35.7292C89.5756 35.7292 89.5189 35.6851 89.5315 35.6159C89.5567 35.4774 89.5819 35.3264 89.7518 35.2886C89.8273 35.276 89.8588 35.339 89.8588 35.4019C89.8588 35.5529 89.8085 35.6788 89.6574 35.7292Z" fill="#1A3037"/>
<path d="M101.408 41.3055C101.389 41.3747 101.339 41.4062 101.276 41.3873C101.251 41.381 101.219 41.3244 101.225 41.2929C101.232 41.2237 101.288 41.1922 101.351 41.2111C101.376 41.2174 101.389 41.274 101.408 41.3055Z" fill="#1A3037"/>
<path d="M100.923 40.5754C100.955 40.5943 101.005 40.6069 101.018 40.6321C101.036 40.695 101.005 40.7517 100.936 40.7517C100.904 40.7517 100.854 40.7265 100.841 40.7013C100.822 40.6384 100.854 40.5943 100.923 40.5754Z" fill="#1A3037"/>
<path d="M101.301 40.4495C101.332 40.4683 101.382 40.4809 101.395 40.5061C101.42 40.569 101.382 40.6257 101.313 40.632C101.282 40.632 101.225 40.6068 101.219 40.5816C101.2 40.5187 101.231 40.4683 101.301 40.4495Z" fill="#1A3037"/>
<path d="M101.27 15.9542C101.32 16.0235 101.213 15.992 101.295 15.9794C101.314 15.9794 101.301 15.9479 101.27 15.9794C101.263 15.9794 101.27 15.9542 101.27 15.9542Z" fill="#FBFBFB"/>
<path d="M39.0239 15.564C39.0365 15.5388 39.0554 15.5074 39.068 15.4822C39.0806 15.4948 39.112 15.5136 39.1057 15.5262C39.0994 15.5577 39.0806 15.5829 39.068 15.6081C39.0554 15.5955 39.0365 15.5829 39.0239 15.564Z" fill="currentColor"/>
</svg>
