<svg width="35" height="35" viewBox="0 0 35 35" fill="none" xmlns="http://www.w3.org/2000/svg">
<g clip-path="url(#clip0_142_106)">
<path d="M21.8575 18.5584C22.0879 21.1543 20.0492 23.333 17.5 23.333H11.6988C10.691 23.333 9.97646 22.3618 10.2769 21.4007C11.009 19.0543 13.1002 15.3268 16.4602 14.6807C19.0196 14.1878 21.6271 15.9626 21.8575 18.5584ZM33.5417 13.1247C32.7352 13.1247 32.0833 13.7766 32.0833 14.583V21.8747C32.0833 24.2868 30.1204 26.2497 27.7083 26.2497H7.29167C4.87958 26.2497 2.91667 24.2868 2.91667 21.8747V10.208C2.91667 7.79594 4.87958 5.83302 7.29167 5.83302H18.9583C19.7648 5.83302 20.4167 5.18115 20.4167 4.37469C20.4167 3.56823 19.7648 2.91635 18.9583 2.91635H7.29167C3.27104 2.91635 0 6.1874 0 10.208V21.8747C0 25.8953 3.27104 29.1664 7.29167 29.1664H16.0417V32.083H11.6667C10.8617 32.083 10.2083 32.7349 10.2083 33.5414C10.2083 34.3478 10.8617 34.9997 11.6667 34.9997H23.3333C24.1398 34.9997 24.7917 34.3478 24.7917 33.5414C24.7917 32.7349 24.1398 32.083 23.3333 32.083H18.9583V29.1664H27.7083C31.729 29.1664 35 25.8953 35 21.8747V14.583C35 13.7766 34.3481 13.1247 33.5417 13.1247ZM19.8129 12.6653C19.8231 12.6697 19.8348 12.6741 19.845 12.6799C20.405 12.9249 21.0554 12.7659 21.4623 12.3095L29.6888 3.3699C30.1963 2.8026 31.0683 2.75448 31.6342 3.26198C31.6531 3.27948 31.6706 3.29552 31.6896 3.31448C32.2277 3.85115 32.2277 4.72177 31.691 5.2599C31.691 5.2599 31.691 5.2599 31.6896 5.26135L23.1671 13.5534C22.6844 14.0361 22.6158 14.7843 22.9877 15.3574C22.9935 15.3661 22.9994 15.3749 23.0038 15.3822C23.4981 16.1536 24.5758 16.2659 25.2233 15.6184L33.7458 7.32781C35.42 5.65073 35.42 2.93385 33.7458 1.25677C32.0702 -0.420312 29.3533 -0.42177 27.6763 1.25385C27.6194 1.31073 19.2748 10.3772 19.2748 10.3772C18.6112 11.1224 18.8971 12.2701 19.8129 12.6653Z" fill="white"/>
</g>
<defs>
<clipPath id="clip0_142_106">
<rect width="35" height="35" fill="white"/>
</clipPath>
</defs>
</svg>
