<svg width="35" height="35" viewBox="0 0 35 35" fill="none" xmlns="http://www.w3.org/2000/svg">
<g clip-path="url(#clip0_145_140)">
<path d="M8.02083 0H5.10417C3.75046 0 2.45219 0.537759 1.49498 1.49498C0.537759 2.45219 0 3.75046 0 5.10417L0 8.02083C0.00330783 9.2425 0.445432 10.4223 1.24581 11.3453C2.04618 12.2683 3.15152 12.8729 4.36042 13.0492V13.844C4.3577 14.4234 4.58497 14.9802 4.99235 15.3922C5.39973 15.8042 5.95393 16.0378 6.53333 16.0417C6.82072 16.0432 7.1056 15.9881 7.37168 15.8795C7.63776 15.7709 7.87984 15.6109 8.08407 15.4087C8.2883 15.2065 8.45069 14.966 8.56195 14.7011C8.67321 14.4361 8.73116 14.1518 8.7325 13.8644V13.0521C9.81825 12.8987 10.8253 12.3983 11.6033 11.6256C12.3813 10.8529 12.8885 9.84927 13.0492 8.76458H13.8425C14.4222 8.76769 14.9794 8.54059 15.3917 8.13317C15.804 7.72575 16.0378 7.17132 16.0417 6.59167C16.0432 6.3044 15.9881 6.01964 15.8796 5.75365C15.7711 5.48767 15.6113 5.24566 15.4092 5.04144C15.2072 4.83723 14.9669 4.67482 14.7021 4.56347C14.4373 4.45212 14.1531 4.39403 13.8658 4.3925H13.0521C12.8828 3.17727 12.2808 2.06392 11.3565 1.25698C10.4322 0.450047 9.24779 0.00372106 8.02083 0ZM8.75 8.02083C8.75 8.21422 8.67318 8.39969 8.53643 8.53643C8.39969 8.67318 8.21422 8.75 8.02083 8.75H5.10417C4.91078 8.75 4.72531 8.67318 4.58857 8.53643C4.45182 8.39969 4.375 8.21422 4.375 8.02083V5.10417C4.375 4.91078 4.45182 4.72531 4.58857 4.58857C4.72531 4.45182 4.91078 4.375 5.10417 4.375H8.02083C8.21422 4.375 8.39969 4.45182 8.53643 4.58857C8.67318 4.72531 8.75 4.91078 8.75 5.10417V8.02083Z" fill="white"/>
<path d="M29.896 0H26.9794C25.7577 0.00330783 24.5779 0.445432 23.6549 1.24581C22.7319 2.04618 22.1272 3.15152 21.951 4.36042H21.1577C20.578 4.35731 20.0208 4.58441 19.6085 4.99183C19.1962 5.39925 18.9624 5.95368 18.9585 6.53333C18.957 6.8206 19.0121 7.10536 19.1206 7.37135C19.2291 7.63733 19.3889 7.87934 19.591 8.08356C19.793 8.28777 20.0333 8.45018 20.2981 8.56153C20.5629 8.67288 20.8471 8.73097 21.1344 8.7325H21.9481C22.102 9.81772 22.6027 10.8241 23.3754 11.6015C24.148 12.3789 25.1513 12.8857 26.2356 13.0462V13.841C26.2321 14.421 26.459 14.9785 26.8665 15.3912C27.274 15.8038 27.8286 16.0378 28.4085 16.0417C28.6959 16.0432 28.9808 15.9881 29.2469 15.8795C29.513 15.7709 29.755 15.6109 29.9593 15.4087C30.1635 15.2065 30.3259 14.966 30.4371 14.7011C30.5484 14.4361 30.6064 14.1518 30.6077 13.8644V13.0521C31.8229 12.8828 32.9363 12.2808 33.7432 11.3565C34.5501 10.4322 34.9965 9.24779 35.0002 8.02083V5.10417C35.0002 3.75046 34.4624 2.45219 33.5052 1.49498C32.548 0.537759 31.2497 0 29.896 0ZM30.6252 8.02083C30.6252 8.21422 30.5484 8.39969 30.4116 8.53643C30.2749 8.67318 30.0894 8.75 29.896 8.75H26.9794C26.786 8.75 26.6005 8.67318 26.4638 8.53643C26.327 8.39969 26.2502 8.21422 26.2502 8.02083V5.10417C26.2502 4.91078 26.327 4.72531 26.4638 4.58857C26.6005 4.45182 26.786 4.375 26.9794 4.375H29.896C30.0894 4.375 30.2749 4.45182 30.4116 4.58857C30.5484 4.72531 30.6252 4.91078 30.6252 5.10417V8.02083Z" fill="white"/>
<path d="M30.6398 21.951V21.1562C30.6425 20.5768 30.4152 20.02 30.0078 19.608C29.6005 19.196 29.0463 18.9624 28.4669 18.9585C28.1795 18.957 27.8946 19.0121 27.6285 19.1207C27.3624 19.2293 27.1204 19.3893 26.9161 19.5915C26.7119 19.7937 26.5495 20.0342 26.4382 20.2991C26.327 20.5641 26.269 20.8484 26.2677 21.1358V21.9481C25.1827 22.1023 24.1767 22.6031 23.3996 23.3758C22.6224 24.1484 22.1159 25.1516 21.9554 26.2356H21.1621C20.8747 26.2335 20.5897 26.288 20.3234 26.3961C20.0571 26.5042 19.8147 26.6637 19.61 26.8655C19.4054 27.0673 19.2425 27.3074 19.1307 27.5722C19.019 27.8369 18.9604 28.1211 18.9585 28.4085C18.957 28.6958 19.0121 28.9806 19.1206 29.2465C19.2291 29.5125 19.3889 29.7545 19.591 29.9587C19.793 30.163 20.0333 30.3254 20.2981 30.4367C20.5629 30.5481 20.8471 30.6062 21.1344 30.6077H21.9481C22.1174 31.8229 22.7194 32.9363 23.6437 33.7432C24.568 34.5501 25.7524 34.9965 26.9794 35.0002H29.896C31.2497 35.0002 32.548 34.4624 33.5052 33.5052C34.4624 32.548 35.0002 31.2497 35.0002 29.896V26.9794C34.9969 25.7577 34.5548 24.5779 33.7544 23.6549C32.954 22.7319 31.8487 22.1272 30.6398 21.951ZM30.6252 29.896C30.6252 30.0894 30.5484 30.2749 30.4116 30.4116C30.2749 30.5484 30.0894 30.6252 29.896 30.6252H26.9794C26.786 30.6252 26.6005 30.5484 26.4638 30.4116C26.327 30.2749 26.2502 30.0894 26.2502 29.896V26.9794C26.2502 26.786 26.327 26.6005 26.4638 26.4638C26.6005 26.327 26.786 26.2502 26.9794 26.2502H29.896C30.0894 26.2502 30.2749 26.327 30.4116 26.4638C30.5484 26.6005 30.6252 26.786 30.6252 26.9794V29.896Z" fill="white"/>
<path d="M8.76458 21.951V21.1562C8.7673 20.5768 8.54003 20.02 8.13265 19.608C7.72527 19.196 7.17107 18.9624 6.59167 18.9585C6.30428 18.957 6.0194 19.0121 5.75332 19.1207C5.48724 19.2293 5.24516 19.3893 5.04093 19.5915C4.8367 19.7937 4.67431 20.0342 4.56305 20.2991C4.45179 20.5641 4.39384 20.8484 4.3925 21.1358V21.9481C3.17727 22.1174 2.06392 22.7194 1.25698 23.6437C0.450047 24.568 0.00372106 25.7524 0 26.9794L0 29.896C0 31.2497 0.537759 32.548 1.49498 33.5052C2.45219 34.4624 3.75046 35.0002 5.10417 35.0002H8.02083C9.2425 34.9969 10.4223 34.5548 11.3453 33.7544C12.2683 32.954 12.8729 31.8487 13.0492 30.6398H13.8425C14.4222 30.6429 14.9794 30.4158 15.3917 30.0084C15.804 29.6009 16.0378 29.0465 16.0417 28.4669C16.0432 28.1796 15.9881 27.8948 15.8796 27.6288C15.7711 27.3629 15.6113 27.1209 15.4092 26.9166C15.2072 26.7124 14.9669 26.55 14.7021 26.4387C14.4373 26.3273 14.1531 26.2692 13.8658 26.2677H13.0521C12.8987 25.1819 12.3983 24.1749 11.6256 23.3969C10.8529 22.6189 9.84927 22.1117 8.76458 21.951ZM8.75 29.896C8.75 30.0894 8.67318 30.2749 8.53643 30.4116C8.39969 30.5484 8.21422 30.6252 8.02083 30.6252H5.10417C4.91078 30.6252 4.72531 30.5484 4.58857 30.4116C4.45182 30.2749 4.375 30.0894 4.375 29.896V26.9794C4.375 26.786 4.45182 26.6005 4.58857 26.4638C4.72531 26.327 4.91078 26.2502 5.10417 26.2502H8.02083C8.21422 26.2502 8.39969 26.327 8.53643 26.4638C8.67318 26.6005 8.75 26.786 8.75 26.9794V29.896Z" fill="white"/>
</g>
<defs>
<clipPath id="clip0_145_140">
<rect width="35" height="35" fill="white"/>
</clipPath>
</defs>
</svg>
