<svg width="35" height="35" viewBox="0 0 35 35" fill="none" xmlns="http://www.w3.org/2000/svg">
<g clip-path="url(#clip0_143_131)">
<path d="M32.7904 16.0052L17.4998 25.181L2.20915 16.0052C1.87749 15.8062 1.48037 15.7471 1.10514 15.8409C0.729908 15.9347 0.407312 16.1737 0.208317 16.5054C0.00932196 16.8371 -0.049772 17.2342 0.0440352 17.6094C0.137842 17.9846 0.376867 18.3072 0.708526 18.5062L16.7502 28.1312C16.977 28.2675 17.2366 28.3395 17.5012 28.3395C17.7658 28.3395 18.0255 28.2675 18.2523 28.1312L34.2939 18.5062C34.6256 18.3072 34.8646 17.9846 34.9584 17.6094C35.0522 17.2342 34.9931 16.8371 34.7942 16.5054C34.5952 16.1737 34.2726 15.9347 33.8973 15.8409C33.5221 15.7471 33.125 15.8062 32.7933 16.0052H32.7904Z" fill="white"/>
<path d="M32.7904 22.6668L17.4998 31.8412L2.20915 22.6668C2.04493 22.5683 1.86291 22.5031 1.67348 22.4749C1.48405 22.4467 1.29093 22.4561 1.10513 22.5025C0.919338 22.549 0.744512 22.6316 0.590635 22.7456C0.436759 22.8596 0.306845 23.0028 0.208313 23.167C0.10978 23.3312 0.0445585 23.5133 0.0163709 23.7027C-0.0118166 23.8921 -0.00241777 24.0852 0.0440309 24.271C0.137838 24.6463 0.376862 24.9689 0.708521 25.1679L16.7502 34.7929C16.977 34.9291 17.2366 35.0011 17.5012 35.0011C17.7658 35.0011 18.0255 34.9291 18.2523 34.7929L34.2939 25.1679C34.6256 24.9689 34.8646 24.6463 34.9584 24.271C35.0522 23.8958 34.9931 23.4987 34.7941 23.167C34.5951 22.8354 34.2726 22.5963 33.8973 22.5025C33.5221 22.4087 33.125 22.4678 32.7933 22.6668H32.7904Z" fill="white"/>
<path d="M17.5 21.5438C16.7134 21.5433 15.9416 21.3291 15.2673 20.924L0.707319 12.1871C0.491701 12.0574 0.313293 11.8742 0.189436 11.6552C0.0655799 11.4362 0.000488281 11.1889 0.000488281 10.9373C0.000488281 10.6857 0.0655799 10.4384 0.189436 10.2194C0.313293 10.0004 0.491701 9.81716 0.707319 9.68751L15.2673 0.95063C15.9416 0.545547 16.7134 0.331543 17.5 0.331543C18.2866 0.331543 19.0584 0.545547 19.7327 0.95063L34.2927 9.68751C34.5084 9.81716 34.6868 10.0004 34.8106 10.2194C34.9345 10.4384 34.9996 10.6857 34.9996 10.9373C34.9996 11.1889 34.9345 11.4362 34.8106 11.6552C34.6868 11.8742 34.5084 12.0574 34.2927 12.1871L19.7327 20.924C19.0584 21.3291 18.2867 21.5433 17.5 21.5438ZM4.29336 10.9373L16.7709 18.4229C16.9912 18.5547 17.2432 18.6244 17.5 18.6244C17.7568 18.6244 18.0088 18.5547 18.2292 18.4229L30.7067 10.9373L18.2292 3.45167C18.0088 3.31985 17.7568 3.25023 17.5 3.25023C17.2432 3.25023 16.9912 3.31985 16.7709 3.45167L4.29336 10.9373Z" fill="white"/>
</g>
<defs>
<clipPath id="clip0_143_131">
<rect width="35" height="35" fill="white"/>
</clipPath>
</defs>
</svg>
