<svg width="30" height="27" viewBox="0 0 30 27" fill="none" xmlns="http://www.w3.org/2000/svg">
<g clip-path="url(#clip0_166_54)">
<path d="M28.5808 7.4007C27.8403 7.97536 27.1615 8.49777 26.4915 9.02018C24.076 10.8922 21.6605 12.7728 19.245 14.6448C18.0637 15.559 17.0058 15.5503 15.8244 14.6361C13.647 12.9383 11.4607 11.2491 9.27435 9.56001C9.0804 9.41199 8.86882 9.2988 8.59553 9.13337C8.35751 9.27268 7.91672 9.49035 7.5112 9.76026C6.8412 10.2217 6.83238 10.9183 6.94699 11.6148C6.99107 11.8673 7.09686 12.1198 7.22909 12.3375C8.23409 14.0702 9.26553 15.7941 10.2705 17.5355C10.5438 18.0057 10.9405 18.3365 11.4342 18.5629C11.9367 18.7893 12.4304 18.798 12.9153 18.4933C13.2591 18.2756 13.6205 18.084 13.9731 17.8838C15.0839 17.2569 16.2388 17.3352 17.235 18.1189C17.4994 18.3278 17.7639 18.5542 17.9755 18.8154C19.0246 20.1389 20.0031 21.5058 20.488 23.1427C20.5938 23.4997 20.629 23.8915 20.6202 24.2659C20.6026 24.8493 20.3029 25.2846 19.7915 25.5893C16.1771 27.6964 12.6772 27.383 9.28316 25.0844C7.83738 24.1092 6.64725 22.8554 5.73923 21.3839C4.30226 19.0418 2.89174 16.6822 1.56938 14.2704C0.405701 12.1721 -0.167323 9.89087 0.0442553 7.48777C0.308728 4.50132 1.70162 2.16787 4.29345 0.565811C4.42568 0.487449 4.56674 0.417794 4.69016 0.330725C5.58055 -0.261342 6.40041 0.00857132 7.05278 0.548397C7.76685 1.14046 8.28698 1.87184 8.72777 2.67287C9.07158 3.29977 9.40658 3.94408 9.71513 4.58838C9.81211 4.78864 9.94434 4.78864 10.1118 4.78864C12.0513 4.78864 13.9908 4.78864 15.9302 4.78864C19.8621 4.78864 23.7939 4.78864 27.7345 4.78864C28.2987 4.78864 28.8277 4.88442 29.2861 5.23269C29.7357 5.58097 30.0002 6.02502 30.0002 6.59967C30.0002 10.9183 30.009 15.2369 30.0002 19.5642C30.0002 20.5742 29.1274 21.3752 28.0166 21.3839C25.8215 21.4013 23.6352 21.3926 21.4401 21.3926C20.9905 21.3926 20.6819 21.0966 20.6731 20.7048C20.6643 20.3043 20.9552 20.0257 21.4136 19.9908C21.5194 19.9821 21.634 19.9908 21.7398 19.9908C23.7586 19.9908 25.7686 19.9908 27.7874 19.9908C28.4486 19.9908 28.5808 19.8602 28.5808 19.2072C28.5808 15.4197 28.5808 11.6322 28.5808 7.84475C28.5808 7.73156 28.5808 7.60967 28.5808 7.4007ZM14.8547 25.5981C16.133 25.5806 17.3055 25.3369 18.381 24.7709C19.3596 24.2485 19.3948 24.1353 18.9717 23.0992C18.4604 21.8628 17.7375 20.7483 16.8735 19.7209C16.6972 19.512 16.4856 19.3291 16.2741 19.1637C15.7804 18.7806 15.2691 18.7196 14.7225 19.0679C14.3258 19.3204 13.9202 19.5642 13.4883 19.7645C13.1533 19.9212 12.7918 20.0692 12.4304 20.0953C10.9493 20.1737 9.82974 19.5381 9.0804 18.293C8.02251 16.5342 6.98225 14.7667 5.96844 12.9905C5.73041 12.5726 5.56292 12.085 5.49239 11.6148C5.32489 10.3959 5.73041 9.02889 7.07041 8.37587C7.46712 8.18432 7.82856 7.94053 8.21646 7.72286C8.67488 7.47036 8.84238 7.06984 8.7983 6.57355C8.78067 6.382 8.75422 6.18174 8.70132 5.9989C8.22527 4.51002 7.48475 3.16046 6.47975 1.95891C6.32989 1.77607 6.12712 1.62805 5.92436 1.49745C5.8362 1.4365 5.65989 1.41908 5.57173 1.47133C5.23673 1.63676 4.90173 1.81089 4.602 2.02856C2.55674 3.51744 1.49885 5.52873 1.42833 8.04501C1.37543 10.0563 1.88675 11.9631 2.85648 13.7132C4.14358 16.0205 5.51884 18.293 6.88528 20.5568C7.4583 21.5145 8.21646 22.3417 9.05395 23.0992C10.7113 24.5968 12.6067 25.5632 14.8547 25.5981ZM27.8227 6.20786C21.9073 6.20786 16.0713 6.20786 10.2088 6.20786C10.297 6.92182 10.1647 7.58355 9.75921 8.16691C9.92671 8.2888 10.0766 8.40199 10.2264 8.51518C12.3599 10.1695 14.4845 11.8151 16.6179 13.4694C17.3937 14.0702 17.711 14.0615 18.478 13.4694C20.6202 11.8064 22.7713 10.1347 24.9223 8.47165C25.8568 7.73156 26.8089 6.99148 27.8227 6.20786Z" fill="white"/>
</g>
<defs>
<clipPath id="clip0_166_54">
<rect width="30" height="27" fill="white"/>
</clipPath>
</defs>
</svg>
