<svg width="35" height="35" viewBox="0 0 35 35" fill="none" xmlns="http://www.w3.org/2000/svg">
<g clip-path="url(#clip0_143_129)">
<path d="M30.625 23.3334V17.5001C30.6245 15.5409 30.1846 13.6067 29.3376 11.84C28.4906 10.0733 27.2581 8.51905 25.7308 7.29177H29.5706C29.8938 7.84245 30.3895 8.27125 30.981 8.51178C31.5725 8.75232 32.2267 8.79117 32.8425 8.62233C33.4583 8.45349 34.0013 8.08637 34.3874 7.5778C34.7735 7.06924 34.9812 6.44758 34.9783 5.80907C34.9754 5.17056 34.7621 4.5508 34.3715 4.04573C33.9808 3.54065 33.4346 3.17844 32.8173 3.01515C32.2 2.85185 31.5461 2.89659 30.9568 3.14244C30.3675 3.38829 29.8757 3.82153 29.5575 4.3751H23.1263C22.8079 3.12446 22.082 2.01552 21.0631 1.22348C20.0442 0.431448 18.7905 0.00146484 17.5 0.00146484C16.2095 0.00146484 14.9558 0.431448 13.9369 1.22348C12.918 2.01552 12.1921 3.12446 11.8738 4.3751H5.42938C5.10619 3.82441 4.61049 3.39562 4.01901 3.15508C3.42753 2.91455 2.77325 2.8757 2.15746 3.04454C1.54167 3.21338 0.998706 3.5805 0.612616 4.08907C0.226527 4.59763 0.0188454 5.21929 0.0217187 5.8578C0.024592 6.49631 0.23786 7.11607 0.628511 7.62114C1.01916 8.12621 1.56541 8.48843 2.18269 8.65172C2.79998 8.81501 3.45388 8.77027 4.04317 8.52443C4.63246 8.27858 5.12428 7.84534 5.4425 7.29177H9.26917C7.74194 8.51905 6.50944 10.0733 5.66244 11.84C4.81543 13.6067 4.37549 15.5409 4.375 17.5001V23.3334C3.21468 23.3334 2.10188 23.7944 1.28141 24.6148C0.460936 25.4353 0 26.5481 0 27.7084L0 30.6251C0 31.7854 0.460936 32.8982 1.28141 33.7187C2.10188 34.5392 3.21468 35.0001 4.375 35.0001H7.29167C8.45199 35.0001 9.56479 34.5392 10.3853 33.7187C11.2057 32.8982 11.6667 31.7854 11.6667 30.6251V27.7084C11.6667 26.5481 11.2057 25.4353 10.3853 24.6148C9.56479 23.7944 8.45199 23.3334 7.29167 23.3334V17.5001C7.29404 15.7045 7.77001 13.9412 8.67155 12.3883C9.57309 10.8354 10.8683 9.54774 12.4265 8.65531C12.9237 9.56673 13.6572 10.3274 14.55 10.8573C15.4427 11.3873 16.4618 11.6669 17.5 11.6669C18.5382 11.6669 19.5573 11.3873 20.45 10.8573C21.3428 10.3274 22.0763 9.56673 22.5735 8.65531C24.1317 9.54774 25.4269 10.8354 26.3285 12.3883C27.23 13.9412 27.706 15.7045 27.7083 17.5001V23.3334C26.548 23.3334 25.4352 23.7944 24.6147 24.6148C23.7943 25.4353 23.3333 26.5481 23.3333 27.7084V30.6251C23.3333 31.7854 23.7943 32.8982 24.6147 33.7187C25.4352 34.5392 26.548 35.0001 27.7083 35.0001H30.625C31.7853 35.0001 32.8981 34.5392 33.7186 33.7187C34.5391 32.8982 35 31.7854 35 30.6251V27.7084C35 26.5481 34.5391 25.4353 33.7186 24.6148C32.8981 23.7944 31.7853 23.3334 30.625 23.3334Z" fill="white"/>
</g>
<defs>
<clipPath id="clip0_143_129">
<rect width="35" height="35" fill="white"/>
</clipPath>
</defs>
</svg>
