<svg xmlns="http://www.w3.org/2000/svg" xmlns:xlink="http://www.w3.org/1999/xlink" width="355" zoomAndPan="magnify" viewBox="0 0 266.25 62.999997" height="84" preserveAspectRatio="xMidYMid meet" version="1.0"><defs><g/><clipPath id="d0a4fff937"><path d="M 0 0.0898438 L 265.503906 0.0898438 L 265.503906 62.910156 L 0 62.910156 Z M 0 0.0898438 " clip-rule="nonzero"/></clipPath><clipPath id="899095ea64"><path d="M 0 0.0898438 L 265 0.0898438 L 265 62.339844 L 0 62.339844 Z M 0 0.0898438 " clip-rule="nonzero"/></clipPath><clipPath id="37a21d6c64"><path d="M 31.125 0.0898438 L 233.820312 0.0898438 C 251.011719 0.0898438 264.945312 14.023438 264.945312 31.214844 C 264.945312 48.40625 251.011719 62.339844 233.820312 62.339844 L 31.125 62.339844 C 13.9375 62.339844 0 48.40625 0 31.214844 C 0 14.023438 13.9375 0.0898438 31.125 0.0898438 Z M 31.125 0.0898438 " clip-rule="nonzero"/></clipPath><clipPath id="0a50f7f82e"><path d="M 0 0.0898438 L 206.941406 0.0898438 L 206.941406 62.339844 L 0 62.339844 Z M 0 0.0898438 " clip-rule="nonzero"/></clipPath><clipPath id="b980ec9bcd"><path d="M 31.125 0.0898438 L 175.757812 0.0898438 C 192.949219 0.0898438 206.886719 14.023438 206.886719 31.214844 C 206.886719 48.40625 192.949219 62.339844 175.757812 62.339844 L 31.125 62.339844 C 13.9375 62.339844 0 48.40625 0 31.214844 C 0 14.023438 13.9375 0.0898438 31.125 0.0898438 Z M 31.125 0.0898438 " clip-rule="nonzero"/></clipPath><clipPath id="e71eed5522"><path d="M 213.980469 10.558594 L 254.941406 10.558594 L 254.941406 51.691406 L 213.980469 51.691406 Z M 213.980469 10.558594 " clip-rule="nonzero"/></clipPath></defs><g clip-path="url(#d0a4fff937)"><path fill="#ffffff" d="M 0 0.0898438 L 265.503906 0.0898438 L 265.503906 62.910156 L 0 62.910156 Z M 0 0.0898438 " fill-opacity="1" fill-rule="nonzero"/></g><g clip-path="url(#899095ea64)"><g clip-path="url(#37a21d6c64)"><path fill="#ffffff" d="M 0 0.0898438 L 265.0625 0.0898438 L 265.0625 62.339844 L 0 62.339844 Z M 0 0.0898438 " fill-opacity="1" fill-rule="nonzero"/></g></g><g clip-path="url(#0a50f7f82e)"><g clip-path="url(#b980ec9bcd)"><path fill="#f4c811" d="M 0 0.0898438 L 206.941406 0.0898438 L 206.941406 62.339844 L 0 62.339844 Z M 0 0.0898438 " fill-opacity="1" fill-rule="nonzero"/></g></g><g fill="#000000" fill-opacity="1"><g transform="translate(30.397738, 39.997647)"><g><path d="M 2.046875 0 L 2.046875 -19.375 L 4.375 -19.375 L 4.375 -1.859375 L 13.390625 -1.859375 L 13.390625 0 Z M 2.046875 0 "/></g></g></g><g fill="#000000" fill-opacity="1"><g transform="translate(44.924831, 39.997647)"><g><path d="M 8.078125 0.328125 C 6.765625 0.328125 5.601562 0.03125 4.59375 -0.5625 C 3.582031 -1.164062 2.785156 -2 2.203125 -3.0625 C 1.617188 -4.132812 1.328125 -5.398438 1.328125 -6.859375 C 1.328125 -8.296875 1.613281 -9.554688 2.1875 -10.640625 C 2.757812 -11.722656 3.554688 -12.5625 4.578125 -13.15625 C 5.597656 -13.757812 6.785156 -14.0625 8.140625 -14.0625 C 9.460938 -14.0625 10.609375 -13.757812 11.578125 -13.15625 C 12.546875 -12.5625 13.285156 -11.773438 13.796875 -10.796875 C 14.316406 -9.816406 14.578125 -8.765625 14.578125 -7.640625 C 14.578125 -7.429688 14.570312 -7.222656 14.5625 -7.015625 C 14.5625 -6.816406 14.5625 -6.59375 14.5625 -6.34375 L 3.625 -6.34375 C 3.675781 -5.289062 3.921875 -4.414062 4.359375 -3.71875 C 4.796875 -3.03125 5.335938 -2.507812 5.984375 -2.15625 C 6.640625 -1.800781 7.335938 -1.625 8.078125 -1.625 C 9.035156 -1.625 9.835938 -1.84375 10.484375 -2.28125 C 11.128906 -2.726562 11.601562 -3.332031 11.90625 -4.09375 L 14.203125 -4.09375 C 13.828125 -2.820312 13.117188 -1.765625 12.078125 -0.921875 C 11.035156 -0.0859375 9.703125 0.328125 8.078125 0.328125 Z M 8.078125 -12.09375 C 6.972656 -12.09375 5.988281 -11.753906 5.125 -11.078125 C 4.269531 -10.410156 3.78125 -9.429688 3.65625 -8.140625 L 12.28125 -8.140625 C 12.226562 -9.367188 11.804688 -10.332031 11.015625 -11.03125 C 10.222656 -11.738281 9.242188 -12.09375 8.078125 -12.09375 Z M 8.078125 -12.09375 "/></g></g></g><g fill="#000000" fill-opacity="1"><g transform="translate(60.669428, 39.997647)"><g><path d="M 6.46875 0.328125 C 5.332031 0.328125 4.382812 0.132812 3.625 -0.25 C 2.863281 -0.632812 2.300781 -1.148438 1.9375 -1.796875 C 1.570312 -2.441406 1.390625 -3.144531 1.390625 -3.90625 C 1.390625 -5.300781 1.921875 -6.378906 2.984375 -7.140625 C 4.054688 -7.898438 5.515625 -8.28125 7.359375 -8.28125 L 11.0625 -8.28125 L 11.0625 -8.4375 C 11.0625 -9.632812 10.75 -10.539062 10.125 -11.15625 C 9.5 -11.78125 8.660156 -12.09375 7.609375 -12.09375 C 6.703125 -12.09375 5.921875 -11.863281 5.265625 -11.40625 C 4.617188 -10.957031 4.210938 -10.300781 4.046875 -9.4375 L 1.65625 -9.4375 C 1.75 -10.4375 2.085938 -11.273438 2.671875 -11.953125 C 3.253906 -12.640625 3.976562 -13.160156 4.84375 -13.515625 C 5.707031 -13.878906 6.628906 -14.0625 7.609375 -14.0625 C 9.523438 -14.0625 10.96875 -13.546875 11.9375 -12.515625 C 12.90625 -11.492188 13.390625 -10.132812 13.390625 -8.4375 L 13.390625 0 L 11.3125 0 L 11.171875 -2.46875 C 10.785156 -1.6875 10.21875 -1.023438 9.46875 -0.484375 C 8.726562 0.0546875 7.726562 0.328125 6.46875 0.328125 Z M 6.828125 -1.625 C 7.710938 -1.625 8.472656 -1.851562 9.109375 -2.3125 C 9.753906 -2.78125 10.238281 -3.382812 10.5625 -4.125 C 10.894531 -4.863281 11.0625 -5.640625 11.0625 -6.453125 L 11.0625 -6.46875 L 7.546875 -6.46875 C 6.179688 -6.46875 5.21875 -6.234375 4.65625 -5.765625 C 4.09375 -5.296875 3.8125 -4.710938 3.8125 -4.015625 C 3.8125 -3.296875 4.070312 -2.71875 4.59375 -2.28125 C 5.125 -1.84375 5.867188 -1.625 6.828125 -1.625 Z M 6.828125 -1.625 "/></g></g></g><g fill="#000000" fill-opacity="1"><g transform="translate(75.639254, 39.997647)"><g><path d="M 1.90625 0 L 1.90625 -13.71875 L 4.015625 -13.71875 L 4.203125 -11.09375 C 4.628906 -12 5.273438 -12.71875 6.140625 -13.25 C 7.003906 -13.789062 8.078125 -14.0625 9.359375 -14.0625 L 9.359375 -11.625 L 8.71875 -11.625 C 7.90625 -11.625 7.15625 -11.476562 6.46875 -11.1875 C 5.789062 -10.90625 5.25 -10.421875 4.84375 -9.734375 C 4.4375 -9.054688 4.234375 -8.117188 4.234375 -6.921875 L 4.234375 0 Z M 1.90625 0 "/></g></g></g><g fill="#000000" fill-opacity="1"><g transform="translate(85.683701, 39.997647)"><g><path d="M 1.90625 0 L 1.90625 -13.71875 L 4.015625 -13.71875 L 4.15625 -11.265625 C 4.59375 -12.128906 5.226562 -12.8125 6.0625 -13.3125 C 6.894531 -13.8125 7.832031 -14.0625 8.875 -14.0625 C 10.5 -14.0625 11.796875 -13.566406 12.765625 -12.578125 C 13.734375 -11.585938 14.21875 -10.070312 14.21875 -8.03125 L 14.21875 0 L 11.90625 0 L 11.90625 -7.78125 C 11.90625 -10.632812 10.722656 -12.0625 8.359375 -12.0625 C 7.171875 -12.0625 6.1875 -11.628906 5.40625 -10.765625 C 4.625 -9.910156 4.234375 -8.691406 4.234375 -7.109375 L 4.234375 0 Z M 1.90625 0 "/></g></g></g><g fill="#000000" fill-opacity="1"><g transform="translate(101.511314, 39.997647)"><g/></g></g><g fill="#000000" fill-opacity="1"><g transform="translate(108.844036, 39.997647)"><g><path d="M 2.046875 0 L 2.046875 -19.375 L 4.765625 -19.375 L 11.734375 -5.859375 L 18.65625 -19.375 L 21.390625 -19.375 L 21.390625 0 L 19.0625 0 L 19.0625 -15.21875 L 12.59375 -2.765625 L 10.84375 -2.765625 L 4.375 -15.1875 L 4.375 0 Z M 2.046875 0 "/></g></g></g><g fill="#000000" fill-opacity="1"><g transform="translate(132.281086, 39.997647)"><g><path d="M 8.15625 0.328125 C 6.863281 0.328125 5.703125 0.0351562 4.671875 -0.546875 C 3.640625 -1.140625 2.820312 -1.972656 2.21875 -3.046875 C 1.625 -4.128906 1.328125 -5.398438 1.328125 -6.859375 C 1.328125 -8.316406 1.628906 -9.582031 2.234375 -10.65625 C 2.847656 -11.738281 3.675781 -12.578125 4.71875 -13.171875 C 5.757812 -13.765625 6.925781 -14.0625 8.21875 -14.0625 C 9.507812 -14.0625 10.671875 -13.765625 11.703125 -13.171875 C 12.734375 -12.578125 13.546875 -11.738281 14.140625 -10.65625 C 14.742188 -9.582031 15.046875 -8.316406 15.046875 -6.859375 C 15.046875 -5.398438 14.742188 -4.128906 14.140625 -3.046875 C 13.535156 -1.972656 12.707031 -1.140625 11.65625 -0.546875 C 10.613281 0.0351562 9.445312 0.328125 8.15625 0.328125 Z M 8.15625 -1.65625 C 8.957031 -1.65625 9.695312 -1.847656 10.375 -2.234375 C 11.0625 -2.628906 11.613281 -3.210938 12.03125 -3.984375 C 12.457031 -4.753906 12.671875 -5.710938 12.671875 -6.859375 C 12.671875 -8.003906 12.460938 -8.960938 12.046875 -9.734375 C 11.628906 -10.515625 11.078125 -11.097656 10.390625 -11.484375 C 9.710938 -11.867188 8.988281 -12.0625 8.21875 -12.0625 C 7.425781 -12.0625 6.6875 -11.867188 6 -11.484375 C 5.320312 -11.097656 4.769531 -10.515625 4.34375 -9.734375 C 3.914062 -8.960938 3.703125 -8.003906 3.703125 -6.859375 C 3.703125 -5.710938 3.914062 -4.753906 4.34375 -3.984375 C 4.769531 -3.210938 5.316406 -2.628906 5.984375 -2.234375 C 6.660156 -1.847656 7.382812 -1.65625 8.15625 -1.65625 Z M 8.15625 -1.65625 "/></g></g></g><g fill="#000000" fill-opacity="1"><g transform="translate(148.662116, 39.997647)"><g><path d="M 1.90625 0 L 1.90625 -13.71875 L 4.015625 -13.71875 L 4.203125 -11.09375 C 4.628906 -12 5.273438 -12.71875 6.140625 -13.25 C 7.003906 -13.789062 8.078125 -14.0625 9.359375 -14.0625 L 9.359375 -11.625 L 8.71875 -11.625 C 7.90625 -11.625 7.15625 -11.476562 6.46875 -11.1875 C 5.789062 -10.90625 5.25 -10.421875 4.84375 -9.734375 C 4.4375 -9.054688 4.234375 -8.117188 4.234375 -6.921875 L 4.234375 0 Z M 1.90625 0 "/></g></g></g><g fill="#000000" fill-opacity="1"><g transform="translate(158.706562, 39.997647)"><g><path d="M 8.078125 0.328125 C 6.765625 0.328125 5.601562 0.03125 4.59375 -0.5625 C 3.582031 -1.164062 2.785156 -2 2.203125 -3.0625 C 1.617188 -4.132812 1.328125 -5.398438 1.328125 -6.859375 C 1.328125 -8.296875 1.613281 -9.554688 2.1875 -10.640625 C 2.757812 -11.722656 3.554688 -12.5625 4.578125 -13.15625 C 5.597656 -13.757812 6.785156 -14.0625 8.140625 -14.0625 C 9.460938 -14.0625 10.609375 -13.757812 11.578125 -13.15625 C 12.546875 -12.5625 13.285156 -11.773438 13.796875 -10.796875 C 14.316406 -9.816406 14.578125 -8.765625 14.578125 -7.640625 C 14.578125 -7.429688 14.570312 -7.222656 14.5625 -7.015625 C 14.5625 -6.816406 14.5625 -6.59375 14.5625 -6.34375 L 3.625 -6.34375 C 3.675781 -5.289062 3.921875 -4.414062 4.359375 -3.71875 C 4.796875 -3.03125 5.335938 -2.507812 5.984375 -2.15625 C 6.640625 -1.800781 7.335938 -1.625 8.078125 -1.625 C 9.035156 -1.625 9.835938 -1.84375 10.484375 -2.28125 C 11.128906 -2.726562 11.601562 -3.332031 11.90625 -4.09375 L 14.203125 -4.09375 C 13.828125 -2.820312 13.117188 -1.765625 12.078125 -0.921875 C 11.035156 -0.0859375 9.703125 0.328125 8.078125 0.328125 Z M 8.078125 -12.09375 C 6.972656 -12.09375 5.988281 -11.753906 5.125 -11.078125 C 4.269531 -10.410156 3.78125 -9.429688 3.65625 -8.140625 L 12.28125 -8.140625 C 12.226562 -9.367188 11.804688 -10.332031 11.015625 -11.03125 C 10.222656 -11.738281 9.242188 -12.09375 8.078125 -12.09375 Z M 8.078125 -12.09375 "/></g></g></g><path fill="#000000" d="M 243.207031 32.761719 L 237.015625 38.953125 C 236.238281 39.730469 234.886719 39.148438 234.886719 37.988281 L 234.886719 34.832031 C 234.886719 34.007812 234.21875 33.339844 233.394531 33.339844 L 227.722656 33.339844 C 226.5625 33.339844 225.59375 32.375 225.59375 31.210938 C 225.59375 30.050781 226.5625 29.082031 227.722656 29.082031 L 233.394531 29.082031 C 234.21875 29.082031 234.886719 28.414062 234.886719 27.59375 L 234.886719 24.4375 C 234.886719 23.277344 236.238281 22.695312 237.015625 23.46875 L 243.207031 29.664062 C 243.980469 30.824219 243.980469 31.984375 243.207031 32.761719 " fill-opacity="1" fill-rule="nonzero"/><g clip-path="url(#e71eed5522)"><path fill="#000000" d="M 234.457031 14.816406 C 225.515625 14.816406 218.066406 22.058594 218.066406 31.210938 C 218.066406 40.15625 225.304688 47.605469 234.457031 47.605469 C 243.402344 47.605469 250.851562 40.367188 250.851562 31.210938 C 250.851562 22.269531 243.613281 14.816406 234.457031 14.816406 Z M 234.457031 51.863281 C 222.960938 51.863281 213.804688 42.710938 213.804688 31.210938 C 213.804688 19.714844 222.960938 10.558594 234.457031 10.558594 C 245.957031 10.558594 255.113281 19.714844 255.113281 31.210938 C 255.324219 42.710938 245.957031 51.863281 234.457031 51.863281 " fill-opacity="1" fill-rule="nonzero"/></g></svg>