<svg xmlns="http://www.w3.org/2000/svg" xmlns:xlink="http://www.w3.org/1999/xlink" width="1920" zoomAndPan="magnify" viewBox="0 0 1440 486.749983" height="649" preserveAspectRatio="xMidYMid meet" version="1.0"><defs><clipPath id="77ec467210"><path d="M 4.425781 5.785156 L 1430.886719 5.785156 L 1430.886719 470.578125 L 4.425781 470.578125 Z M 4.425781 5.785156 " clip-rule="nonzero"/></clipPath><clipPath id="0c5c5a11dd"><path d="M 347.660156 405.457031 L 1087.734375 405.457031 L 1087.734375 486.121094 L 347.660156 486.121094 Z M 347.660156 405.457031 " clip-rule="nonzero"/></clipPath><clipPath id="e6f420507b"><path d="M 390.449219 412 L 444 412 L 444 478 L 390.449219 478 Z M 390.449219 412 " clip-rule="nonzero"/></clipPath><clipPath id="dd7aede903"><path d="M 455.328125 412 L 462 412 L 462 478 L 455.328125 478 Z M 455.328125 412 " clip-rule="nonzero"/></clipPath><clipPath id="89a77b81db"><path d="M 564 412 L 606.714844 412 L 606.714844 478 L 564 478 Z M 564 412 " clip-rule="nonzero"/></clipPath></defs><g clip-path="url(#77ec467210)"><path stroke-linecap="butt" transform="matrix(5.246096, 0, 0, 5.281802, 4.446881, 5.793967)" fill="none" stroke-linejoin="miter" d="M -0.00402204 -0.00166807 L 271.905006 -0.00166807 L 271.905006 88.404777 L -0.00402204 88.404777 Z M -0.00402204 -0.00166807 " stroke="#ffffff" stroke-width="9.739" stroke-opacity="1" stroke-miterlimit="4"/></g><g clip-path="url(#0c5c5a11dd)"><path fill="#8a36eb" d="M 347.660156 405.457031 L 1087.691406 405.457031 L 1087.691406 502.464844 L 347.660156 502.464844 Z M 347.660156 405.457031 " fill-opacity="1" fill-rule="nonzero"/></g><path fill="#ffffff" d="M 291.019531 197.640625 C 291.019531 208.746094 288.484375 218.925781 283.457031 228.089844 C 278.429688 237.296875 270.660156 244.6875 260.183594 250.300781 C 249.707031 255.917969 236.742188 258.707031 221.195312 258.707031 L 192.472656 258.707031 L 192.472656 327.5 L 146.136719 327.5 L 146.136719 136.027344 L 221.195312 136.027344 C 236.316406 136.027344 249.117188 138.644531 259.632812 143.878906 C 270.109375 149.160156 277.964844 156.421875 283.203125 165.757812 C 288.398438 175.003906 291.019531 185.648438 291.019531 197.640625 Z M 217.648438 221.628906 C 226.476562 221.628906 233.066406 219.558594 237.375 215.378906 C 241.722656 211.195312 243.878906 205.285156 243.878906 197.640625 C 243.878906 189.996094 241.722656 184.085938 237.375 179.902344 C 233.066406 175.722656 226.476562 173.652344 217.648438 173.652344 L 192.472656 173.652344 L 192.472656 221.628906 Z M 217.648438 221.628906 " fill-opacity="1" fill-rule="nonzero"/><path fill="#ffffff" d="M 325.1875 136.027344 L 371.527344 136.027344 L 371.527344 327.5 L 325.1875 327.5 Z M 325.1875 136.027344 " fill-opacity="1" fill-rule="nonzero"/><path fill="#ffffff" d="M 531.695312 327.5 L 492.878906 268.84375 L 458.75 327.5 L 406.160156 327.5 L 467.199219 230.160156 L 404.808594 136.027344 L 458.75 136.027344 L 496.976562 193.796875 L 530.515625 136.027344 L 583.101562 136.027344 L 522.699219 232.566406 L 585.59375 327.5 Z M 531.695312 327.5 " fill-opacity="1" fill-rule="nonzero"/><path fill="#ffffff" d="M 665.214844 173.359375 L 665.214844 212.167969 L 727.222656 212.167969 L 727.222656 248.148438 L 665.214844 248.148438 L 665.214844 290.167969 L 735.417969 290.167969 L 735.417969 327.5 L 618.878906 327.5 L 618.878906 136.027344 L 735.417969 136.027344 L 735.417969 173.359375 Z M 665.214844 173.359375 " fill-opacity="1" fill-rule="nonzero"/><path fill="#ffffff" d="M 821.796875 291.519531 L 882.492188 291.519531 L 882.492188 327.5 L 775.460938 327.5 L 775.460938 136.027344 L 821.796875 136.027344 Z M 821.796875 291.519531 " fill-opacity="1" fill-rule="nonzero"/><path fill="#ffffff" d="M 914.722656 136.027344 L 961.058594 136.027344 L 961.058594 327.5 L 914.722656 327.5 Z M 914.722656 136.027344 " fill-opacity="1" fill-rule="nonzero"/><path fill="#ffffff" d="M 1053.941406 289.367188 L 1135.800781 289.367188 L 1135.800781 327.5 L 1001.355469 327.5 L 1001.355469 292.027344 L 1082.664062 174.160156 L 1001.355469 174.160156 L 1001.355469 136.027344 L 1135.800781 136.027344 L 1135.800781 171.5 Z M 1053.941406 289.367188 " fill-opacity="1" fill-rule="nonzero"/><path fill="#ffffff" d="M 1222.519531 173.359375 L 1222.519531 212.167969 L 1284.527344 212.167969 L 1284.527344 248.148438 L 1222.519531 248.148438 L 1222.519531 290.167969 L 1292.679688 290.167969 L 1292.679688 327.5 L 1176.140625 327.5 L 1176.140625 136.027344 L 1292.679688 136.027344 L 1292.679688 173.359375 Z M 1222.519531 173.359375 " fill-opacity="1" fill-rule="nonzero"/><g clip-path="url(#e6f420507b)"><path fill="#ffffff" d="M 409.582031 412.511719 C 416.636719 412.511719 422.71875 413.820312 427.832031 416.4375 C 432.941406 419.015625 436.828125 422.773438 439.488281 427.628906 C 442.148438 432.488281 443.5 438.273438 443.5 444.945312 C 443.5 451.617188 442.148438 457.359375 439.488281 462.21875 C 436.828125 466.988281 432.941406 470.664062 427.832031 473.238281 C 422.71875 475.816406 416.636719 477.082031 409.582031 477.082031 L 390.574219 477.082031 L 390.574219 412.511719 Z M 409.582031 471.71875 C 418.496094 471.71875 425.253906 469.355469 429.984375 464.625 C 434.632812 459.9375 436.996094 453.347656 436.996094 444.945312 C 436.996094 436.457031 434.632812 429.828125 429.984375 425.054688 C 425.253906 420.28125 418.496094 417.875 409.582031 417.875 L 397.039062 417.875 L 397.039062 471.71875 Z M 409.582031 471.71875 " fill-opacity="1" fill-rule="nonzero"/></g><g clip-path="url(#dd7aede903)"><path fill="#ffffff" d="M 455.328125 412.511719 L 461.832031 412.511719 L 461.832031 477.082031 L 455.328125 477.082031 Z M 455.328125 412.511719 " fill-opacity="1" fill-rule="nonzero"/></g><path fill="#ffffff" d="M 526.882812 431.390625 C 525.023438 427.164062 522.191406 423.828125 518.433594 421.378906 C 514.675781 418.929688 510.238281 417.707031 505.171875 417.707031 C 500.398438 417.707031 496.132812 418.804688 492.328125 421 C 488.527344 423.238281 485.53125 426.40625 483.375 430.5 C 481.179688 434.597656 480.082031 439.328125 480.082031 444.734375 C 480.082031 450.179688 481.179688 454.953125 483.375 459.09375 C 485.53125 463.1875 488.527344 466.398438 492.328125 468.550781 C 496.132812 470.789062 500.398438 471.886719 505.171875 471.886719 C 509.605469 471.886719 513.617188 470.960938 517.167969 469.015625 C 520.757812 467.03125 523.671875 464.285156 525.785156 460.695312 C 527.980469 457.105469 529.203125 452.882812 529.542969 448.070312 L 502.59375 448.070312 L 502.59375 442.792969 L 536.386719 442.792969 L 536.386719 447.519531 C 536.089844 453.222656 534.527344 458.332031 531.738281 462.933594 C 529.035156 467.539062 525.359375 471.128906 520.714844 473.746094 C 516.109375 476.40625 510.914062 477.714844 505.171875 477.714844 C 499.214844 477.714844 493.808594 476.324219 488.949219 473.492188 C 484.175781 470.707031 480.375 466.777344 477.589844 461.753906 C 474.800781 456.769531 473.40625 451.066406 473.40625 444.734375 C 473.40625 438.441406 474.800781 432.738281 477.589844 427.714844 C 480.375 422.730469 484.175781 418.804688 488.949219 416.015625 C 493.808594 413.1875 499.214844 411.792969 505.171875 411.792969 C 512.011719 411.792969 518.011719 413.523438 523.121094 416.988281 C 528.277344 420.449219 532.035156 425.265625 534.359375 431.390625 Z M 526.882812 431.390625 " fill-opacity="1" fill-rule="nonzero"/><path fill="#ffffff" d="M 548.085938 412.511719 L 554.589844 412.511719 L 554.589844 477.082031 L 548.085938 477.082031 Z M 548.085938 412.511719 " fill-opacity="1" fill-rule="nonzero"/><g clip-path="url(#89a77b81db)"><path fill="#ffffff" d="M 606.628906 412.511719 L 606.628906 417.875 L 588.847656 417.875 L 588.847656 477.082031 L 582.425781 477.082031 L 582.425781 417.875 L 564.558594 417.875 L 564.558594 412.511719 Z M 606.628906 412.511719 " fill-opacity="1" fill-rule="nonzero"/></g><path fill="#ffffff" d="M 653.980469 461.753906 L 624.792969 461.753906 L 619.175781 477.082031 L 612.414062 477.082031 L 635.816406 413.398438 L 643.039062 413.398438 L 666.355469 477.082031 L 659.597656 477.082031 Z M 652.035156 456.390625 L 639.40625 421.464844 L 626.777344 456.390625 Z M 652.035156 456.390625 " fill-opacity="1" fill-rule="nonzero"/><path fill="#ffffff" d="M 683.082031 471.804688 L 706.058594 471.804688 L 706.058594 477.082031 L 676.621094 477.082031 L 676.621094 412.511719 L 683.082031 412.511719 Z M 683.082031 471.804688 " fill-opacity="1" fill-rule="nonzero"/><path fill="#ffffff" d="M 759.832031 477.714844 C 755.605469 477.714844 751.933594 477 748.722656 475.5625 C 745.511719 474.085938 742.976562 472.015625 741.160156 469.398438 C 739.34375 466.695312 738.332031 463.695312 738.246094 460.402344 L 745.003906 460.402344 C 745.300781 463.609375 746.652344 466.398438 749.101562 468.761719 C 751.59375 471.085938 755.140625 472.226562 759.832031 472.226562 C 764.179688 472.226562 767.601562 471.128906 770.179688 468.933594 C 772.714844 466.652344 773.980469 463.820312 773.980469 460.316406 C 773.980469 457.613281 773.304688 455.375 771.867188 453.6875 C 770.433594 451.996094 768.699219 450.6875 766.632812 449.84375 C 764.519531 449.042969 761.648438 448.113281 757.972656 447.183594 C 753.707031 445.957031 750.328125 444.816406 747.835938 443.761719 C 745.34375 442.621094 743.230469 440.890625 741.457031 438.566406 C 739.640625 436.246094 738.753906 433.078125 738.753906 429.066406 C 738.753906 425.730469 739.597656 422.773438 741.328125 420.199219 C 743.0625 417.578125 745.46875 415.511719 748.554688 414.03125 C 751.679688 412.554688 755.269531 411.792969 759.324219 411.792969 C 765.238281 411.792969 770.011719 413.273438 773.644531 416.1875 C 777.316406 419.097656 779.429688 422.859375 779.9375 427.460938 L 772.925781 427.460938 C 772.503906 424.84375 771.066406 422.519531 768.660156 420.492188 C 766.207031 418.382812 762.914062 417.324219 758.773438 417.324219 C 754.929688 417.324219 751.679688 418.382812 749.101562 420.492188 C 746.527344 422.519531 745.257812 425.308594 745.257812 428.898438 C 745.257812 431.601562 745.976562 433.796875 747.414062 435.441406 C 748.804688 437.132812 750.539062 438.398438 752.648438 439.285156 C 754.761719 440.128906 757.632812 441.015625 761.265625 441.988281 C 765.40625 443.171875 768.785156 444.355469 771.320312 445.453125 C 773.855469 446.59375 776.050781 448.324219 777.824219 450.644531 C 779.597656 452.96875 780.484375 456.136719 780.484375 460.0625 C 780.484375 463.105469 779.683594 466.019531 778.078125 468.761719 C 776.472656 471.421875 774.109375 473.621094 770.980469 475.308594 C 767.898438 476.914062 764.179688 477.714844 759.832031 477.714844 Z M 759.832031 477.714844 " fill-opacity="1" fill-rule="nonzero"/><path fill="#ffffff" d="M 830.371094 412.511719 L 830.371094 417.875 L 812.585938 417.875 L 812.585938 477.082031 L 806.210938 477.082031 L 806.210938 417.875 L 788.300781 417.875 L 788.300781 412.511719 Z M 830.371094 412.511719 " fill-opacity="1" fill-rule="nonzero"/><path fill="#ffffff" d="M 846.757812 412.511719 L 846.757812 453.179688 C 846.757812 459.558594 848.28125 464.328125 851.320312 467.410156 C 854.320312 470.453125 858.460938 471.972656 863.695312 471.972656 C 868.933594 471.972656 873.074219 470.453125 876.03125 467.410156 C 878.988281 464.371094 880.507812 459.597656 880.507812 453.179688 L 880.507812 412.511719 L 886.886719 412.511719 L 886.886719 453.09375 C 886.886719 461.289062 884.730469 467.410156 880.421875 471.507812 C 876.117188 475.648438 870.539062 477.714844 863.613281 477.714844 C 856.683594 477.714844 851.109375 475.648438 846.757812 471.507812 C 842.449219 467.410156 840.296875 461.289062 840.296875 453.09375 L 840.296875 412.511719 Z M 846.757812 412.511719 " fill-opacity="1" fill-rule="nonzero"/><path fill="#ffffff" d="M 920.214844 412.511719 C 927.265625 412.511719 933.347656 413.820312 938.460938 416.4375 C 943.570312 419.015625 947.457031 422.773438 950.117188 427.628906 C 952.78125 432.488281 954.132812 438.273438 954.132812 444.945312 C 954.132812 451.617188 952.78125 457.359375 950.117188 462.21875 C 947.457031 466.988281 943.570312 470.664062 938.460938 473.238281 C 933.347656 475.816406 927.265625 477.082031 920.214844 477.082031 L 901.207031 477.082031 L 901.207031 412.511719 Z M 920.214844 471.71875 C 929.125 471.71875 935.925781 469.355469 940.613281 464.625 C 945.261719 459.9375 947.625 453.347656 947.625 444.945312 C 947.625 436.457031 945.261719 429.828125 940.613281 425.054688 C 935.925781 420.28125 929.125 417.875 920.214844 417.875 L 907.667969 417.875 L 907.667969 471.71875 Z M 920.214844 471.71875 " fill-opacity="1" fill-rule="nonzero"/><path fill="#ffffff" d="M 965.957031 412.511719 L 972.464844 412.511719 L 972.464844 477.082031 L 965.957031 477.082031 Z M 965.957031 412.511719 " fill-opacity="1" fill-rule="nonzero"/><path fill="#ffffff" d="M 1015.800781 477.714844 C 1009.84375 477.714844 1004.4375 476.324219 999.621094 473.492188 C 994.808594 470.707031 991.007812 466.777344 988.21875 461.753906 C 985.429688 456.769531 984.035156 451.066406 984.035156 444.734375 C 984.035156 438.441406 985.429688 432.738281 988.21875 427.714844 C 991.007812 422.730469 994.808594 418.804688 999.621094 416.015625 C 1004.4375 413.1875 1009.84375 411.792969 1015.800781 411.792969 C 1021.796875 411.792969 1027.164062 413.1875 1031.976562 416.015625 C 1036.835938 418.804688 1040.636719 422.730469 1043.382812 427.714844 C 1046.171875 432.738281 1047.5625 438.441406 1047.5625 444.734375 C 1047.5625 451.066406 1046.171875 456.769531 1043.382812 461.753906 C 1040.636719 466.777344 1036.835938 470.707031 1031.976562 473.492188 C 1027.164062 476.324219 1021.796875 477.714844 1015.800781 477.714844 Z M 1015.800781 472.058594 C 1020.617188 472.058594 1024.882812 470.960938 1028.597656 468.761719 C 1032.398438 466.566406 1035.398438 463.359375 1037.597656 459.261719 C 1039.835938 455.082031 1040.976562 450.265625 1040.976562 444.734375 C 1040.976562 439.242188 1039.835938 434.429688 1037.597656 430.332031 C 1035.398438 426.195312 1032.398438 423.070312 1028.597656 420.832031 C 1024.882812 418.636719 1020.617188 417.535156 1015.800781 417.535156 C 1011.027344 417.535156 1006.761719 418.636719 1003 420.832031 C 999.199219 423.070312 996.160156 426.195312 994.003906 430.332031 C 991.808594 434.429688 990.710938 439.242188 990.710938 444.734375 C 990.710938 450.265625 991.808594 455.082031 994.003906 459.261719 C 996.160156 463.359375 999.199219 466.566406 1003 468.761719 C 1006.761719 470.960938 1011.027344 472.058594 1015.800781 472.058594 Z M 1015.800781 472.058594 " fill-opacity="1" fill-rule="nonzero"/></svg>